<?xml version="1.0" encoding="UTF-8"?>
<svg width="225px" height="225px" viewBox="0 0 225 225" version="1.1" xmlns="http://www.w3.org/2000/svg" xmlns:xlink="http://www.w3.org/1999/xlink">
    <title>imagen-black-logo</title>
    <g id="imagen-black-logo" stroke="none" fill="none" fill-rule="evenodd" stroke-width="1">
        <g id="mark" fill="#3D3D3D" transform="translate(-20.1257, -21.5044)">
            <g id="grid" transform="translate(46.1208, 46.0561)">
                <path d="M168.764881,120.001422 C159.884773,142.184708 142.184708,159.884773 120.001422,168.764881 L120,120 Z" id="pixel-3x3"></path>
                <path d="M115,120 L115.000312,170.591111 C106.352429,173.451735 97.1070228,175 87.5,175 C77.5211655,175 67.9324801,173.329574 58.998314,170.253091 L59,120 L115,120 Z" id="pixel-3x2"></path>
                <path d="M55,120 L54.9985781,168.764881 C32.815292,159.884773 15.1152265,142.184708 6.23511939,120.001422 L55,120 Z" id="pixel-3x1"></path>
                <path d="M170.59086,59.9989294 C173.451644,68.6470303 175,77.8926962 175,87.5 C175,97.4787233 173.329611,107.067306 170.253194,116.001387 L120,116 L120,60 Z" id="pixel-2x3"></path>
                <path d="M55,60 L55,116 L4.7468063,116.001387 C1.67038929,107.067306 0,97.4787233 0,87.5 C0,77.8926962 1.54835585,68.6470303 4.40914041,59.9989294 L55,60 Z" id="pixel-2x1"></path>
                <path d="M120.001422,6.23511939 C142.517543,15.2484625 160.414903,33.3484167 169.158617,56.0000969 L120,56 Z" id="pixel-1x3"></path>
                <path d="M87.5,0 C97.1070228,0 106.352429,1.54826527 115.000312,4.40888935 L115,56 L59,56 L58.998314,4.74690907 C67.9324801,1.67042649 77.5211655,0 87.5,0 Z" id="pixel-1x2"></path>
                <path d="M54.9993427,6.23481333 L55,56 L5.84138255,56.0000969 C14.5851956,33.3481603 32.482862,15.2480528 54.9993427,6.23481333 Z" id="pixel-1x1"></path>
            </g>
            <g id="camera" transform="translate(0, -0)">
                <g id="Blade-45" transform="translate(85.3529, 77.3529) rotate(45) translate(-85.3529, -77.3529)translate(57.8639, -4.5516)">
                    <path d="M1.15625,86.5 C1.24995295,100.227074 2.27827876,108.447974 4.22607422,115.448242 C5.81413847,121.155656 9.50923508,129.893655 13.9794922,137.163086 C22.8346659,151.563169 33.7441406,148.994629 31.9550781,146.789063 C21.1298828,135.302246 9.82519531,115.955922 9.82519531,84.5514224 C9.82519531,82.1817149 7.44125369,83.0941691 5.49414063,80.5516143 C3.54702756,78.0090596 3.65103146,75.6590798 2.26123047,74.4077148 C1.01205447,74.4077148 1.15625,79.1723633 1.15625,86.5 Z" id="Blade"></path>
                </g>
                <g id="Blade-90" transform="translate(139.3529, 59.3529) rotate(90) translate(-139.3529, -59.3529)translate(111.8639, -22.5516)">
                    <path d="M1.15625,86.5 C1.24995295,100.227074 2.27827876,108.447974 4.22607422,115.448242 C5.81413847,121.155656 9.50923508,129.893655 13.9794922,137.163086 C22.8346659,151.563169 33.7441406,148.994629 31.9550781,146.789063 C21.1298828,135.302246 9.82519531,115.955922 9.82519531,84.5514224 C9.82519531,82.1817149 7.44125369,83.0941691 5.49414063,80.5516143 C3.54702756,78.0090596 3.65103146,75.6590798 2.26123047,74.4077148 C1.01205447,74.4077148 1.15625,79.1723633 1.15625,86.5 Z" id="Blade"></path>
                </g>
                <g id="Blade-135" transform="translate(190.3529, 85.3529) rotate(135) translate(-190.3529, -85.3529)translate(162.8639, 3.4484)">
                    <path d="M1.15625,86.5 C1.24995295,100.227074 2.27827876,108.447974 4.22607422,115.448242 C5.81413847,121.155656 9.50923508,129.893655 13.9794922,137.163086 C22.8346659,151.563169 33.7441406,148.994629 31.9550781,146.789063 C21.1298828,135.302246 9.82519531,115.955922 9.82519531,84.5514224 C9.82519531,82.1817149 7.44125369,83.0941691 5.49414063,80.5516143 C3.54702756,78.0090596 3.65103146,75.6590798 2.26123047,74.4077148 C1.01205447,74.4077148 1.15625,79.1723633 1.15625,86.5 Z" id="Blade"></path>
                </g>
                <g id="Blade-180" transform="translate(208.3529, 139.3529) rotate(180) translate(-208.3529, -139.3529)translate(180.8639, 57.4484)">
                    <path d="M1.15625,86.5 C1.24995295,100.227074 2.27827876,108.447974 4.22607422,115.448242 C5.81413847,121.155656 9.50923508,129.893655 13.9794922,137.163086 C22.8346659,151.563169 33.7441406,148.994629 31.9550781,146.789063 C21.1298828,135.302246 9.82519531,115.955922 9.82519531,84.5514224 C9.82519531,82.1817149 7.44125369,83.0941691 5.49414063,80.5516143 C3.54702756,78.0090596 3.65103146,75.6590798 2.26123047,74.4077148 C1.01205447,74.4077148 1.15625,79.1723633 1.15625,86.5 Z" id="Blade"></path>
                </g>
                <g id="Blade-225" transform="translate(182.3529, 190.3529) rotate(225) translate(-182.3529, -190.3529)translate(154.8639, 108.4484)">
                    <path d="M1.15625,86.5 C1.24995295,100.227074 2.27827876,108.447974 4.22607422,115.448242 C5.81413847,121.155656 9.50923508,129.893655 13.9794922,137.163086 C22.8346659,151.563169 33.7441406,148.994629 31.9550781,146.789063 C21.1298828,135.302246 9.82519531,115.955922 9.82519531,84.5514224 C9.82519531,82.1817149 7.44125369,83.0941691 5.49414063,80.5516143 C3.54702756,78.0090596 3.65103146,75.6590798 2.26123047,74.4077148 C1.01205447,74.4077148 1.15625,79.1723633 1.15625,86.5 Z" id="Blade"></path>
                </g>
                <g id="Blade-270" transform="translate(128.3529, 208.3529) rotate(270) translate(-128.3529, -208.3529)translate(100.8639, 126.4484)">
                    <path d="M1.15625,86.5 C1.24995295,100.227074 2.27827876,108.447974 4.22607422,115.448242 C5.81413847,121.155656 9.50923508,129.893655 13.9794922,137.163086 C22.8346659,151.563169 33.7441406,148.994629 31.9550781,146.789063 C21.1298828,135.302246 9.82519531,115.955922 9.82519531,84.5514224 C9.82519531,82.1817149 7.44125369,83.0941691 5.49414063,80.5516143 C3.54702756,78.0090596 3.65103146,75.6590798 2.26123047,74.4077148 C1.01205447,74.4077148 1.15625,79.1723633 1.15625,86.5 Z" id="Blade"></path>
                </g>
                <g id="Blade-315" transform="translate(77.3529, 182.3529) rotate(315) translate(-77.3529, -182.3529)translate(49.8639, 100.4484)">
                    <path d="M1.15625,86.5 C1.24995295,100.227074 2.27827876,108.447974 4.22607422,115.448242 C5.81413847,121.155656 9.50923508,129.893655 13.9794922,137.163086 C22.8346659,151.563169 33.7441406,148.994629 31.9550781,146.789063 C21.1298828,135.302246 9.82519531,115.955922 9.82519531,84.5514224 C9.82519531,82.1817149 7.44125369,83.0941691 5.49414063,80.5516143 C3.54702756,78.0090596 3.65103146,75.6590798 2.26123047,74.4077148 C1.01205447,74.4077148 1.15625,79.1723633 1.15625,86.5 Z" id="Blade"></path>
                </g>
                <g id="Eclipse-Arc-Blade" transform="translate(32.0869, 46.0561)">
                    <path d="M1.15625,86.5 C1.24995295,100.227074 2.27827876,108.447974 4.22607422,115.448242 C5.81413847,121.155656 9.50923508,129.893655 13.9794922,137.163086 C22.8346659,151.563169 33.7441406,148.994629 31.9550781,146.789063 C21.1298828,135.302246 9.82519531,115.955922 9.82519531,84.5514224 C9.82519531,82.1817149 7.44125369,83.0941691 5.49414063,80.5516143 C3.54702756,78.0090596 3.65103146,75.6590798 2.26123047,74.4077148 C1.01205447,74.4077148 1.15625,79.1723633 1.15625,86.5 Z" id="Blade"></path>
                </g>
            </g>
        </g>
    </g>
</svg>