<?xml version="1.0" encoding="UTF-8"?>
<svg width="225px" height="225px" viewBox="0 0 225 225" version="1.1" xmlns="http://www.w3.org/2000/svg" xmlns:xlink="http://www.w3.org/1999/xlink">
    <title>imagen-logo-2color		</title>
    <g id="imagen-logo-2color" stroke="none" stroke-width="1" fill="none" fill-rule="evenodd">
        <g id="Mark" transform="translate(22, 23)">
            <path d="M94.970913,177.511078 L94.9716884,179.487598 C94.4751896,179.495854 93.9776904,179.499998 93.4792232,179.499998 C91.473731,179.499998 89.483906,179.432919 87.5118694,179.300882 L87.5124643,177.511078 L94.970913,177.511078 Z M104.418281,177.511078 L104.419154,178.826711 C101.963038,179.131236 99.4755401,179.334563 96.9609639,179.432389 L96.9598326,177.511078 L104.418281,177.511078 Z M85.5235446,177.511078 L85.5230539,179.145232 C83.0050833,178.919613 80.5176576,178.587947 78.0652756,178.154732 L78.065096,177.511078 L85.5235446,177.511078 Z M106.407411,178.557152 L106.407201,177.511078 L112.161219,177.513146 C110.265303,177.922955 108.346646,178.271678 106.407411,178.557152 Z M76.0761763,177.511078 L76.0762313,177.779629 C75.6471165,177.693559 75.2191297,177.604367 74.7922956,177.51208 L76.0761763,177.511078 Z M123.313018,168.06371 L123.314492,174.31411 C122.125254,174.742573 120.924132,175.146151 119.711753,175.524215 L115.854569,175.522158 L115.854569,168.06371 L123.313018,168.06371 Z M113.86565,168.06371 L113.86565,175.522158 L106.407201,175.522158 L106.407201,168.06371 L113.86565,168.06371 Z M104.418281,168.06371 L104.418281,175.522158 L96.9598326,175.522158 L96.9598326,168.06371 L104.418281,168.06371 Z M94.970913,168.06371 L94.970913,175.522158 L87.5124643,175.522158 L87.5124643,168.06371 L94.970913,168.06371 Z M85.5235446,168.06371 L85.5235446,175.522158 L78.065096,175.522158 L78.065096,168.06371 L85.5235446,168.06371 Z M76.0761763,168.06371 L76.0761763,175.522158 L68.6177277,175.522158 L68.6177277,168.06371 L76.0761763,168.06371 Z M66.628808,168.06371 L66.6280593,175.328778 C64.0899332,174.516554 61.6019276,173.592268 59.1698633,172.561739 L59.1703594,168.06371 L66.628808,168.06371 Z M132.760386,168.06371 L132.760541,170.269024 C130.336298,171.480168 127.848327,172.582704 125.303004,173.570259 L125.301938,168.06371 L132.760386,168.06371 Z M57.1814397,168.06371 L57.1808736,171.689679 C54.7471133,170.58641 52.3724754,169.375615 50.0630228,168.063356 L57.1814397,168.06371 Z M134.750589,169.242856 L134.749306,168.06371 L136.892015,168.065293 C136.184269,168.467401 135.470402,168.85998 134.750589,169.242856 Z M142.207754,158.616342 L142.207365,164.790597 C141.551156,165.227699 140.888744,165.656225 140.22029,166.076013 L134.749306,166.07479 L134.749306,158.616342 L142.207754,158.616342 Z M132.760386,158.616342 L132.760386,166.07479 L125.301938,166.07479 L125.301938,158.616342 L132.760386,158.616342 Z M123.313018,158.616342 L123.313018,166.07479 L115.854569,166.07479 L115.854569,158.616342 L123.313018,158.616342 Z M113.86565,158.616342 L113.86565,166.07479 L106.407201,166.07479 L106.407201,158.616342 L113.86565,158.616342 Z M104.418281,158.616342 L104.418281,166.07479 L96.9598326,166.07479 L96.9598326,158.616342 L104.418281,158.616342 Z M94.970913,158.616342 L94.970913,166.07479 L87.5124643,166.07479 L87.5124643,158.616342 L94.970913,158.616342 Z M85.5235446,158.616342 L85.5235446,166.07479 L78.065096,166.07479 L78.065096,158.616342 L85.5235446,158.616342 Z M76.0761763,158.616342 L76.0761763,166.07479 L68.6177277,166.07479 L68.6177277,158.616342 L76.0761763,158.616342 Z M66.628808,158.616342 L66.628808,166.07479 L59.1703594,166.07479 L59.1703594,158.616342 L66.628808,158.616342 Z M57.1814397,158.616342 L57.1814397,166.07479 L49.7229911,166.07479 L49.7229911,158.616342 L57.1814397,158.616342 Z M47.7340714,158.616342 L47.7340714,166.07479 L47.3069953,166.075462 C44.8387071,163.919809 42.4908337,161.629743 40.2747927,159.216679 L40.2756228,158.616342 L47.7340714,158.616342 Z M144.196775,163.425797 L144.196674,158.616342 L150.399509,158.617837 C148.406295,160.309644 146.336752,161.914261 144.196775,163.425797 Z M151.655123,149.168973 L151.655123,156.627422 L144.196674,156.627422 L144.196674,149.168973 L151.655123,149.168973 Z M142.207754,149.168973 L142.207754,156.627422 L134.749306,156.627422 L134.749306,149.168973 L142.207754,149.168973 Z M132.760386,149.168973 L132.760386,156.627422 L125.301938,156.627422 L125.301938,149.168973 L132.760386,149.168973 Z M123.313018,149.168973 L123.313018,156.627422 L115.854569,156.627422 L115.854569,149.168973 L123.313018,149.168973 Z M113.86565,149.168973 L113.86565,156.627422 L106.407201,156.627422 L106.407201,149.168973 L113.86565,149.168973 Z M104.418281,149.168973 L104.418281,156.627422 L96.9598326,156.627422 L96.9598326,149.168973 L104.418281,149.168973 Z M94.970913,149.168973 L94.970913,156.627422 L87.5124643,156.627422 L87.5124643,149.168973 L94.970913,149.168973 Z M85.5235446,149.168973 L85.5235446,156.627422 L78.065096,156.627422 L78.065096,149.168973 L85.5235446,149.168973 Z M76.0761763,149.168973 L76.0761763,156.627422 L68.6177277,156.627422 L68.6177277,149.168973 L76.0761763,149.168973 Z M66.628808,149.168973 L66.628808,156.627422 L59.1703594,156.627422 L59.1703594,149.168973 L66.628808,149.168973 Z M57.1814397,149.168973 L57.1814397,156.627422 L49.7229911,156.627422 L49.7229911,149.168973 L57.1814397,149.168973 Z M47.7340714,149.168973 L47.7340714,156.627422 L40.2756228,156.627422 L40.2756228,149.168973 L47.7340714,149.168973 Z M38.2867031,149.168973 L38.2867031,156.627422 L37.9873977,156.627079 C35.9649883,154.246152 34.0659777,151.757141 32.3002507,149.169928 L38.2867031,149.168973 Z M153.645087,155.722901 L153.644042,149.168973 L159.954008,149.170862 C157.964429,151.461808 155.858383,153.648893 153.645087,155.722901 Z M161.102491,139.721605 L161.102491,147.180054 L153.644042,147.180054 L153.644042,139.721605 L161.102491,139.721605 Z M151.655123,139.721605 L151.655123,147.180054 L144.196674,147.180054 L144.196674,139.721605 L151.655123,139.721605 Z M142.207754,139.721605 L142.207754,147.180054 L134.749306,147.180054 L134.749306,139.721605 L142.207754,139.721605 Z M132.760386,139.721605 L132.760386,147.180054 L125.301938,147.180054 L125.301938,139.721605 L132.760386,139.721605 Z M123.313018,139.721605 L123.313018,147.180054 L115.854569,147.180054 L115.854569,139.721605 L123.313018,139.721605 Z M113.86565,139.721605 L113.86565,147.180054 L106.407201,147.180054 L106.407201,139.721605 L113.86565,139.721605 Z M104.418281,139.721605 L104.418281,147.180054 L96.9598326,147.180054 L96.9598326,139.721605 L104.418281,139.721605 Z M94.970913,139.721605 L94.970913,147.180054 L87.5124643,147.180054 L87.5124643,139.721605 L94.970913,139.721605 Z M85.5235446,139.721605 L85.5235446,147.180054 L78.065096,147.180054 L78.065096,139.721605 L85.5235446,139.721605 Z M76.0761763,139.721605 L76.0761763,147.180054 L68.6177277,147.180054 L68.6177277,139.721605 L76.0761763,139.721605 Z M66.628808,139.721605 L66.628808,147.180054 L59.1703594,147.180054 L59.1703594,139.721605 L66.628808,139.721605 Z M57.1814397,139.721605 L57.1814397,147.180054 L49.7229911,147.180054 L49.7229911,139.721605 L57.1814397,139.721605 Z M47.7340714,139.721605 L47.7340714,147.180054 L40.2756228,147.180054 L40.2756228,139.721605 L47.7340714,139.721605 Z M38.2867031,139.721605 L38.2867031,147.180054 L30.9814928,147.180819 C30.9299776,147.100806 30.8785875,147.020704 30.8273228,146.940515 L30.8282545,139.721605 L38.2867031,139.721605 Z M163.092577,145.345885 L163.091411,139.721605 L167.107526,139.722396 C165.841605,141.650959 164.501953,143.526791 163.092577,145.345885 Z M28.8393348,139.721605 L28.838804,143.677369 C28.0856172,142.379293 27.3643858,141.060374 26.6761865,139.721689 L28.8393348,139.721605 Z M170.549859,130.274237 L170.551633,134.015671 C169.855959,135.273814 169.130374,136.513113 168.375837,137.732609 L163.091411,137.732685 L163.091411,130.274237 L170.549859,130.274237 Z M161.102491,130.274237 L161.102491,137.732685 L153.644042,137.732685 L153.644042,130.274237 L161.102491,130.274237 Z M151.655123,130.274237 L151.655123,137.732685 L144.196674,137.732685 L144.196674,130.274237 L151.655123,130.274237 Z M142.207754,130.274237 L142.207754,137.732685 L134.749306,137.732685 L134.749306,130.274237 L142.207754,130.274237 Z M132.760386,130.274237 L132.760386,137.732685 L125.301938,137.732685 L125.301938,130.274237 L132.760386,130.274237 Z M123.313018,130.274237 L123.313018,137.732685 L115.854569,137.732685 L115.854569,130.274237 L123.313018,130.274237 Z M113.86565,130.274237 L113.86565,137.732685 L106.407201,137.732685 L106.407201,130.274237 L113.86565,130.274237 Z M104.418281,130.274237 L104.418281,137.732685 L96.9598326,137.732685 L96.9598326,130.274237 L104.418281,130.274237 Z M94.970913,130.274237 L94.970913,137.732685 L87.5124643,137.732685 L87.5124643,130.274237 L94.970913,130.274237 Z M85.5235446,130.274237 L85.5235446,137.732685 L78.065096,137.732685 L78.065096,130.274237 L85.5235446,130.274237 Z M76.0761763,130.274237 L76.0761763,137.732685 L68.6177277,137.732685 L68.6177277,130.274237 L76.0761763,130.274237 Z M66.628808,130.274237 L66.628808,137.732685 L59.1703594,137.732685 L59.1703594,130.274237 L66.628808,130.274237 Z M57.1814397,130.274237 L57.1814397,137.732685 L49.7229911,137.732685 L49.7229911,130.274237 L57.1814397,130.274237 Z M47.7340714,130.274237 L47.7340714,137.732685 L40.2756228,137.732685 L40.2756228,130.274237 L47.7340714,130.274237 Z M38.2867031,130.274237 L38.2867031,137.732685 L30.8282545,137.732685 L30.8282545,130.274237 L38.2867031,130.274237 Z M28.8393348,130.274237 L28.8393348,137.732685 L25.6851893,137.732951 C24.5137741,135.30622 23.4495535,132.818047 22.4986737,130.274577 L28.8393348,130.274237 Z M173.451513,128.285466 L172.538779,128.285317 L172.538779,120.826868 L176.480661,120.827823 C175.58234,123.369312 174.570597,125.85722 173.451513,128.285466 Z M170.549859,120.826868 L170.549859,128.285317 L163.091411,128.285317 L163.091411,120.826868 L170.549859,120.826868 Z M161.102491,120.826868 L161.102491,128.285317 L153.644042,128.285317 L153.644042,120.826868 L161.102491,120.826868 Z M151.655123,120.826868 L151.655123,128.285317 L144.196674,128.285317 L144.196674,120.826868 L151.655123,120.826868 Z M142.207754,120.826868 L142.207754,128.285317 L134.749306,128.285317 L134.749306,120.826868 L142.207754,120.826868 Z M132.760386,120.826868 L132.760386,128.285317 L125.301938,128.285317 L125.301938,120.826868 L132.760386,120.826868 Z M123.313018,120.826868 L123.313018,128.285317 L115.854569,128.285317 L115.854569,120.826868 L123.313018,120.826868 Z M113.86565,120.826868 L113.86565,128.285317 L106.407201,128.285317 L106.407201,120.826868 L113.86565,120.826868 Z M104.418281,120.826868 L104.418281,128.285317 L96.9598326,128.285317 L96.9598326,120.826868 L104.418281,120.826868 Z M94.970913,120.826868 L94.970913,128.285317 L87.5124643,128.285317 L87.5124643,120.826868 L94.970913,120.826868 Z M85.5235446,120.826868 L85.5235446,128.285317 L78.065096,128.285317 L78.065096,120.826868 L85.5235446,120.826868 Z M76.0761763,120.826868 L76.0761763,128.285317 L68.6177277,128.285317 L68.6177277,120.826868 L76.0761763,120.826868 Z M66.628808,120.826868 L66.628808,128.285317 L59.1703594,128.285317 L59.1703594,120.826868 L66.628808,120.826868 Z M57.1814397,120.826868 L57.1814397,128.285317 L49.7229911,128.285317 L49.7229911,120.826868 L57.1814397,120.826868 Z M47.7340714,120.826868 L47.7340714,128.285317 L40.2756228,128.285317 L40.2756228,120.826868 L47.7340714,120.826868 Z M38.2867031,120.826868 L38.2867031,128.285317 L30.8282545,128.285317 L30.8282545,120.826868 L38.2867031,120.826868 Z M28.8393348,120.826868 L28.8393348,128.285317 L21.7820833,128.285339 C21.6455612,127.891598 21.5117332,127.496599 21.3806214,127.100363 L21.3808862,120.826868 L28.8393348,120.826868 Z M177.156775,118.839194 L172.538779,118.837949 L172.538779,111.3795 L179.232231,111.37926 C178.647765,113.909394 177.954206,116.397779 177.156775,118.839194 Z M170.549859,111.3795 L170.549859,118.837949 L163.091411,118.837949 L163.091411,111.3795 L170.549859,111.3795 Z M161.102491,111.3795 L161.102491,118.837949 L153.644042,118.837949 L153.644042,111.3795 L161.102491,111.3795 Z M151.655123,111.3795 L151.655123,118.837949 L144.196674,118.837949 L144.196674,111.3795 L151.655123,111.3795 Z M142.207754,111.3795 L142.207754,118.837949 L134.749306,118.837949 L134.749306,111.3795 L142.207754,111.3795 Z M132.760386,111.3795 L132.760386,118.837949 L125.301938,118.837949 L125.301938,111.3795 L132.760386,111.3795 Z M123.313018,111.3795 L123.313018,118.837949 L115.854569,118.837949 L115.854569,111.3795 L123.313018,111.3795 Z M113.86565,111.3795 L113.86565,118.837949 L106.407201,118.837949 L106.407201,111.3795 L113.86565,111.3795 Z M104.418281,111.3795 L104.418281,118.837949 L96.9598326,118.837949 L96.9598326,111.3795 L104.418281,111.3795 Z M94.970913,111.3795 L94.970913,118.837949 L87.5124643,118.837949 L87.5124643,111.3795 L94.970913,111.3795 Z M85.5235446,111.3795 L85.5235446,118.837949 L78.065096,118.837949 L78.065096,111.3795 L85.5235446,111.3795 Z M76.0761763,111.3795 L76.0761763,118.837949 L68.6177277,118.837949 L68.6177277,111.3795 L76.0761763,111.3795 Z M66.628808,111.3795 L66.628808,118.837949 L59.1703594,118.837949 L59.1703594,111.3795 L66.628808,111.3795 Z M57.1814397,111.3795 L57.1814397,118.837949 L49.7229911,118.837949 L49.7229911,111.3795 L57.1814397,111.3795 Z M47.7340714,111.3795 L47.7340714,118.837949 L40.2756228,118.837949 L40.2756228,111.3795 L47.7340714,111.3795 Z M38.2867031,111.3795 L38.2867031,118.837949 L30.8282545,118.837949 L30.8282545,111.3795 L38.2867031,111.3795 Z M28.8393348,111.3795 L28.8393348,118.837949 L21.3808862,118.837949 L21.3808862,111.3795 L28.8393348,111.3795 Z M19.3919665,111.3795 L19.3919665,118.837949 L19.0864598,118.838321 C18.533106,116.388797 18.0810453,113.900875 17.7349112,111.379188 L19.3919665,111.3795 Z M179.997228,101.932132 L180.00005,107.695937 C179.894537,108.262811 179.78359,108.827775 179.667265,109.390773 L172.538779,109.39058 L172.538779,101.932132 L179.997228,101.932132 Z M170.549859,101.932132 L170.549859,109.39058 L163.091411,109.39058 L163.091411,101.932132 L170.549859,101.932132 Z M161.102491,101.932132 L161.102491,109.39058 L153.644042,109.39058 L153.644042,101.932132 L161.102491,101.932132 Z M151.655123,101.932132 L151.655123,109.39058 L144.196674,109.39058 L144.196674,101.932132 L151.655123,101.932132 Z M142.207754,101.932132 L142.207754,109.39058 L134.749306,109.39058 L134.749306,101.932132 L142.207754,101.932132 Z M132.760386,101.932132 L132.760386,109.39058 L125.301938,109.39058 L125.301938,101.932132 L132.760386,101.932132 Z M123.313018,101.932132 L123.313018,109.39058 L115.854569,109.39058 L115.854569,101.932132 L123.313018,101.932132 Z M113.86565,101.932132 L113.86565,109.39058 L106.407201,109.39058 L106.407201,101.932132 L113.86565,101.932132 Z M104.418281,101.932132 L104.418281,109.39058 L96.9598326,109.39058 L96.9598326,101.932132 L104.418281,101.932132 Z M94.970913,101.932132 L94.970913,109.39058 L87.5124643,109.39058 L87.5124643,101.932132 L94.970913,101.932132 Z M85.5235446,101.932132 L85.5235446,109.39058 L78.065096,109.39058 L78.065096,101.932132 L85.5235446,101.932132 Z M76.0761763,101.932132 L76.0761763,109.39058 L68.6177277,109.39058 L68.6177277,101.932132 L76.0761763,101.932132 Z M66.628808,101.932132 L66.628808,109.39058 L59.1703594,109.39058 L59.1703594,101.932132 L66.628808,101.932132 Z M57.1814397,101.932132 L57.1814397,109.39058 L49.7229911,109.39058 L49.7229911,101.932132 L57.1814397,101.932132 Z M47.7340714,101.932132 L47.7340714,109.39058 L40.2756228,109.39058 L40.2756228,101.932132 L47.7340714,101.932132 Z M38.2867031,101.932132 L38.2867031,109.39058 L30.8282545,109.39058 L30.8282545,101.932132 L38.2867031,101.932132 Z M28.8393348,101.932132 L28.8393348,109.39058 L21.3808862,109.39058 L21.3808862,101.932132 L28.8393348,101.932132 Z M19.3919665,101.932132 L19.3919665,109.39058 L17.484765,109.39043 C17.2038499,106.933579 17.0232496,104.44625 16.9471619,101.93264 L19.3919665,101.932132 Z M179.997228,92.4847634 L179.997228,99.9432121 L172.538779,99.9432121 L172.538779,92.4847634 L179.997228,92.4847634 Z M170.549859,92.4847634 L170.549859,99.9432121 L163.091411,99.9432121 L163.091411,92.4847634 L170.549859,92.4847634 Z M161.102491,92.4847634 L161.102491,99.9432121 L153.644042,99.9432121 L153.644042,92.4847634 L161.102491,92.4847634 Z M151.655123,92.4847634 L151.655123,99.9432121 L144.196674,99.9432121 L144.196674,92.4847634 L151.655123,92.4847634 Z M142.207754,92.4847634 L142.207754,99.9432121 L134.749306,99.9432121 L134.749306,92.4847634 L142.207754,92.4847634 Z M132.760386,92.4847634 L132.760386,99.9432121 L125.301938,99.9432121 L125.301938,92.4847634 L132.760386,92.4847634 Z M123.313018,92.4847634 L123.313018,99.9432121 L115.854569,99.9432121 L115.854569,92.4847634 L123.313018,92.4847634 Z M113.86565,92.4847634 L113.86565,99.9432121 L106.407201,99.9432121 L106.407201,92.4847634 L113.86565,92.4847634 Z M104.418281,92.4847634 L104.418281,99.9432121 L96.9598326,99.9432121 L96.9598326,92.4847634 L104.418281,92.4847634 Z M94.970913,92.4847634 L94.970913,99.9432121 L87.5124643,99.9432121 L87.5124643,92.4847634 L94.970913,92.4847634 Z M85.5235446,92.4847634 L85.5235446,99.9432121 L78.065096,99.9432121 L78.065096,92.4847634 L85.5235446,92.4847634 Z M76.0761763,92.4847634 L76.0761763,99.9432121 L68.6177277,99.9432121 L68.6177277,92.4847634 L76.0761763,92.4847634 Z M66.628808,92.4847634 L66.628808,99.9432121 L59.1703594,99.9432121 L59.1703594,92.4847634 L66.628808,92.4847634 Z M57.1814397,92.4847634 L57.1814397,99.9432121 L49.7229911,99.9432121 L49.7229911,92.4847634 L57.1814397,92.4847634 Z M47.7340714,92.4847634 L47.7340714,99.9432121 L40.2756228,99.9432121 L40.2756228,92.4847634 L47.7340714,92.4847634 Z M38.2867031,92.4847634 L38.2867031,99.9432121 L30.8282545,99.9432121 L30.8282545,92.4847634 L38.2867031,92.4847634 Z M28.8393348,92.4847634 L28.8393348,99.9432121 L21.3808862,99.9432121 L21.3808862,92.4847634 L28.8393348,92.4847634 Z M19.3919665,92.4847634 L19.3919665,99.9432121 L16.9088841,99.9430384 C16.9068407,99.6947231 16.905817,99.4461647 16.905817,99.1973672 C16.905817,96.9387194 16.9901849,94.6997767 17.1559412,92.4835188 L19.3919665,92.4847634 Z M170.549859,83.0373951 L170.549859,90.4958438 L163.091411,90.4958438 L163.091411,83.0373951 L170.549859,83.0373951 Z M161.102491,83.0373951 L161.102491,90.4958438 L153.644042,90.4958438 L153.644042,83.0373951 L161.102491,83.0373951 Z M151.655123,83.0373951 L151.655123,90.4958438 L144.196674,90.4958438 L144.196674,83.0373951 L151.655123,83.0373951 Z M142.207754,83.0373951 L142.207754,90.4958438 L134.749306,90.4958438 L134.749306,83.0373951 L142.207754,83.0373951 Z M132.760386,83.0373951 L132.760386,90.4958438 L125.301938,90.4958438 L125.301938,83.0373951 L132.760386,83.0373951 Z M123.313018,83.0373951 L123.313018,90.4958438 L115.854569,90.4958438 L115.854569,83.0373951 L123.313018,83.0373951 Z M113.86565,83.0373951 L113.86565,90.4958438 L106.407201,90.4958438 L106.407201,83.0373951 L113.86565,83.0373951 Z M104.418281,83.0373951 L104.418281,90.4958438 L96.9598326,90.4958438 L96.9598326,83.0373951 L104.418281,83.0373951 Z M94.970913,83.0373951 L94.970913,90.4958438 L87.5124643,90.4958438 L87.5124643,83.0373951 L94.970913,83.0373951 Z M85.5235446,83.0373951 L85.5235446,90.4958438 L78.065096,90.4958438 L78.065096,83.0373951 L85.5235446,83.0373951 Z M76.0761763,83.0373951 L76.0761763,90.4958438 L68.6177277,90.4958438 L68.6177277,83.0373951 L76.0761763,83.0373951 Z M66.628808,83.0373951 L66.628808,90.4958438 L59.1703594,90.4958438 L59.1703594,83.0373951 L66.628808,83.0373951 Z M57.1814397,83.0373951 L57.1814397,90.4958438 L49.7229911,90.4958438 L49.7229911,83.0373951 L57.1814397,83.0373951 Z M47.7340714,83.0373951 L47.7340714,90.4958438 L40.2756228,90.4958438 L40.2756228,83.0373951 L47.7340714,83.0373951 Z M38.2867031,83.0373951 L38.2867031,90.4958438 L30.8282545,90.4958438 L30.8282545,83.0373951 L38.2867031,83.0373951 Z M28.8393348,83.0373951 L28.8393348,90.4958438 L21.3808862,90.4958438 L21.3808862,83.0373951 L28.8393348,83.0373951 Z M179.997228,83.0373951 L179.997228,90.4958438 L172.538779,90.4958438 L172.538779,83.0373951 L179.997228,83.0373951 Z M19.3919665,83.0373951 L19.3919665,90.4958438 L17.3269426,90.4958498 C17.5720178,87.9772177 17.9223648,85.4894213 18.3735272,83.0369168 L19.3919665,83.0373951 Z M179.998078,75.274132 L179.997228,81.0484755 L172.538779,81.0484755 L172.538779,73.5900268 L179.667287,73.5900107 C179.782879,74.1494612 179.893161,74.7108533 179.998078,75.274132 Z M170.549859,73.5900268 L170.549859,81.0484755 L163.091411,81.0484755 L163.091411,73.5900268 L170.549859,73.5900268 Z M161.102491,73.5900268 L161.102491,81.0484755 L153.644042,81.0484755 L153.644042,73.5900268 L161.102491,73.5900268 Z M151.655123,73.5900268 L151.655123,81.0484755 L144.196674,81.0484755 L144.196674,73.5900268 L151.655123,73.5900268 Z M142.207754,73.5900268 L142.207754,81.0484755 L134.749306,81.0484755 L134.749306,73.5900268 L142.207754,73.5900268 Z M132.760386,73.5900268 L132.760386,81.0484755 L125.301938,81.0484755 L125.301938,73.5900268 L132.760386,73.5900268 Z M123.313018,73.5900268 L123.313018,81.0484755 L115.854569,81.0484755 L115.854569,73.5900268 L123.313018,73.5900268 Z M113.86565,73.5900268 L113.86565,81.0484755 L106.407201,81.0484755 L106.407201,73.5900268 L113.86565,73.5900268 Z M104.418281,73.5900268 L104.418281,81.0484755 L96.9598326,81.0484755 L96.9598326,73.5900268 L104.418281,73.5900268 Z M94.970913,73.5900268 L94.970913,81.0484755 L87.5124643,81.0484755 L87.5124643,73.5900268 L94.970913,73.5900268 Z M85.5235446,73.5900268 L85.5235446,81.0484755 L78.065096,81.0484755 L78.065096,73.5900268 L85.5235446,73.5900268 Z M76.0761763,73.5900268 L76.0761763,81.0484755 L68.6177277,81.0484755 L68.6177277,73.5900268 L76.0761763,73.5900268 Z M66.628808,73.5900268 L66.628808,81.0484755 L59.1703594,81.0484755 L59.1703594,73.5900268 L66.628808,73.5900268 Z M57.1814397,73.5900268 L57.1814397,81.0484755 L49.7229911,81.0484755 L49.7229911,73.5900268 L57.1814397,73.5900268 Z M47.7340714,73.5900268 L47.7340714,81.0484755 L40.2756228,81.0484755 L40.2756228,73.5900268 L47.7340714,73.5900268 Z M38.2867031,73.5900268 L38.2867031,81.0484755 L30.8282545,81.0484755 L30.8282545,73.5900268 L38.2867031,73.5900268 Z M28.8393348,73.5900268 L28.8393348,81.0484755 L21.3808862,81.0484755 L21.3808862,73.5900268 L28.8393348,73.5900268 Z M19.3902575,78.257428 L19.3919665,81.0484755 L18.7631023,81.0477345 C18.9575099,80.1121505 19.1666461,79.1819639 19.3902575,78.257428 Z M179.23212,71.6009546 L172.538779,71.6011071 L172.538779,64.1426585 L177.156797,64.1416629 C177.954169,66.582869 178.647683,69.0710397 179.23212,71.6009546 Z M170.549859,64.1426585 L170.549859,71.6011071 L163.091411,71.6011071 L163.091411,64.1426585 L170.549859,64.1426585 Z M161.102491,64.1426585 L161.102491,71.6011071 L153.644042,71.6011071 L153.644042,64.1426585 L161.102491,64.1426585 Z M151.655123,64.1426585 L151.655123,71.6011071 L144.196674,71.6011071 L144.196674,64.1426585 L151.655123,64.1426585 Z M142.207754,64.1426585 L142.207754,71.6011071 L134.749306,71.6011071 L134.749306,64.1426585 L142.207754,64.1426585 Z M132.760386,64.1426585 L132.760386,71.6011071 L125.301938,71.6011071 L125.301938,64.1426585 L132.760386,64.1426585 Z M123.313018,64.1426585 L123.313018,71.6011071 L115.854569,71.6011071 L115.854569,64.1426585 L123.313018,64.1426585 Z M113.86565,64.1426585 L113.86565,71.6011071 L106.407201,71.6011071 L106.407201,64.1426585 L113.86565,64.1426585 Z M104.418281,64.1426585 L104.418281,71.6011071 L96.9598326,71.6011071 L96.9598326,64.1426585 L104.418281,64.1426585 Z M94.970913,64.1426585 L94.970913,71.6011071 L87.5124643,71.6011071 L87.5124643,64.1426585 L94.970913,64.1426585 Z M85.5235446,64.1426585 L85.5235446,71.6011071 L78.065096,71.6011071 L78.065096,64.1426585 L85.5235446,64.1426585 Z M76.0761763,64.1426585 L76.0761763,71.6011071 L68.6177277,71.6011071 L68.6177277,64.1426585 L76.0761763,64.1426585 Z M66.628808,64.1426585 L66.628808,71.6011071 L59.1703594,71.6011071 L59.1703594,64.1426585 L66.628808,64.1426585 Z M57.1814397,64.1426585 L57.1814397,71.6011071 L49.7229911,71.6011071 L49.7229911,64.1426585 L57.1814397,64.1426585 Z M47.7340714,64.1426585 L47.7340714,71.6011071 L40.2756228,71.6011071 L40.2756228,64.1426585 L47.7340714,64.1426585 Z M38.2867031,64.1426585 L38.2867031,71.6011071 L30.8282545,71.6011071 L30.8282545,64.1426585 L38.2867031,64.1426585 Z M28.8393348,64.1426585 L28.8393348,71.6011071 L21.3808862,71.6011071 L21.3806997,71.294201 C22.1856363,68.8616221 23.0929476,66.4756632 24.0975299,64.1414283 L28.8393348,64.1426585 Z M176.480833,62.1534851 L172.538779,62.1537388 L172.538779,54.6952902 L173.451114,54.6946373 C174.570431,57.1232616 175.582365,59.6115729 176.480833,62.1534851 Z M170.549859,54.6952902 L170.549859,62.1537388 L163.091411,62.1537388 L163.091411,54.6952902 L170.549859,54.6952902 Z M161.102491,54.6952902 L161.102491,62.1537388 L153.644042,62.1537388 L153.644042,54.6952902 L161.102491,54.6952902 Z M151.655123,54.6952902 L151.655123,62.1537388 L144.196674,62.1537388 L144.196674,54.6952902 L151.655123,54.6952902 Z M142.207754,54.6952902 L142.207754,62.1537388 L134.749306,62.1537388 L134.749306,54.6952902 L142.207754,54.6952902 Z M132.760386,54.6952902 L132.760386,62.1537388 L125.301938,62.1537388 L125.301938,54.6952902 L132.760386,54.6952902 Z M123.313018,54.6952902 L123.313018,62.1537388 L115.854569,62.1537388 L115.854569,54.6952902 L123.313018,54.6952902 Z M113.86565,54.6952902 L113.86565,62.1537388 L106.407201,62.1537388 L106.407201,54.6952902 L113.86565,54.6952902 Z M104.418281,54.6952902 L104.418281,62.1537388 L96.9598326,62.1537388 L96.9598326,54.6952902 L104.418281,54.6952902 Z M94.970913,54.6952902 L94.970913,62.1537388 L87.5124643,62.1537388 L87.5124643,54.6952902 L94.970913,54.6952902 Z M85.5235446,54.6952902 L85.5235446,62.1537388 L78.065096,62.1537388 L78.065096,54.6952902 L85.5235446,54.6952902 Z M76.0761763,54.6952902 L76.0761763,62.1537388 L68.6177277,62.1537388 L68.6177277,54.6952902 L76.0761763,54.6952902 Z M66.628808,54.6952902 L66.628808,62.1537388 L59.1703594,62.1537388 L59.1703594,54.6952902 L66.628808,54.6952902 Z M57.1814397,54.6952902 L57.1814397,62.1537388 L49.7229911,62.1537388 L49.7229911,54.6952902 L57.1814397,54.6952902 Z M47.7340714,54.6952902 L47.7340714,62.1537388 L40.2756228,62.1537388 L40.2756228,54.6952902 L47.7340714,54.6952902 Z M38.2867031,54.6952902 L38.2867031,62.1537388 L30.8282545,62.1537388 L30.8282545,54.6952902 L38.2867031,54.6952902 Z M28.838856,54.7175394 L28.8393348,62.1537388 L24.9822144,62.1536338 C26.1530937,59.6077198 27.4409355,57.1267271 28.838856,54.7175394 Z M170.551104,48.9644944 L170.549859,52.7063705 L163.091411,52.7063705 L163.091411,45.2479219 L168.375361,45.2478612 C169.129879,46.4672566 169.855447,47.7064541 170.551104,48.9644944 Z M161.102491,45.2479219 L161.102491,52.7063705 L153.644042,52.7063705 L153.644042,45.2479219 L161.102491,45.2479219 Z M151.655123,45.2479219 L151.655123,52.7063705 L144.196674,52.7063705 L144.196674,45.2479219 L151.655123,45.2479219 Z M142.207754,45.2479219 L142.207754,52.7063705 L134.749306,52.7063705 L134.749306,45.2479219 L142.207754,45.2479219 Z M132.760386,45.2479219 L132.760386,52.7063705 L125.301938,52.7063705 L125.301938,45.2479219 L132.760386,45.2479219 Z M123.313018,45.2479219 L123.313018,52.7063705 L115.854569,52.7063705 L115.854569,45.2479219 L123.313018,45.2479219 Z M113.86565,45.2479219 L113.86565,52.7063705 L106.407201,52.7063705 L106.407201,45.2479219 L113.86565,45.2479219 Z M104.418281,45.2479219 L104.418281,52.7063705 L96.9598326,52.7063705 L96.9598326,45.2479219 L104.418281,45.2479219 Z M94.970913,45.2479219 L94.970913,52.7063705 L87.5124643,52.7063705 L87.5124643,45.2479219 L94.970913,45.2479219 Z M85.5235446,45.2479219 L85.5235446,52.7063705 L78.065096,52.7063705 L78.065096,45.2479219 L85.5235446,45.2479219 Z M76.0761763,45.2479219 L76.0761763,52.7063705 L68.6177277,52.7063705 L68.6177277,45.2479219 L76.0761763,45.2479219 Z M66.628808,45.2479219 L66.628808,52.7063705 L59.1703594,52.7063705 L59.1703594,45.2479219 L66.628808,45.2479219 Z M57.1814397,45.2479219 L57.1814397,52.7063705 L49.7229911,52.7063705 L49.7229911,45.2479219 L57.1814397,45.2479219 Z M47.7340714,45.2479219 L47.7340714,52.7063705 L40.2756228,52.7063705 L40.2756228,45.2479219 L47.7340714,45.2479219 Z M38.2867031,45.2479219 L38.2867031,52.7063705 L30.8282545,52.7063705 L30.8274292,51.4543828 C32.1911703,49.3212513 33.6436169,47.250303 35.1795676,45.2467393 L38.2867031,45.2479219 Z M167.107361,43.2586618 L163.091411,43.2590022 L163.091926,37.634814 C164.501482,39.4540129 165.841296,41.3299653 167.107361,43.2586618 Z M161.102491,35.8005536 L161.102491,43.2590022 L153.644042,43.2590022 L153.644042,35.8005536 L161.102491,35.8005536 Z M151.655123,35.8005536 L151.655123,43.2590022 L144.196674,43.2590022 L144.196674,35.8005536 L151.655123,35.8005536 Z M142.207754,35.8005536 L142.207754,43.2590022 L134.749306,43.2590022 L134.749306,35.8005536 L142.207754,35.8005536 Z M132.760386,35.8005536 L132.760386,43.2590022 L125.301938,43.2590022 L125.301938,35.8005536 L132.760386,35.8005536 Z M123.313018,35.8005536 L123.313018,43.2590022 L115.854569,43.2590022 L115.854569,35.8005536 L123.313018,35.8005536 Z M113.86565,35.8005536 L113.86565,43.2590022 L106.407201,43.2590022 L106.407201,35.8005536 L113.86565,35.8005536 Z M104.418281,35.8005536 L104.418281,43.2590022 L96.9598326,43.2590022 L96.9598326,35.8005536 L104.418281,35.8005536 Z M94.970913,35.8005536 L94.970913,43.2590022 L87.5124643,43.2590022 L87.5124643,35.8005536 L94.970913,35.8005536 Z M85.5235446,35.8005536 L85.5235446,43.2590022 L78.065096,43.2590022 L78.065096,35.8005536 L85.5235446,35.8005536 Z M76.0761763,35.8005536 L76.0761763,43.2590022 L68.6177277,43.2590022 L68.6177277,35.8005536 L76.0761763,35.8005536 Z M66.628808,35.8005536 L66.628808,43.2590022 L59.1703594,43.2590022 L59.1703594,35.8005536 L66.628808,35.8005536 Z M57.1814397,35.8005536 L57.1814397,43.2590022 L49.7229911,43.2590022 L49.7229911,35.8005536 L57.1814397,35.8005536 Z M47.7340714,35.8005536 L47.7340714,43.2590022 L40.2756228,43.2590022 L40.2745857,39.1789916 C41.3356192,38.0236647 42.4268753,36.8965379 43.5471009,35.7988643 L47.7340714,35.8005536 Z M38.2855453,41.4191005 L38.2867031,43.2590022 L36.7495023,43.2580257 C37.2533735,42.6380647 37.7654429,42.0250345 38.2855453,41.4191005 Z M159.9538,33.8106235 L153.644042,33.8116339 L153.645016,27.2591429 C155.858269,29.3329685 157.964268,31.5198675 159.9538,33.8106235 Z M151.655123,26.3531853 L151.655123,33.8116339 L144.196674,33.8116339 L144.196674,26.3531853 L151.655123,26.3531853 Z M142.207754,26.3531853 L142.207754,33.8116339 L134.749306,33.8116339 L134.749306,26.3531853 L142.207754,26.3531853 Z M132.760386,26.3531853 L132.760386,33.8116339 L125.301938,33.8116339 L125.301938,26.3531853 L132.760386,26.3531853 Z M123.313018,26.3531853 L123.313018,33.8116339 L115.854569,33.8116339 L115.854569,26.3531853 L123.313018,26.3531853 Z M113.86565,26.3531853 L113.86565,33.8116339 L106.407201,33.8116339 L106.407201,26.3531853 L113.86565,26.3531853 Z M104.418281,26.3531853 L104.418281,33.8116339 L96.9598326,33.8116339 L96.9598326,26.3531853 L104.418281,26.3531853 Z M94.970913,26.3531853 L94.970913,33.8116339 L87.5124643,33.8116339 L87.5124643,26.3531853 L94.970913,26.3531853 Z M85.5235446,26.3531853 L85.5235446,33.8116339 L78.065096,33.8116339 L78.065096,26.3531853 L85.5235446,26.3531853 Z M76.0761763,26.3531853 L76.0761763,33.8116339 L68.6177277,33.8116339 L68.6177277,26.3531853 L76.0761763,26.3531853 Z M66.628808,26.3531853 L66.628808,33.8116339 L59.1703594,33.8116339 L59.1703594,26.3531853 L66.628808,26.3531853 Z M57.1814397,26.3531853 L57.1814397,33.8116339 L49.7229911,33.8116339 L49.7220146,30.2855135 C51.4118918,28.9120716 53.1532653,27.599541 54.9427905,26.3512661 L57.1814397,26.3531853 Z M47.7332617,31.9504491 L47.7340714,33.8116339 L45.6429804,33.8105968 C46.3298608,33.179777 47.026709,32.55964 47.7332617,31.9504491 Z M150.398144,24.3633166 L144.196674,24.3642656 L144.196313,19.5565786 C146.335973,21.0677346 148.405213,22.6719439 150.398144,24.3633166 Z M142.207775,18.2913702 L142.207754,24.3642656 L134.749306,24.3642656 L134.749306,16.905817 L138.972455,16.9046827 C140.061818,17.3460765 141.140425,17.8084731 142.207775,18.2913702 Z M132.760386,16.905817 L132.760386,24.3642656 L125.301938,24.3642656 L125.301938,16.905817 L132.760386,16.905817 Z M123.313018,16.905817 L123.313018,24.3642656 L115.854569,24.3642656 L115.854569,16.905817 L123.313018,16.905817 Z M113.86565,16.905817 L113.86565,24.3642656 L106.407201,24.3642656 L106.407201,16.905817 L113.86565,16.905817 Z M104.418281,16.905817 L104.418281,24.3642656 L96.9598326,24.3642656 L96.9598326,16.905817 L104.418281,16.905817 Z M94.970913,16.905817 L94.970913,24.3642656 L87.5124643,24.3642656 L87.5124643,16.905817 L94.970913,16.905817 Z M85.5235446,16.905817 L85.5235446,24.3642656 L78.065096,24.3642656 L78.065096,16.905817 L85.5235446,16.905817 Z M76.0761763,16.905817 L76.0761763,24.3642656 L68.6177277,24.3642656 L68.6176226,18.5182255 C69.8464876,17.953064 71.090478,17.4151525 72.3488198,16.9052651 L76.0761763,16.905817 Z M66.6267754,19.4640942 L66.628808,24.3642656 L59.1703594,24.3642656 L59.1696194,23.5780823 C61.5812992,22.0921886 64.0694408,20.7184363 66.6267754,19.4640942 Z M132.760339,14.654886 L132.760386,14.9168973 L125.301938,14.9168973 L125.302108,12.622431 C127.830807,13.1936673 130.318584,13.8728514 132.760339,14.654886 Z M123.31347,12.1972247 L123.313018,14.9168973 L115.854569,14.9168973 L115.855008,11.020844 C118.374731,11.3089653 120.862395,11.7026017 123.31347,12.1972247 Z M106.406817,10.4448281 L105.661356,10.4418281 C108.427545,10.4418281 111.164179,10.5683729 113.865782,10.8159891 L113.86565,14.9168973 L106.407201,14.9168973 L106.406817,10.4448281 Z M104.418212,10.4503565 L104.418281,14.9168973 L96.9598326,14.9168973 L96.9598386,10.8629538 C99.4179717,10.6237654 101.905477,10.4848521 104.418212,10.4503565 Z M94.970706,11.0790911 L94.970913,14.9168973 L87.5124643,14.9168973 L87.5117234,12.2991134 C89.962532,11.7898531 92.4503777,11.3816607 94.970706,11.0790911 Z M85.5225456,12.7364606 L85.5235446,14.9168973 L78.065096,14.9168973 L78.064436,14.8159961 C80.5055989,14.018123 82.9933466,13.3232335 85.5225456,12.7364606 Z" id="Raster" fill="#F89F38"></path>
            <path d="M144.196674,16.4898817 C143.278064,15.8525328 142.346695,15.2024369 141.389809,14.590582 C98.6361444,-12.802674 41.8098774,-0.501840113 14.4812146,42.0858138 C-12.8602066,84.6607208 -0.344138369,141.39752 42.4095259,168.790776 C43.3664119,169.402631 44.3360563,169.976245 45.3057007,170.549859 C10.870565,140.441497 2.36065925,89.3006208 27.3672788,50.3331087 C52.3738983,11.3655965 102.438171,-2.23542914 144.196674,16.4898817 Z" id="Eclipse" fill="#2056A9"></path>
        </g>
    </g>
</svg>