<?xml version="1.0" encoding="UTF-8"?>
<svg width="229px" height="229px" viewBox="0 0 229 229" version="1.1" xmlns="http://www.w3.org/2000/svg" xmlns:xlink="http://www.w3.org/1999/xlink">
    <title>imagen-logo		</title>
    <g id="imagen-logo" stroke="none" fill="none" transform="translate(1, 2)" fill-rule="evenodd" stroke-width="1">
        <g id="mark" transform="translate(-14.0048, -24.4484)">
            <g id="grid" transform="translate(39, 49)">
                <path d="M169.764787,120.001655 C160.88468,142.184754 143.184754,159.88468 121.001655,168.764787 L121,120 Z" id="pixel-3x3" fill="#FFD500"></path>
                <path d="M116,120 L116.00119,170.59082 C107.353055,173.45163 98.1073479,175 88.5,175 C78.5216484,175 68.933408,173.329735 59.9996109,170.253538 L60,120 L116,120 Z" id="pixel-3x2" fill="#00AD9F"></path>
                <path d="M56,120 L55.9993427,168.765187 C33.8157765,159.885211 16.1154527,142.185087 7.23521281,120.001655 L56,120 Z" id="pixel-3x1" fill="#239AD7"></path>
                <path d="M171.59115,59.999808 C174.451749,68.6476565 176,77.8930216 176,87.5 C176,97.4787233 174.329611,107.067306 171.253194,116.001387 L121,116 L121,60 Z" id="pixel-2x3" fill="#F39200"></path>
                <path d="M56,60 L56,116 L5.7468063,116.001387 C2.67038929,107.067306 1,97.4787233 1,87.5 C1,77.8930216 2.54825098,68.6476565 5.40884976,59.999808 L56,60 Z" id="pixel-2x1" fill="#3C0886"></path>
                <path d="M121.001655,6.23521281 C143.517674,15.2485904 161.414945,33.3485061 170.158626,56.0001179 L121,56 Z" id="pixel-1x3" fill="#E71D73"></path>
                <path d="M88.5,0 C98.1073479,0 107.353055,1.54837007 116.00119,4.4091798 L116,56 L60,56 L59.9996109,4.7464625 C68.933408,1.67026484 78.5216484,0 88.5,0 Z" id="pixel-1x2" fill="#964091"></path>
                <path d="M55.9993427,6.23481333 L56,56 L6.84137444,56.0001179 C15.5851846,33.3481715 33.482855,15.2480556 55.9993427,6.23481333 Z" id="pixel-1x1" fill="#005CA9"></path>
            </g>
            <g id="camera" transform="translate(22, 48)">
                <g id="Blade-45" transform="translate(57.232, 32.2968) rotate(45) translate(-57.232, -32.2968)translate(29.743, -49.6077)" fill="#F89522">
                    <path d="M1.15625,86.5 C1.24995295,100.227074 2.27827876,108.447974 4.22607422,115.448242 C5.81413847,121.155656 9.50923508,129.893655 13.9794922,137.163086 C22.8346659,151.563169 33.7441406,148.994629 31.9550781,146.789063 C21.1298828,135.302246 9.82519531,115.955922 9.82519531,84.5514224 C9.82519531,82.1817149 7.44125369,83.0941691 5.49414063,80.5516143 C3.54702756,78.0090596 3.65103146,75.6590798 2.26123047,74.4077148 C1.01205447,74.4077148 1.15625,79.1723633 1.15625,86.5 Z" id="Blade"></path>
                </g>
                <g id="Blade-90" transform="translate(111.232, 14.2968) rotate(90) translate(-111.232, -14.2968)translate(83.743, -67.6077)" fill="#AD6817">
                    <path d="M1.15625,86.5 C1.24995295,100.227074 2.27827876,108.447974 4.22607422,115.448242 C5.81413847,121.155656 9.50923508,129.893655 13.9794922,137.163086 C22.8346659,151.563169 33.7441406,148.994629 31.9550781,146.789063 C21.1298828,135.302246 9.82519531,115.955922 9.82519531,84.5514224 C9.82519531,82.1817149 7.44125369,83.0941691 5.49414063,80.5516143 C3.54702756,78.0090596 3.65103146,75.6590798 2.26123047,74.4077148 C1.01205447,74.4077148 1.15625,79.1723633 1.15625,86.5 Z" id="Blade"></path>
                </g>
                <g id="Blade-135" transform="translate(162.232, 40.2968) rotate(135) translate(-162.232, -40.2968)translate(134.743, -41.6077)" fill="#F89522">
                    <path d="M1.15625,86.5 C1.24995295,100.227074 2.27827876,108.447974 4.22607422,115.448242 C5.81413847,121.155656 9.50923508,129.893655 13.9794922,137.163086 C22.8346659,151.563169 33.7441406,148.994629 31.9550781,146.789063 C21.1298828,135.302246 9.82519531,115.955922 9.82519531,84.5514224 C9.82519531,82.1817149 7.44125369,83.0941691 5.49414063,80.5516143 C3.54702756,78.0090596 3.65103146,75.6590798 2.26123047,74.4077148 C1.01205447,74.4077148 1.15625,79.1723633 1.15625,86.5 Z" id="Blade"></path>
                </g>
                <g id="Blade-180" transform="translate(180.232, 94.2968) rotate(180) translate(-180.232, -94.2968)translate(152.743, 12.3923)" fill="#AD6817">
                    <path d="M1.15625,86.5 C1.24995295,100.227074 2.27827876,108.447974 4.22607422,115.448242 C5.81413847,121.155656 9.50923508,129.893655 13.9794922,137.163086 C22.8346659,151.563169 33.7441406,148.994629 31.9550781,146.789063 C21.1298828,135.302246 9.82519531,115.955922 9.82519531,84.5514224 C9.82519531,82.1817149 7.44125369,83.0941691 5.49414063,80.5516143 C3.54702756,78.0090596 3.65103146,75.6590798 2.26123047,74.4077148 C1.01205447,74.4077148 1.15625,79.1723633 1.15625,86.5 Z" id="Blade"></path>
                </g>
                <g id="Blade-225" transform="translate(154.232, 145.2968) rotate(225) translate(-154.232, -145.2968)translate(126.743, 63.3923)" fill="#F89522">
                    <path d="M1.15625,86.5 C1.24995295,100.227074 2.27827876,108.447974 4.22607422,115.448242 C5.81413847,121.155656 9.50923508,129.893655 13.9794922,137.163086 C22.8346659,151.563169 33.7441406,148.994629 31.9550781,146.789063 C21.1298828,135.302246 9.82519531,115.955922 9.82519531,84.5514224 C9.82519531,82.1817149 7.44125369,83.0941691 5.49414063,80.5516143 C3.54702756,78.0090596 3.65103146,75.6590798 2.26123047,74.4077148 C1.01205447,74.4077148 1.15625,79.1723633 1.15625,86.5 Z" id="Blade"></path>
                </g>
                <g id="Blade-270" transform="translate(100.232, 163.2968) rotate(270) translate(-100.232, -163.2968)translate(72.743, 81.3923)" fill="#AD6817">
                    <path d="M1.15625,86.5 C1.24995295,100.227074 2.27827876,108.447974 4.22607422,115.448242 C5.81413847,121.155656 9.50923508,129.893655 13.9794922,137.163086 C22.8346659,151.563169 33.7441406,148.994629 31.9550781,146.789063 C21.1298828,135.302246 9.82519531,115.955922 9.82519531,84.5514224 C9.82519531,82.1817149 7.44125369,83.0941691 5.49414063,80.5516143 C3.54702756,78.0090596 3.65103146,75.6590798 2.26123047,74.4077148 C1.01205447,74.4077148 1.15625,79.1723633 1.15625,86.5 Z" id="Blade"></path>
                </g>
                <g id="Blade-315" transform="translate(49.232, 137.2968) rotate(315) translate(-49.232, -137.2968)translate(21.743, 55.3923)" fill="#F89522">
                    <path d="M1.15625,86.5 C1.24995295,100.227074 2.27827876,108.447974 4.22607422,115.448242 C5.81413847,121.155656 9.50923508,129.893655 13.9794922,137.163086 C22.8346659,151.563169 33.7441406,148.994629 31.9550781,146.789063 C21.1298828,135.302246 9.82519531,115.955922 9.82519531,84.5514224 C9.82519531,82.1817149 7.44125369,83.0941691 5.49414063,80.5516143 C3.54702756,78.0090596 3.65103146,75.6590798 2.26123047,74.4077148 C1.01205447,74.4077148 1.15625,79.1723633 1.15625,86.5 Z" id="Blade"></path>
                </g>
                <g id="Eclipse-Arc-Blade" transform="translate(3.966, 1)" fill="#AD6817">
                    <path d="M1.15625,86.5 C1.24995295,100.227074 2.27827876,108.447974 4.22607422,115.448242 C5.81413847,121.155656 9.50923508,129.893655 13.9794922,137.163086 C22.8346659,151.563169 33.7441406,148.994629 31.9550781,146.789063 C21.1298828,135.302246 9.82519531,115.955922 9.82519531,84.5514224 C9.82519531,82.1817149 7.44125369,83.0941691 5.49414063,80.5516143 C3.54702756,78.0090596 3.65103146,75.6590798 2.26123047,74.4077148 C1.01205447,74.4077148 1.15625,79.1723633 1.15625,86.5 Z" id="Blade"></path>
                </g>
            </g>
        </g>
    </g>
</svg>