<?xml version="1.0" encoding="UTF-8"?>
<svg width="220px" height="290px" viewBox="0 0 220 290" version="1.1" xmlns="http://www.w3.org/2000/svg" xmlns:xlink="http://www.w3.org/1999/xlink">
    <title>imagen-black-vertical-logo		</title>
    <g id="imagen-black-vertical-logo" stroke="none" stroke-width="1" fill="none" fill-rule="evenodd">
        <g id="Mark" transform="translate(22, 23)" fill="#000000">
            <path d="M94.9708629,177.510672 L94.9716172,179.487439 C94.4751187,179.495694 93.9776198,179.499838 93.4791529,179.499838 C91.4737237,179.499838 89.4839607,179.432763 87.511985,179.300734 L87.5124175,177.510672 L94.9708629,177.510672 Z M104.418227,177.510672 L104.419077,178.826552 C101.962636,179.131117 99.4748064,179.334457 96.9598912,179.432268 L96.9597817,177.510672 L104.418227,177.510672 Z M85.5234988,177.510672 L85.5233875,179.145108 C83.0052011,178.919482 80.5175644,178.58779 78.0649775,178.154532 L78.0650534,177.510672 L85.5234988,177.510672 Z M106.407368,178.556988 L106.407146,177.510672 L112.165142,177.512123 C110.267936,177.922303 108.347955,178.271314 106.407368,178.556988 Z M76.0761346,177.510672 L76.0760269,177.779442 C75.645595,177.693107 75.2162981,177.603631 74.7881611,177.511041 L76.0761346,177.510672 Z M123.312955,168.063326 L123.314403,174.313955 C122.126145,174.742065 120.926022,175.145331 119.714661,175.523126 L115.85451,175.521757 L115.85451,168.063326 L123.312955,168.063326 Z M113.865591,168.063326 L113.865591,175.521757 L106.407146,175.521757 L106.407146,168.063326 L113.865591,168.063326 Z M104.418227,168.063326 L104.418227,175.521757 L96.9597817,175.521757 L96.9597817,168.063326 L104.418227,168.063326 Z M94.9708629,168.063326 L94.9708629,175.521757 L87.5124175,175.521757 L87.5124175,168.063326 L94.9708629,168.063326 Z M85.5234988,168.063326 L85.5234988,175.521757 L78.0650534,175.521757 L78.0650534,168.063326 L85.5234988,168.063326 Z M76.0761346,168.063326 L76.0761346,175.521757 L68.6176892,175.521757 L68.6176892,168.063326 L76.0761346,168.063326 Z M66.6287705,168.063326 L66.628293,175.328714 C64.0902789,174.516537 61.6023805,173.592306 59.1704178,172.561843 L59.1703251,168.063326 L66.6287705,168.063326 Z M132.760319,168.063326 L132.760447,170.268873 C130.336205,171.480016 127.848235,172.582552 125.302914,173.570105 L125.301874,168.063326 L132.760319,168.063326 Z M57.1814063,168.063326 L57.1814477,171.689809 C54.7474522,170.586457 52.3725896,169.375558 50.0629244,168.063177 L57.1814063,168.063326 Z M134.750493,169.242707 L134.749238,168.063326 L136.890918,168.065713 C136.1835,168.467622 135.469967,168.860011 134.750493,169.242707 Z M142.207684,158.61598 L142.208194,164.789833 C141.551682,165.22715 140.888961,165.655881 140.220191,166.075867 L134.749238,166.074411 L134.749238,158.61598 L142.207684,158.61598 Z M132.760319,158.61598 L132.760319,166.074411 L125.301874,166.074411 L125.301874,158.61598 L132.760319,158.61598 Z M123.312955,158.61598 L123.312955,166.074411 L115.85451,166.074411 L115.85451,158.61598 L123.312955,158.61598 Z M113.865591,158.61598 L113.865591,166.074411 L106.407146,166.074411 L106.407146,158.61598 L113.865591,158.61598 Z M104.418227,158.61598 L104.418227,166.074411 L96.9597817,166.074411 L96.9597817,158.61598 L104.418227,158.61598 Z M94.9708629,158.61598 L94.9708629,166.074411 L87.5124175,166.074411 L87.5124175,158.61598 L94.9708629,158.61598 Z M85.5234988,158.61598 L85.5234988,166.074411 L78.0650534,166.074411 L78.0650534,158.61598 L85.5234988,158.61598 Z M76.0761346,158.61598 L76.0761346,166.074411 L68.6176892,166.074411 L68.6176892,158.61598 L76.0761346,158.61598 Z M66.6287705,158.61598 L66.6287705,166.074411 L59.1703251,166.074411 L59.1703251,158.61598 L66.6287705,158.61598 Z M57.1814063,158.61598 L57.1814063,166.074411 L49.7229609,166.074411 L49.7229609,158.61598 L57.1814063,158.61598 Z M47.7340422,158.61598 L47.7340422,166.074411 L47.3068665,166.074785 C44.8384843,163.919107 42.4905267,161.628996 40.2744122,159.215872 L40.2755968,158.61598 L47.7340422,158.61598 Z M144.197525,163.425052 L144.196602,158.61598 L150.399404,158.617698 C148.406455,160.309279 146.337199,161.913694 144.197525,163.425052 Z M151.655048,149.168635 L151.655048,156.627066 L144.196602,156.627066 L144.196602,149.168635 L151.655048,149.168635 Z M142.207684,149.168635 L142.207684,156.627066 L134.749238,156.627066 L134.749238,149.168635 L142.207684,149.168635 Z M132.760319,149.168635 L132.760319,156.627066 L125.301874,156.627066 L125.301874,149.168635 L132.760319,149.168635 Z M123.312955,149.168635 L123.312955,156.627066 L115.85451,156.627066 L115.85451,149.168635 L123.312955,149.168635 Z M113.865591,149.168635 L113.865591,156.627066 L106.407146,156.627066 L106.407146,149.168635 L113.865591,149.168635 Z M104.418227,149.168635 L104.418227,156.627066 L96.9597817,156.627066 L96.9597817,149.168635 L104.418227,149.168635 Z M94.9708629,149.168635 L94.9708629,156.627066 L87.5124175,156.627066 L87.5124175,149.168635 L94.9708629,149.168635 Z M85.5234988,149.168635 L85.5234988,156.627066 L78.0650534,156.627066 L78.0650534,149.168635 L85.5234988,149.168635 Z M76.0761346,149.168635 L76.0761346,156.627066 L68.6176892,156.627066 L68.6176892,149.168635 L76.0761346,149.168635 Z M66.6287705,149.168635 L66.6287705,156.627066 L59.1703251,156.627066 L59.1703251,149.168635 L66.6287705,149.168635 Z M57.1814063,149.168635 L57.1814063,156.627066 L49.7229609,156.627066 L49.7229609,149.168635 L57.1814063,149.168635 Z M47.7340422,149.168635 L47.7340422,156.627066 L40.2755968,156.627066 L40.2755968,149.168635 L47.7340422,149.168635 Z M38.286678,149.168635 L38.286678,156.627066 L37.9878607,156.627281 C35.9651269,154.246053 34.0658283,151.756702 32.299854,149.169115 L38.286678,149.168635 Z M153.645108,155.722646 L153.643967,149.168635 L159.954767,149.169731 C157.964972,151.460994 155.858678,153.648373 153.645108,155.722646 Z M161.102412,139.721289 L161.102412,147.17972 L153.643967,147.17972 L153.643967,139.721289 L161.102412,139.721289 Z M151.655048,139.721289 L151.655048,147.17972 L144.196602,147.17972 L144.196602,139.721289 L151.655048,139.721289 Z M142.207684,139.721289 L142.207684,147.17972 L134.749238,147.17972 L134.749238,139.721289 L142.207684,139.721289 Z M132.760319,139.721289 L132.760319,147.17972 L125.301874,147.17972 L125.301874,139.721289 L132.760319,139.721289 Z M123.312955,139.721289 L123.312955,147.17972 L115.85451,147.17972 L115.85451,139.721289 L123.312955,139.721289 Z M113.865591,139.721289 L113.865591,147.17972 L106.407146,147.17972 L106.407146,139.721289 L113.865591,139.721289 Z M104.418227,139.721289 L104.418227,147.17972 L96.9597817,147.17972 L96.9597817,139.721289 L104.418227,139.721289 Z M94.9708629,139.721289 L94.9708629,147.17972 L87.5124175,147.17972 L87.5124175,139.721289 L94.9708629,139.721289 Z M85.5234988,139.721289 L85.5234988,147.17972 L78.0650534,147.17972 L78.0650534,139.721289 L85.5234988,139.721289 Z M76.0761346,139.721289 L76.0761346,147.17972 L68.6176892,147.17972 L68.6176892,139.721289 L76.0761346,139.721289 Z M66.6287705,139.721289 L66.6287705,147.17972 L59.1703251,147.17972 L59.1703251,139.721289 L66.6287705,139.721289 Z M57.1814063,139.721289 L57.1814063,147.17972 L49.7229609,147.17972 L49.7229609,139.721289 L57.1814063,139.721289 Z M47.7340422,139.721289 L47.7340422,147.17972 L40.2755968,147.17972 L40.2755968,139.721289 L47.7340422,139.721289 Z M38.286678,139.721289 L38.286678,147.17972 L30.9810892,147.179985 C30.9297876,147.100302 30.87861,147.020533 30.8275567,146.940676 L30.8282326,139.721289 L38.286678,139.721289 Z M163.092465,145.345759 L163.091331,139.721289 L167.107411,139.722276 C165.841491,141.650837 164.501839,143.526668 163.092465,145.345759 Z M28.8393139,139.721289 L28.8383919,143.676488 C28.0853906,142.378717 27.36433,141.060111 26.6762861,139.721748 L28.8393139,139.721289 Z M170.549776,130.273943 L170.551515,134.015557 C169.855842,135.273698 169.130258,136.512996 168.375721,137.732492 L163.091331,137.732374 L163.091331,130.273943 L170.549776,130.273943 Z M161.102412,130.273943 L161.102412,137.732374 L153.643967,137.732374 L153.643967,130.273943 L161.102412,130.273943 Z M151.655048,130.273943 L151.655048,137.732374 L144.196602,137.732374 L144.196602,130.273943 L151.655048,130.273943 Z M142.207684,130.273943 L142.207684,137.732374 L134.749238,137.732374 L134.749238,130.273943 L142.207684,130.273943 Z M132.760319,130.273943 L132.760319,137.732374 L125.301874,137.732374 L125.301874,130.273943 L132.760319,130.273943 Z M123.312955,130.273943 L123.312955,137.732374 L115.85451,137.732374 L115.85451,130.273943 L123.312955,130.273943 Z M113.865591,130.273943 L113.865591,137.732374 L106.407146,137.732374 L106.407146,130.273943 L113.865591,130.273943 Z M104.418227,130.273943 L104.418227,137.732374 L96.9597817,137.732374 L96.9597817,130.273943 L104.418227,130.273943 Z M94.9708629,130.273943 L94.9708629,137.732374 L87.5124175,137.732374 L87.5124175,130.273943 L94.9708629,130.273943 Z M85.5234988,130.273943 L85.5234988,137.732374 L78.0650534,137.732374 L78.0650534,130.273943 L85.5234988,130.273943 Z M76.0761346,130.273943 L76.0761346,137.732374 L68.6176892,137.732374 L68.6176892,130.273943 L76.0761346,130.273943 Z M66.6287705,130.273943 L66.6287705,137.732374 L59.1703251,137.732374 L59.1703251,130.273943 L66.6287705,130.273943 Z M57.1814063,130.273943 L57.1814063,137.732374 L49.7229609,137.732374 L49.7229609,130.273943 L57.1814063,130.273943 Z M47.7340422,130.273943 L47.7340422,137.732374 L40.2755968,137.732374 L40.2755968,130.273943 L47.7340422,130.273943 Z M38.286678,130.273943 L38.286678,137.732374 L30.8282326,137.732374 L30.8282326,130.273943 L38.286678,130.273943 Z M28.8393139,130.273943 L28.8393139,137.732374 L25.6852567,137.732971 C24.5138039,135.306192 23.4495515,132.817965 22.498646,130.274434 L28.8393139,130.273943 Z M173.451394,128.285358 L172.538695,128.285028 L172.538695,120.826598 L176.480894,120.82672 C175.582486,123.368554 174.570625,125.856795 173.451394,128.285358 Z M170.549776,120.826598 L170.549776,128.285028 L163.091331,128.285028 L163.091331,120.826598 L170.549776,120.826598 Z M161.102412,120.826598 L161.102412,128.285028 L153.643967,128.285028 L153.643967,120.826598 L161.102412,120.826598 Z M151.655048,120.826598 L151.655048,128.285028 L144.196602,128.285028 L144.196602,120.826598 L151.655048,120.826598 Z M142.207684,120.826598 L142.207684,128.285028 L134.749238,128.285028 L134.749238,120.826598 L142.207684,120.826598 Z M132.760319,120.826598 L132.760319,128.285028 L125.301874,128.285028 L125.301874,120.826598 L132.760319,120.826598 Z M123.312955,120.826598 L123.312955,128.285028 L115.85451,128.285028 L115.85451,120.826598 L123.312955,120.826598 Z M113.865591,120.826598 L113.865591,128.285028 L106.407146,128.285028 L106.407146,120.826598 L113.865591,120.826598 Z M104.418227,120.826598 L104.418227,128.285028 L96.9597817,128.285028 L96.9597817,120.826598 L104.418227,120.826598 Z M94.9708629,120.826598 L94.9708629,128.285028 L87.5124175,128.285028 L87.5124175,120.826598 L94.9708629,120.826598 Z M85.5234988,120.826598 L85.5234988,128.285028 L78.0650534,128.285028 L78.0650534,120.826598 L85.5234988,120.826598 Z M76.0761346,120.826598 L76.0761346,128.285028 L68.6176892,128.285028 L68.6176892,120.826598 L76.0761346,120.826598 Z M66.6287705,120.826598 L66.6287705,128.285028 L59.1703251,128.285028 L59.1703251,120.826598 L66.6287705,120.826598 Z M57.1814063,120.826598 L57.1814063,128.285028 L49.7229609,128.285028 L49.7229609,120.826598 L57.1814063,120.826598 Z M47.7340422,120.826598 L47.7340422,128.285028 L40.2755968,128.285028 L40.2755968,120.826598 L47.7340422,120.826598 Z M38.286678,120.826598 L38.286678,128.285028 L30.8282326,128.285028 L30.8282326,120.826598 L38.286678,120.826598 Z M28.8393139,120.826598 L28.8393139,128.285028 L21.7822944,128.285891 C21.645753,127.892107 21.5119063,127.497063 21.3807764,127.100782 L21.3808685,120.826598 L28.8393139,120.826598 Z M177.15698,118.838096 L172.538695,118.837683 L172.538695,111.379252 L179.232109,111.379169 C178.647722,113.908955 177.954273,116.397004 177.15698,118.838096 Z M170.549776,111.379252 L170.549776,118.837683 L163.091331,118.837683 L163.091331,111.379252 L170.549776,111.379252 Z M161.102412,111.379252 L161.102412,118.837683 L153.643967,118.837683 L153.643967,111.379252 L161.102412,111.379252 Z M151.655048,111.379252 L151.655048,118.837683 L144.196602,118.837683 L144.196602,111.379252 L151.655048,111.379252 Z M142.207684,111.379252 L142.207684,118.837683 L134.749238,118.837683 L134.749238,111.379252 L142.207684,111.379252 Z M132.760319,111.379252 L132.760319,118.837683 L125.301874,118.837683 L125.301874,111.379252 L132.760319,111.379252 Z M123.312955,111.379252 L123.312955,118.837683 L115.85451,118.837683 L115.85451,111.379252 L123.312955,111.379252 Z M113.865591,111.379252 L113.865591,118.837683 L106.407146,118.837683 L106.407146,111.379252 L113.865591,111.379252 Z M104.418227,111.379252 L104.418227,118.837683 L96.9597817,118.837683 L96.9597817,111.379252 L104.418227,111.379252 Z M94.9708629,111.379252 L94.9708629,118.837683 L87.5124175,118.837683 L87.5124175,111.379252 L94.9708629,111.379252 Z M85.5234988,111.379252 L85.5234988,118.837683 L78.0650534,118.837683 L78.0650534,111.379252 L85.5234988,111.379252 Z M76.0761346,111.379252 L76.0761346,118.837683 L68.6176892,118.837683 L68.6176892,111.379252 L76.0761346,111.379252 Z M66.6287705,111.379252 L66.6287705,118.837683 L59.1703251,118.837683 L59.1703251,111.379252 L66.6287705,111.379252 Z M57.1814063,111.379252 L57.1814063,118.837683 L49.7229609,118.837683 L49.7229609,111.379252 L57.1814063,111.379252 Z M47.7340422,111.379252 L47.7340422,118.837683 L40.2755968,118.837683 L40.2755968,111.379252 L47.7340422,111.379252 Z M38.286678,111.379252 L38.286678,118.837683 L30.8282326,118.837683 L30.8282326,111.379252 L38.286678,111.379252 Z M28.8393139,111.379252 L28.8393139,118.837683 L21.3808685,118.837683 L21.3808685,111.379252 L28.8393139,111.379252 Z M19.3919497,111.379252 L19.3919497,118.837683 L19.0862839,118.837547 C18.5330211,116.388341 18.0810253,113.900747 17.7349282,111.379394 L19.3919497,111.379252 Z M179.99714,101.931906 L180.000227,107.694237 C179.894562,108.261987 179.783446,108.827821 179.666936,109.391683 L172.538695,109.390337 L172.538695,101.931906 L179.99714,101.931906 Z M170.549776,101.931906 L170.549776,109.390337 L163.091331,109.390337 L163.091331,101.931906 L170.549776,101.931906 Z M161.102412,101.931906 L161.102412,109.390337 L153.643967,109.390337 L153.643967,101.931906 L161.102412,101.931906 Z M151.655048,101.931906 L151.655048,109.390337 L144.196602,109.390337 L144.196602,101.931906 L151.655048,101.931906 Z M142.207684,101.931906 L142.207684,109.390337 L134.749238,109.390337 L134.749238,101.931906 L142.207684,101.931906 Z M132.760319,101.931906 L132.760319,109.390337 L125.301874,109.390337 L125.301874,101.931906 L132.760319,101.931906 Z M123.312955,101.931906 L123.312955,109.390337 L115.85451,109.390337 L115.85451,101.931906 L123.312955,101.931906 Z M113.865591,101.931906 L113.865591,109.390337 L106.407146,109.390337 L106.407146,101.931906 L113.865591,101.931906 Z M104.418227,101.931906 L104.418227,109.390337 L96.9597817,109.390337 L96.9597817,101.931906 L104.418227,101.931906 Z M94.9708629,101.931906 L94.9708629,109.390337 L87.5124175,109.390337 L87.5124175,101.931906 L94.9708629,101.931906 Z M85.5234988,101.931906 L85.5234988,109.390337 L78.0650534,109.390337 L78.0650534,101.931906 L85.5234988,101.931906 Z M76.0761346,101.931906 L76.0761346,109.390337 L68.6176892,109.390337 L68.6176892,101.931906 L76.0761346,101.931906 Z M66.6287705,101.931906 L66.6287705,109.390337 L59.1703251,109.390337 L59.1703251,101.931906 L66.6287705,101.931906 Z M57.1814063,101.931906 L57.1814063,109.390337 L49.7229609,109.390337 L49.7229609,101.931906 L57.1814063,101.931906 Z M47.7340422,101.931906 L47.7340422,109.390337 L40.2755968,109.390337 L40.2755968,101.931906 L47.7340422,101.931906 Z M38.286678,101.931906 L38.286678,109.390337 L30.8282326,109.390337 L30.8282326,101.931906 L38.286678,101.931906 Z M28.8393139,101.931906 L28.8393139,109.390337 L21.3808685,109.390337 L21.3808685,101.931906 L28.8393139,101.931906 Z M19.3919497,101.931906 L19.3919497,109.390337 L17.4847353,109.39029 C17.2038272,106.933489 17.0232299,104.44621 16.9471412,101.932652 L19.3919497,101.931906 Z M179.99714,92.4845603 L179.99714,99.9429911 L172.538695,99.9429911 L172.538695,92.4845603 L179.99714,92.4845603 Z M170.549776,92.4845603 L170.549776,99.9429911 L163.091331,99.9429911 L163.091331,92.4845603 L170.549776,92.4845603 Z M161.102412,92.4845603 L161.102412,99.9429911 L153.643967,99.9429911 L153.643967,92.4845603 L161.102412,92.4845603 Z M151.655048,92.4845603 L151.655048,99.9429911 L144.196602,99.9429911 L144.196602,92.4845603 L151.655048,92.4845603 Z M142.207684,92.4845603 L142.207684,99.9429911 L134.749238,99.9429911 L134.749238,92.4845603 L142.207684,92.4845603 Z M132.760319,92.4845603 L132.760319,99.9429911 L125.301874,99.9429911 L125.301874,92.4845603 L132.760319,92.4845603 Z M123.312955,92.4845603 L123.312955,99.9429911 L115.85451,99.9429911 L115.85451,92.4845603 L123.312955,92.4845603 Z M113.865591,92.4845603 L113.865591,99.9429911 L106.407146,99.9429911 L106.407146,92.4845603 L113.865591,92.4845603 Z M104.418227,92.4845603 L104.418227,99.9429911 L96.9597817,99.9429911 L96.9597817,92.4845603 L104.418227,92.4845603 Z M94.9708629,92.4845603 L94.9708629,99.9429911 L87.5124175,99.9429911 L87.5124175,92.4845603 L94.9708629,92.4845603 Z M85.5234988,92.4845603 L85.5234988,99.9429911 L78.0650534,99.9429911 L78.0650534,92.4845603 L85.5234988,92.4845603 Z M76.0761346,92.4845603 L76.0761346,99.9429911 L68.6176892,99.9429911 L68.6176892,92.4845603 L76.0761346,92.4845603 Z M66.6287705,92.4845603 L66.6287705,99.9429911 L59.1703251,99.9429911 L59.1703251,92.4845603 L66.6287705,92.4845603 Z M57.1814063,92.4845603 L57.1814063,99.9429911 L49.7229609,99.9429911 L49.7229609,92.4845603 L57.1814063,92.4845603 Z M47.7340422,92.4845603 L47.7340422,99.9429911 L40.2755968,99.9429911 L40.2755968,92.4845603 L47.7340422,92.4845603 Z M38.286678,92.4845603 L38.286678,99.9429911 L30.8282326,99.9429911 L30.8282326,92.4845603 L38.286678,92.4845603 Z M28.8393139,92.4845603 L28.8393139,99.9429911 L21.3808685,99.9429911 L21.3808685,92.4845603 L28.8393139,92.4845603 Z M19.3919497,92.4845603 L19.3919497,99.9429911 L16.9088607,99.9429842 C16.9068172,99.6946606 16.9057934,99.4460939 16.9057934,99.1972881 C16.9057934,96.9386426 16.9901613,94.6997022 17.1559175,92.4834465 L19.3919497,92.4845603 Z M170.549776,83.0372145 L170.549776,90.4956454 L163.091331,90.4956454 L163.091331,83.0372145 L170.549776,83.0372145 Z M161.102412,83.0372145 L161.102412,90.4956454 L153.643967,90.4956454 L153.643967,83.0372145 L161.102412,83.0372145 Z M151.655048,83.0372145 L151.655048,90.4956454 L144.196602,90.4956454 L144.196602,83.0372145 L151.655048,83.0372145 Z M142.207684,83.0372145 L142.207684,90.4956454 L134.749238,90.4956454 L134.749238,83.0372145 L142.207684,83.0372145 Z M132.760319,83.0372145 L132.760319,90.4956454 L125.301874,90.4956454 L125.301874,83.0372145 L132.760319,83.0372145 Z M123.312955,83.0372145 L123.312955,90.4956454 L115.85451,90.4956454 L115.85451,83.0372145 L123.312955,83.0372145 Z M113.865591,83.0372145 L113.865591,90.4956454 L106.407146,90.4956454 L106.407146,83.0372145 L113.865591,83.0372145 Z M104.418227,83.0372145 L104.418227,90.4956454 L96.9597817,90.4956454 L96.9597817,83.0372145 L104.418227,83.0372145 Z M94.9708629,83.0372145 L94.9708629,90.4956454 L87.5124175,90.4956454 L87.5124175,83.0372145 L94.9708629,83.0372145 Z M85.5234988,83.0372145 L85.5234988,90.4956454 L78.0650534,90.4956454 L78.0650534,83.0372145 L85.5234988,83.0372145 Z M76.0761346,83.0372145 L76.0761346,90.4956454 L68.6176892,90.4956454 L68.6176892,83.0372145 L76.0761346,83.0372145 Z M66.6287705,83.0372145 L66.6287705,90.4956454 L59.1703251,90.4956454 L59.1703251,83.0372145 L66.6287705,83.0372145 Z M57.1814063,83.0372145 L57.1814063,90.4956454 L49.7229609,90.4956454 L49.7229609,83.0372145 L57.1814063,83.0372145 Z M47.7340422,83.0372145 L47.7340422,90.4956454 L40.2755968,90.4956454 L40.2755968,83.0372145 L47.7340422,83.0372145 Z M38.286678,83.0372145 L38.286678,90.4956454 L30.8282326,90.4956454 L30.8282326,83.0372145 L38.286678,83.0372145 Z M28.8393139,83.0372145 L28.8393139,90.4956454 L21.3808685,90.4956454 L21.3808685,83.0372145 L28.8393139,83.0372145 Z M179.99714,83.0372145 L179.99714,90.4956454 L172.538695,90.4956454 L172.538695,83.0372145 L179.99714,83.0372145 Z M19.3919497,83.0372145 L19.3919497,90.4956454 L17.3269198,90.495769 C17.5719948,87.977143 17.9223412,85.4893526 18.3735028,83.0368539 L19.3919497,83.0372145 Z M179.997931,75.2739672 L179.99714,81.0482996 L172.538695,81.0482996 L172.538695,73.5898688 L179.667135,73.5898365 C179.782729,74.1492901 179.893013,74.7106853 179.997931,75.2739672 Z M170.549776,73.5898688 L170.549776,81.0482996 L163.091331,81.0482996 L163.091331,73.5898688 L170.549776,73.5898688 Z M161.102412,73.5898688 L161.102412,81.0482996 L153.643967,81.0482996 L153.643967,73.5898688 L161.102412,73.5898688 Z M151.655048,73.5898688 L151.655048,81.0482996 L144.196602,81.0482996 L144.196602,73.5898688 L151.655048,73.5898688 Z M142.207684,73.5898688 L142.207684,81.0482996 L134.749238,81.0482996 L134.749238,73.5898688 L142.207684,73.5898688 Z M132.760319,73.5898688 L132.760319,81.0482996 L125.301874,81.0482996 L125.301874,73.5898688 L132.760319,73.5898688 Z M123.312955,73.5898688 L123.312955,81.0482996 L115.85451,81.0482996 L115.85451,73.5898688 L123.312955,73.5898688 Z M113.865591,73.5898688 L113.865591,81.0482996 L106.407146,81.0482996 L106.407146,73.5898688 L113.865591,73.5898688 Z M104.418227,73.5898688 L104.418227,81.0482996 L96.9597817,81.0482996 L96.9597817,73.5898688 L104.418227,73.5898688 Z M94.9708629,73.5898688 L94.9708629,81.0482996 L87.5124175,81.0482996 L87.5124175,73.5898688 L94.9708629,73.5898688 Z M85.5234988,73.5898688 L85.5234988,81.0482996 L78.0650534,81.0482996 L78.0650534,73.5898688 L85.5234988,73.5898688 Z M76.0761346,73.5898688 L76.0761346,81.0482996 L68.6176892,81.0482996 L68.6176892,73.5898688 L76.0761346,73.5898688 Z M66.6287705,73.5898688 L66.6287705,81.0482996 L59.1703251,81.0482996 L59.1703251,73.5898688 L66.6287705,73.5898688 Z M57.1814063,73.5898688 L57.1814063,81.0482996 L49.7229609,81.0482996 L49.7229609,73.5898688 L57.1814063,73.5898688 Z M47.7340422,73.5898688 L47.7340422,81.0482996 L40.2755968,81.0482996 L40.2755968,73.5898688 L47.7340422,73.5898688 Z M38.286678,73.5898688 L38.286678,81.0482996 L30.8282326,81.0482996 L30.8282326,73.5898688 L38.286678,73.5898688 Z M28.8393139,73.5898688 L28.8393139,81.0482996 L21.3808685,81.0482996 L21.3808685,73.5898688 L28.8393139,73.5898688 Z M19.3902324,78.25737 L19.3919497,81.0482996 L18.7630776,81.0476737 C18.9574851,80.1120906 19.1666211,79.1819049 19.3902324,78.25737 Z M179.231961,71.6007693 L172.538695,71.6009539 L172.538695,64.142523 L177.156791,64.1420164 C177.954098,66.5830499 178.647561,69.0710406 179.231961,71.6007693 Z M170.549776,64.142523 L170.549776,71.6009539 L163.091331,71.6009539 L163.091331,64.142523 L170.549776,64.142523 Z M161.102412,64.142523 L161.102412,71.6009539 L153.643967,71.6009539 L153.643967,64.142523 L161.102412,64.142523 Z M151.655048,64.142523 L151.655048,71.6009539 L144.196602,71.6009539 L144.196602,64.142523 L151.655048,64.142523 Z M142.207684,64.142523 L142.207684,71.6009539 L134.749238,71.6009539 L134.749238,64.142523 L142.207684,64.142523 Z M132.760319,64.142523 L132.760319,71.6009539 L125.301874,71.6009539 L125.301874,64.142523 L132.760319,64.142523 Z M123.312955,64.142523 L123.312955,71.6009539 L115.85451,71.6009539 L115.85451,64.142523 L123.312955,64.142523 Z M113.865591,64.142523 L113.865591,71.6009539 L106.407146,71.6009539 L106.407146,64.142523 L113.865591,64.142523 Z M104.418227,64.142523 L104.418227,71.6009539 L96.9597817,71.6009539 L96.9597817,64.142523 L104.418227,64.142523 Z M94.9708629,64.142523 L94.9708629,71.6009539 L87.5124175,71.6009539 L87.5124175,64.142523 L94.9708629,64.142523 Z M85.5234988,64.142523 L85.5234988,71.6009539 L78.0650534,71.6009539 L78.0650534,64.142523 L85.5234988,64.142523 Z M76.0761346,64.142523 L76.0761346,71.6009539 L68.6176892,71.6009539 L68.6176892,64.142523 L76.0761346,64.142523 Z M66.6287705,64.142523 L66.6287705,71.6009539 L59.1703251,71.6009539 L59.1703251,64.142523 L66.6287705,64.142523 Z M57.1814063,64.142523 L57.1814063,71.6009539 L49.7229609,71.6009539 L49.7229609,64.142523 L57.1814063,64.142523 Z M47.7340422,64.142523 L47.7340422,71.6009539 L40.2755968,71.6009539 L40.2755968,64.142523 L47.7340422,64.142523 Z M38.286678,64.142523 L38.286678,71.6009539 L30.8282326,71.6009539 L30.8282326,64.142523 L38.286678,64.142523 Z M28.8393139,64.142523 L28.8393139,71.6009539 L21.3808685,71.6009539 L21.3806734,71.29415 C22.1856095,68.8615735 23.0929203,66.475617 24.0975019,64.1413844 L28.8393139,64.142523 Z M176.480625,62.1532481 L172.538695,62.1536081 L172.538695,54.6951773 L173.451202,54.6951317 C174.570401,57.1235243 175.582235,59.6115912 176.480625,62.1532481 Z M170.549776,54.6951773 L170.549776,62.1536081 L163.091331,62.1536081 L163.091331,54.6951773 L170.549776,54.6951773 Z M161.102412,54.6951773 L161.102412,62.1536081 L153.643967,62.1536081 L153.643967,54.6951773 L161.102412,54.6951773 Z M151.655048,54.6951773 L151.655048,62.1536081 L144.196602,62.1536081 L144.196602,54.6951773 L151.655048,54.6951773 Z M142.207684,54.6951773 L142.207684,62.1536081 L134.749238,62.1536081 L134.749238,54.6951773 L142.207684,54.6951773 Z M132.760319,54.6951773 L132.760319,62.1536081 L125.301874,62.1536081 L125.301874,54.6951773 L132.760319,54.6951773 Z M123.312955,54.6951773 L123.312955,62.1536081 L115.85451,62.1536081 L115.85451,54.6951773 L123.312955,54.6951773 Z M113.865591,54.6951773 L113.865591,62.1536081 L106.407146,62.1536081 L106.407146,54.6951773 L113.865591,54.6951773 Z M104.418227,54.6951773 L104.418227,62.1536081 L96.9597817,62.1536081 L96.9597817,54.6951773 L104.418227,54.6951773 Z M94.9708629,54.6951773 L94.9708629,62.1536081 L87.5124175,62.1536081 L87.5124175,54.6951773 L94.9708629,54.6951773 Z M85.5234988,54.6951773 L85.5234988,62.1536081 L78.0650534,62.1536081 L78.0650534,54.6951773 L85.5234988,54.6951773 Z M76.0761346,54.6951773 L76.0761346,62.1536081 L68.6176892,62.1536081 L68.6176892,54.6951773 L76.0761346,54.6951773 Z M66.6287705,54.6951773 L66.6287705,62.1536081 L59.1703251,62.1536081 L59.1703251,54.6951773 L66.6287705,54.6951773 Z M57.1814063,54.6951773 L57.1814063,62.1536081 L49.7229609,62.1536081 L49.7229609,54.6951773 L57.1814063,54.6951773 Z M47.7340422,54.6951773 L47.7340422,62.1536081 L40.2755968,62.1536081 L40.2755968,54.6951773 L47.7340422,54.6951773 Z M38.286678,54.6951773 L38.286678,62.1536081 L30.8282326,62.1536081 L30.8282326,54.6951773 L38.286678,54.6951773 Z M28.8388636,54.7174387 L28.8393139,62.1536081 L24.9821859,62.1535919 C26.1530753,59.6076571 27.4409292,57.1266447 28.8388636,54.7174387 Z M170.549671,48.9621903 L170.549776,52.7062624 L163.091331,52.7062624 L163.091331,45.2478316 L168.374475,45.2467117 C169.128793,46.4657336 169.854178,47.7045459 170.549671,48.9621903 Z M161.102412,45.2478316 L161.102412,52.7062624 L153.643967,52.7062624 L153.643967,45.2478316 L161.102412,45.2478316 Z M151.655048,45.2478316 L151.655048,52.7062624 L144.196602,52.7062624 L144.196602,45.2478316 L151.655048,45.2478316 Z M142.207684,45.2478316 L142.207684,52.7062624 L134.749238,52.7062624 L134.749238,45.2478316 L142.207684,45.2478316 Z M132.760319,45.2478316 L132.760319,52.7062624 L125.301874,52.7062624 L125.301874,45.2478316 L132.760319,45.2478316 Z M123.312955,45.2478316 L123.312955,52.7062624 L115.85451,52.7062624 L115.85451,45.2478316 L123.312955,45.2478316 Z M113.865591,45.2478316 L113.865591,52.7062624 L106.407146,52.7062624 L106.407146,45.2478316 L113.865591,45.2478316 Z M104.418227,45.2478316 L104.418227,52.7062624 L96.9597817,52.7062624 L96.9597817,45.2478316 L104.418227,45.2478316 Z M94.9708629,45.2478316 L94.9708629,52.7062624 L87.5124175,52.7062624 L87.5124175,45.2478316 L94.9708629,45.2478316 Z M85.5234988,45.2478316 L85.5234988,52.7062624 L78.0650534,52.7062624 L78.0650534,45.2478316 L85.5234988,45.2478316 Z M76.0761346,45.2478316 L76.0761346,52.7062624 L68.6176892,52.7062624 L68.6176892,45.2478316 L76.0761346,45.2478316 Z M66.6287705,45.2478316 L66.6287705,52.7062624 L59.1703251,52.7062624 L59.1703251,45.2478316 L66.6287705,45.2478316 Z M57.1814063,45.2478316 L57.1814063,52.7062624 L49.7229609,52.7062624 L49.7229609,45.2478316 L57.1814063,45.2478316 Z M47.7340422,45.2478316 L47.7340422,52.7062624 L40.2755968,52.7062624 L40.2755968,45.2478316 L47.7340422,45.2478316 Z M38.286678,45.2478316 L38.286678,52.7062624 L30.8282326,52.7062624 L30.8273972,51.4543516 C32.1913646,49.320867 33.6440671,47.2495862 35.1803005,45.2457132 L38.286678,45.2478316 Z M167.107214,43.2587215 L163.091331,43.2589167 L163.091422,37.6344496 C164.50111,39.453782 165.841044,41.3298761 167.107214,43.2587215 Z M161.102412,35.8004858 L161.102412,43.2589167 L153.643967,43.2589167 L153.643967,35.8004858 L161.102412,35.8004858 Z M151.655048,35.8004858 L151.655048,43.2589167 L144.196602,43.2589167 L144.196602,35.8004858 L151.655048,35.8004858 Z M142.207684,35.8004858 L142.207684,43.2589167 L134.749238,43.2589167 L134.749238,35.8004858 L142.207684,35.8004858 Z M132.760319,35.8004858 L132.760319,43.2589167 L125.301874,43.2589167 L125.301874,35.8004858 L132.760319,35.8004858 Z M123.312955,35.8004858 L123.312955,43.2589167 L115.85451,43.2589167 L115.85451,35.8004858 L123.312955,35.8004858 Z M113.865591,35.8004858 L113.865591,43.2589167 L106.407146,43.2589167 L106.407146,35.8004858 L113.865591,35.8004858 Z M104.418227,35.8004858 L104.418227,43.2589167 L96.9597817,43.2589167 L96.9597817,35.8004858 L104.418227,35.8004858 Z M94.9708629,35.8004858 L94.9708629,43.2589167 L87.5124175,43.2589167 L87.5124175,35.8004858 L94.9708629,35.8004858 Z M85.5234988,35.8004858 L85.5234988,43.2589167 L78.0650534,43.2589167 L78.0650534,35.8004858 L85.5234988,35.8004858 Z M76.0761346,35.8004858 L76.0761346,43.2589167 L68.6176892,43.2589167 L68.6176892,35.8004858 L76.0761346,35.8004858 Z M66.6287705,35.8004858 L66.6287705,43.2589167 L59.1703251,43.2589167 L59.1703251,35.8004858 L66.6287705,35.8004858 Z M57.1814063,35.8004858 L57.1814063,43.2589167 L49.7229609,43.2589167 L49.7229609,35.8004858 L57.1814063,35.8004858 Z M47.7340422,35.8004858 L47.7340422,43.2589167 L40.2755968,43.2589167 L40.2745478,39.1789727 C41.3355807,38.023647 42.4268362,36.8965213 43.5470611,35.7988488 L47.7340422,35.8004858 Z M38.2855086,41.4190795 L38.286678,43.2589167 L36.7494666,43.2580028 C37.2533375,42.6380423 37.7654066,42.0250128 38.2855086,41.4190795 Z M159.95355,33.8106253 L153.643967,33.8115709 L153.645257,27.2596644 C155.858332,29.3333379 157.964166,31.5200629 159.95355,33.8106253 Z M151.655048,26.3531401 L151.655048,33.8115709 L144.196602,33.8115709 L144.196602,26.3531401 L151.655048,26.3531401 Z M142.207684,26.3531401 L142.207684,33.8115709 L134.749238,33.8115709 L134.749238,26.3531401 L142.207684,26.3531401 Z M132.760319,26.3531401 L132.760319,33.8115709 L125.301874,33.8115709 L125.301874,26.3531401 L132.760319,26.3531401 Z M123.312955,26.3531401 L123.312955,33.8115709 L115.85451,33.8115709 L115.85451,26.3531401 L123.312955,26.3531401 Z M113.865591,26.3531401 L113.865591,33.8115709 L106.407146,33.8115709 L106.407146,26.3531401 L113.865591,26.3531401 Z M104.418227,26.3531401 L104.418227,33.8115709 L96.9597817,33.8115709 L96.9597817,26.3531401 L104.418227,26.3531401 Z M94.9708629,26.3531401 L94.9708629,33.8115709 L87.5124175,33.8115709 L87.5124175,26.3531401 L94.9708629,26.3531401 Z M85.5234988,26.3531401 L85.5234988,33.8115709 L78.0650534,33.8115709 L78.0650534,26.3531401 L85.5234988,26.3531401 Z M76.0761346,26.3531401 L76.0761346,33.8115709 L68.6176892,33.8115709 L68.6176892,26.3531401 L76.0761346,26.3531401 Z M66.6287705,26.3531401 L66.6287705,33.8115709 L59.1703251,33.8115709 L59.1703251,26.3531401 L66.6287705,26.3531401 Z M57.1814063,26.3531401 L57.1814063,33.8115709 L49.7229609,33.8115709 L49.721971,30.2855036 C51.4118472,28.9120631 53.1532196,27.5995338 54.9427438,26.3512601 L57.1814063,26.3531401 Z M47.7332193,31.9504375 L47.7340422,33.8115709 L45.6429393,33.8105834 C46.3298192,33.1797642 47.026667,32.5596278 47.7332193,31.9504375 Z M150.397823,24.3633397 L144.196602,24.3642252 L144.197078,19.557407 C146.336354,21.0683305 148.40523,22.6722703 150.397823,24.3633397 Z M142.20769,18.291379 L142.207684,24.3642252 L134.749238,24.3642252 L134.749238,16.9057943 L138.973452,16.90513 C140.062447,17.3463915 141.140693,17.8086417 142.20769,18.291379 Z M132.760319,16.9057943 L132.760319,24.3642252 L125.301874,24.3642252 L125.301874,16.9057943 L132.760319,16.9057943 Z M123.312955,16.9057943 L123.312955,24.3642252 L115.85451,24.3642252 L115.85451,16.9057943 L123.312955,16.9057943 Z M113.865591,16.9057943 L113.865591,24.3642252 L106.407146,24.3642252 L106.407146,16.9057943 L113.865591,16.9057943 Z M104.418227,16.9057943 L104.418227,24.3642252 L96.9597817,24.3642252 L96.9597817,16.9057943 L104.418227,16.9057943 Z M94.9708629,16.9057943 L94.9708629,24.3642252 L87.5124175,24.3642252 L87.5124175,16.9057943 L94.9708629,16.9057943 Z M85.5234988,16.9057943 L85.5234988,24.3642252 L78.0650534,24.3642252 L78.0650534,16.9057943 L85.5234988,16.9057943 Z M76.0761346,16.9057943 L76.0761346,24.3642252 L68.6176892,24.3642252 L68.6175675,18.5182274 C69.8464317,17.9530664 71.0904214,17.4151555 72.3487624,16.9052686 L76.0761346,16.9057943 Z M66.6272941,19.4638143 L66.6287705,24.3642252 L59.1703251,24.3642252 L59.16957,23.5780791 C61.5814284,22.092076 64.0697598,20.7182309 66.6272941,19.4638143 Z M132.760491,14.6549705 L132.760319,14.9168794 L125.301874,14.9168794 L125.302457,12.622538 C127.831089,13.1937723 130.318799,13.8729488 132.760491,14.6549705 Z M123.31347,12.1972508 L123.312955,14.9168794 L115.85451,14.9168794 L115.854628,11.0208196 C118.374481,11.3089471 120.862271,11.7026005 123.31347,12.1972508 Z M106.406793,10.4448381 L105.661278,10.4418381 C108.427384,10.4418381 111.163936,10.5683753 113.865461,10.8159768 L113.865591,14.9168794 L106.407146,14.9168794 L106.406793,10.4448381 Z M104.418135,10.4503665 L104.418227,14.9168794 L96.9597817,14.9168794 L96.9587683,10.8630605 C99.4172246,10.6238128 101.905062,10.4848667 104.418135,10.4503665 Z M94.9706348,11.0791005 L94.9708629,14.9168794 L87.5124175,14.9168794 L87.5116567,12.2991216 C89.9624638,11.7898617 92.450308,11.3816698 94.9706348,11.0791005 Z M85.5224801,12.7364683 L85.5234988,14.9168794 L78.0650534,14.9168794 L78.0643751,14.8160017 C80.5055366,14.0181295 82.9932827,13.3232406 85.5224801,12.7364683 Z" id="Raster"></path>
            <path d="M144.196799,16.4899111 C143.278188,15.8525611 142.346818,15.202464 141.389931,14.590608 C98.6362298,-12.8026968 41.8099136,-0.501841008 14.4812272,42.0858888 C-12.8602177,84.6608716 -0.344138667,141.397772 42.4095627,168.791077 C43.3664494,169.402933 44.3360947,169.976548 45.30574,170.550163 C10.8705744,140.441747 2.3606613,89.3007799 27.3673025,50.3331984 C52.3739437,11.3656168 102.43826,-2.23543312 144.196799,16.4899111 Z" id="Eclipse"></path>
        </g>
        <g id="ImageN" transform="translate(29.9355, 224.9063)" fill="#000000" fill-rule="nonzero">
            <polygon id="Path" points="4.68361499 35.5174137 0 35.5174137 0 0 4.68361499 0"></polygon>
            <path d="M16.7829537,9.1232917 L16.9049229,12.0505511 C17.8156258,10.9772226 18.9174137,10.1397012 20.2102866,9.53798677 C21.5031594,8.93627235 23.0115111,8.63541514 24.7353417,8.63541514 C26.4429096,8.63541514 27.9512613,8.97286309 29.2603968,9.647759 C30.5695322,10.3226549 31.5737448,11.400049 32.2730345,12.8799412 C33.1512123,11.6114622 34.2936566,10.5869214 35.7003674,9.80631888 C37.1070781,9.02571639 38.7699241,8.63541514 40.6889052,8.63541514 C42.1037472,8.63541514 43.3559638,8.81836885 44.4455547,9.18427627 C45.5351457,9.55018369 46.4580456,10.1234386 47.2142542,10.9040411 C47.9704629,11.6846436 48.5437179,12.6766593 48.9340191,13.8800882 C49.3243204,15.083517 49.519471,16.5146216 49.519471,18.1734019 L49.519471,35.5174137 L45.0066128,35.5174137 L45.0066128,18.1490081 C45.0066128,17.0431545 44.8724467,16.1243204 44.6041146,15.3925055 C44.3357825,14.6606907 43.9576782,14.0752388 43.4698016,13.6361499 C42.9819251,13.197061 42.3883419,12.8921381 41.6890522,12.7213813 C40.9897624,12.5506245 40.2172912,12.4652461 39.3716385,12.4652461 C38.444673,12.4652461 37.6234142,12.6116091 36.9078619,12.904335 C36.1923096,13.197061 35.5783982,13.5914279 35.0661278,14.0874357 C34.5538575,14.5834435 34.1472937,15.1688954 33.8464364,15.8437913 C33.5455792,16.5186872 33.3544942,17.2383052 33.2731815,18.0026451 L33.2731815,35.5174137 L28.7359295,35.5174137 L28.7359295,18.1734019 C28.7359295,17.1488611 28.6017634,16.274749 28.3334313,15.5510654 C28.0650992,14.8273818 27.6869949,14.2378643 27.1991183,13.7825129 C26.7112417,13.3271614 26.1217242,12.9937791 25.4305658,12.7823659 C24.7394073,12.5709527 23.9628704,12.4652461 23.1009552,12.4652461 C21.4909625,12.4652461 20.1980896,12.814891 19.2223365,13.5141807 C18.2465834,14.2134705 17.5147686,15.1241734 17.026892,16.2462895 L17.026892,35.5174137 L12.5140338,35.5174137 L12.5140338,9.1232917 L16.7829537,9.1232917 Z" id="Path"></path>
            <path d="M72.6204262,35.5174137 C72.4578006,35.1921626 72.3277002,34.7815332 72.2301249,34.2855253 C72.1325496,33.7895175 72.0512368,33.2731815 71.9861866,32.7365173 C71.5633603,33.1756062 71.0876806,33.5943669 70.5591477,33.9927994 C70.0306147,34.3912319 69.4532941,34.7408768 68.8271859,35.041734 C68.2010776,35.3425912 67.5221161,35.5783982 66.7903012,35.749155 C66.0584864,35.9199118 65.2860152,36.0052902 64.4728876,36.0052902 C63.1230958,36.0052902 61.8993387,35.8020083 60.8016165,35.3954445 C59.7038942,34.9888807 58.7687975,34.435954 57.9963262,33.7366642 C57.223855,33.0373745 56.6262062,32.21205 56.2033799,31.2606907 C55.7805535,30.3093314 55.5691403,29.2888562 55.5691403,28.1992652 C55.5691403,26.7844232 55.8456037,25.5362723 56.3985305,24.4548126 C56.9514573,23.3733529 57.7442567,22.4667157 58.7769287,21.7349008 C59.8096008,21.003086 61.0577517,20.4501592 62.5213813,20.0761205 C63.985011,19.7020818 65.6193975,19.5150625 67.4245408,19.5150625 L71.9130051,19.5150625 L71.9130051,17.4415871 C71.9130051,15.8641195 71.4413911,14.6078374 70.4981631,13.6727406 C69.5549351,12.7376439 68.1644869,12.2700955 66.3268185,12.2700955 C65.4811658,12.2700955 64.7086946,12.3839334 64.0094048,12.6116091 C63.3101151,12.8392848 62.7124663,13.1442077 62.2164585,13.5263777 C61.7204506,13.9085476 61.334215,14.3517022 61.0577517,14.8558413 C60.7812883,15.3599804 60.6430566,15.8885133 60.6430566,16.4414401 L56.1058046,16.4414401 C56.1058046,15.4982121 56.3538085,14.5631154 56.8498163,13.6361499 C57.3458241,12.7091844 58.0491795,11.8757286 58.9598824,11.1357825 C59.8705854,10.3958364 60.9723733,9.79412197 62.2652461,9.33063924 C63.558119,8.8671565 65.0014205,8.63541514 66.5951506,8.63541514 C68.0262552,8.63541514 69.3475876,8.81836885 70.5591477,9.18427627 C71.7707078,9.55018369 72.8074455,10.1031105 73.6693608,10.8430566 C74.531276,11.5830027 75.2061719,12.5059025 75.6940485,13.6117561 C76.1819251,14.7176096 76.4258633,16.0104825 76.4258633,17.4903747 L76.4258633,29.7604702 C76.4258633,30.6549106 76.5031105,31.594073 76.6576047,32.5779574 C76.8120989,33.5618418 77.0438403,34.4115601 77.3528288,35.1271124 L77.3528288,35.5174137 L72.6204262,35.5174137 Z M65.1315209,32.0778839 C65.9446485,32.0778839 66.7089885,31.964046 67.4245408,31.7363703 C68.1400931,31.5086946 68.7905952,31.211903 69.376047,30.8459956 C69.9614989,30.4800882 70.4697036,30.0613275 70.9006613,29.5897134 C71.3316189,29.1180994 71.6690669,28.6302229 71.9130051,28.1260838 L71.9130051,22.7106539 L68.1563556,22.7106539 C65.5706098,22.7106539 63.5784472,23.1131521 62.1798677,23.9181484 C60.7812883,24.7231447 60.0819985,25.9387705 60.0819985,27.5650257 C60.0819985,28.1992652 60.1877051,28.7928484 60.3991183,29.3457752 C60.6105315,29.8987019 60.9317169,30.3743816 61.3626745,30.7728141 C61.7936321,31.1712466 62.3221651,31.4883664 62.9482733,31.7241734 C63.5743816,31.9599804 64.3021308,32.0778839 65.1315209,32.0778839 Z" id="Shape"></path>
            <path d="M82.426745,22.1008082 C82.426745,20.0842518 82.6666177,18.250649 83.146363,16.6 C83.6261083,14.949351 84.3172667,13.5345089 85.2198384,12.3554739 C86.12241,11.1764389 87.2160666,10.2616703 88.5008082,9.61116826 C89.7855498,8.96066618 91.232917,8.63541514 92.8429096,8.63541514 C94.5179525,8.63541514 95.9734509,8.92814107 97.2094048,9.51359295 C98.4453588,10.0990448 99.5024247,10.9446975 100.380602,12.0505511 L100.600147,9.1232917 L104.722704,9.1232917 L104.722704,34.9563556 C104.722704,36.6964487 104.450306,38.2454568 103.905511,39.6033799 C103.360715,40.961303 102.59231,42.1078129 101.600294,43.0429096 C100.608278,43.9780064 99.4292432,44.689493 98.0631888,45.1773696 C96.6971345,45.6652461 95.1847171,45.9091844 93.5259368,45.9091844 C92.8429096,45.9091844 92.0582415,45.8319373 91.1719324,45.6774431 C90.2856233,45.5229488 89.391183,45.2708793 88.4886113,44.9212344 C87.5860397,44.5715895 86.7200588,44.1040411 85.8906686,43.5185893 C85.0612785,42.9331374 84.3538575,42.2094538 83.7684056,41.3475386 L86.1102131,38.6398237 C86.6631398,39.3228508 87.2323292,39.8920402 87.817781,40.3473916 C88.4032329,40.8027431 88.9927504,41.1686505 89.5863336,41.4451139 C90.1799167,41.7215773 90.7816312,41.9207935 91.3914769,42.0427627 C92.0013226,42.1647318 92.6071026,42.2257164 93.208817,42.2257164 C94.2658829,42.2257164 95.2253735,42.0752878 96.0872888,41.7744306 C96.949204,41.4735734 97.6850845,41.0222875 98.2949302,40.4205731 C98.9047759,39.8188587 99.3723243,39.0829782 99.6975753,38.2129317 C100.022826,37.3428851 100.185452,36.3305413 100.185452,35.1759001 L100.185452,32.8828802 C99.3072741,33.8911585 98.2624051,34.6636297 97.050845,35.2002939 C95.8392848,35.7369581 94.4203772,36.0052902 92.794122,36.0052902 C91.2166544,36.0052902 89.7896155,35.6719079 88.5130051,35.0051433 C87.2363948,34.3383786 86.1468038,33.4073475 85.2442322,32.21205 C84.3416605,31.0167524 83.6464364,29.6019104 83.1585599,27.9675239 C82.6706833,26.3331374 82.426745,24.5483223 82.426745,22.6130786 L82.426745,22.1008082 Z M86.9639971,22.6130786 C86.9639971,23.9303453 87.0981631,25.1703649 87.3664952,26.3331374 C87.6348273,27.4959099 88.0495224,28.5082537 88.6105805,29.370169 C89.1716385,30.2320843 89.8912564,30.9151114 90.7694342,31.4192506 C91.647612,31.9233897 92.6965467,32.1754592 93.9162381,32.1754592 C94.7131031,32.1754592 95.432721,32.0778839 96.0750918,31.8827333 C96.7174627,31.6875827 97.2947832,31.4192506 97.8070536,31.077737 C98.319324,30.7362234 98.7706098,30.3296596 99.1609111,29.8580456 C99.5512123,29.3864315 99.8927259,28.8660299 100.185452,28.2968406 L100.185452,16.2462895 C99.8927259,15.7096253 99.5512123,15.2095518 99.1609111,14.7460691 C98.7706098,14.2825863 98.319324,13.8800882 97.8070536,13.5385746 C97.2947832,13.197061 96.7215283,12.9327945 96.0872888,12.7457752 C95.4530492,12.5587558 94.7456282,12.4652461 93.9650257,12.4652461 C92.7290718,12.4652461 91.6720059,12.7213813 90.7938281,13.2336517 C89.9156503,13.7459221 89.1919667,14.4411462 88.6227774,15.319324 C88.053588,16.1975018 87.6348273,17.217977 87.3664952,18.3807494 C87.0981631,19.5435219 86.9639971,20.7835415 86.9639971,22.1008082 L86.9639971,22.6130786 Z" id="Shape"></path>
            <path d="M122.481411,36.0052902 C120.643742,36.0052902 118.980896,35.6881705 117.492873,35.0539309 C116.004849,34.4196914 114.732305,33.537448 113.675239,32.4072006 C112.618173,31.2769532 111.805045,29.931227 111.235856,28.370022 C110.666667,26.808817 110.382072,25.1012491 110.382072,23.2473181 L110.382072,22.2227774 C110.382072,20.0761205 110.703257,18.1571394 111.345628,16.4658339 C111.987999,14.7745285 112.845849,13.3515552 113.919177,12.196914 C114.992506,11.0422728 116.220328,10.1600294 117.602645,9.55018369 C118.984962,8.94033799 120.424198,8.63541514 121.920353,8.63541514 C123.806809,8.63541514 125.433064,8.96473181 126.799118,9.62336517 C128.165173,10.2819985 129.291354,11.1886358 130.177663,12.343277 C131.063973,13.4979182 131.71854,14.8639726 132.141367,16.4414401 C132.564193,18.0189077 132.775606,19.7346069 132.775606,21.5885378 L132.775606,23.6132256 L114.89493,23.6132256 C114.927455,24.832917 115.126672,25.9712956 115.492579,27.0283615 C115.858486,28.0854274 116.378888,29.0042616 117.053784,29.7848641 C117.72868,30.5654666 118.541807,31.1834435 119.493167,31.638795 C120.444526,32.0941465 121.52192,32.3218222 122.725349,32.3218222 C124.319079,32.3218222 125.668871,31.9965711 126.774724,31.3460691 C127.880578,30.695567 128.8482,29.8336517 129.67759,28.7603233 L132.434093,30.9069802 C132.011266,31.5574822 131.498996,32.1876561 130.897281,32.7975018 C130.295567,33.4073475 129.592212,33.952143 128.787215,34.4318883 C127.982219,34.9116336 127.059319,35.2938036 126.018516,35.5783982 C124.977712,35.8629929 123.798677,36.0052902 122.481411,36.0052902 Z M121.920353,12.343277 C121.00965,12.343277 120.172128,12.5099682 119.407788,12.8433505 C118.643448,13.1767328 117.960421,13.6605437 117.358707,14.2947832 C116.756992,14.9290228 116.256919,15.7177566 115.858486,16.6609846 C115.460054,17.6042126 115.187656,18.6856723 115.041293,19.9053637 L128.262748,19.9053637 L128.262748,19.5638501 C128.21396,18.6856723 128.071663,17.8156258 127.835856,16.9537105 C127.600049,16.0917952 127.234142,15.319324 126.738134,14.6362968 C126.242126,13.9532697 125.603821,13.4003429 124.823218,12.9775165 C124.042616,12.5546902 123.074994,12.343277 121.920353,12.343277 Z" id="Shape"></path>
            <polygon id="Path" points="166 35.5174137 161.291991 35.5174137 143.411315 8.14753857 143.411315 35.5174137 138.703306 35.5174137 138.703306 0 143.411315 0 161.340779 27.4918442 161.340779 0 166 0"></polygon>
        </g>
    </g>
</svg>