<?xml version="1.0" encoding="UTF-8"?>
<svg width="225px" height="225px" viewBox="0 0 225 225" version="1.1" xmlns="http://www.w3.org/2000/svg" xmlns:xlink="http://www.w3.org/1999/xlink">
    <title>imagen-white-logo</title>
    <g id="imagen-white-logo" stroke="none" stroke-width="1" fill="none" fill-rule="evenodd">
        <g id="Mark" transform="translate(22, 22)" fill="#FFFFFF">
            <path d="M94.9708629,177.510672 L94.9716172,179.487439 C94.4751187,179.495694 93.9776198,179.499838 93.4791529,179.499838 C91.4737237,179.499838 89.4839607,179.432763 87.511985,179.300734 L87.5124175,177.510672 L94.9708629,177.510672 Z M104.418227,177.510672 L104.419077,178.826552 C101.962636,179.131117 99.4748064,179.334457 96.9598912,179.432268 L96.9597817,177.510672 L104.418227,177.510672 Z M85.5234988,177.510672 L85.5233875,179.145108 C83.0052011,178.919482 80.5175644,178.58779 78.0649775,178.154532 L78.0650534,177.510672 L85.5234988,177.510672 Z M106.407368,178.556988 L106.407146,177.510672 L112.165142,177.512123 C110.267936,177.922303 108.347955,178.271314 106.407368,178.556988 Z M76.0761346,177.510672 L76.0760269,177.779442 C75.645595,177.693107 75.2162981,177.603631 74.7881611,177.511041 L76.0761346,177.510672 Z M123.312955,168.063326 L123.314403,174.313955 C122.126145,174.742065 120.926022,175.145331 119.714661,175.523126 L115.85451,175.521757 L115.85451,168.063326 L123.312955,168.063326 Z M113.865591,168.063326 L113.865591,175.521757 L106.407146,175.521757 L106.407146,168.063326 L113.865591,168.063326 Z M104.418227,168.063326 L104.418227,175.521757 L96.9597817,175.521757 L96.9597817,168.063326 L104.418227,168.063326 Z M94.9708629,168.063326 L94.9708629,175.521757 L87.5124175,175.521757 L87.5124175,168.063326 L94.9708629,168.063326 Z M85.5234988,168.063326 L85.5234988,175.521757 L78.0650534,175.521757 L78.0650534,168.063326 L85.5234988,168.063326 Z M76.0761346,168.063326 L76.0761346,175.521757 L68.6176892,175.521757 L68.6176892,168.063326 L76.0761346,168.063326 Z M66.6287705,168.063326 L66.628293,175.328714 C64.0902789,174.516537 61.6023805,173.592306 59.1704178,172.561843 L59.1703251,168.063326 L66.6287705,168.063326 Z M132.760319,168.063326 L132.760447,170.268873 C130.336205,171.480016 127.848235,172.582552 125.302914,173.570105 L125.301874,168.063326 L132.760319,168.063326 Z M57.1814063,168.063326 L57.1814477,171.689809 C54.7474522,170.586457 52.3725896,169.375558 50.0629244,168.063177 L57.1814063,168.063326 Z M134.750493,169.242707 L134.749238,168.063326 L136.890918,168.065713 C136.1835,168.467622 135.469967,168.860011 134.750493,169.242707 Z M142.207684,158.61598 L142.208194,164.789833 C141.551682,165.22715 140.888961,165.655881 140.220191,166.075867 L134.749238,166.074411 L134.749238,158.61598 L142.207684,158.61598 Z M132.760319,158.61598 L132.760319,166.074411 L125.301874,166.074411 L125.301874,158.61598 L132.760319,158.61598 Z M123.312955,158.61598 L123.312955,166.074411 L115.85451,166.074411 L115.85451,158.61598 L123.312955,158.61598 Z M113.865591,158.61598 L113.865591,166.074411 L106.407146,166.074411 L106.407146,158.61598 L113.865591,158.61598 Z M104.418227,158.61598 L104.418227,166.074411 L96.9597817,166.074411 L96.9597817,158.61598 L104.418227,158.61598 Z M94.9708629,158.61598 L94.9708629,166.074411 L87.5124175,166.074411 L87.5124175,158.61598 L94.9708629,158.61598 Z M85.5234988,158.61598 L85.5234988,166.074411 L78.0650534,166.074411 L78.0650534,158.61598 L85.5234988,158.61598 Z M76.0761346,158.61598 L76.0761346,166.074411 L68.6176892,166.074411 L68.6176892,158.61598 L76.0761346,158.61598 Z M66.6287705,158.61598 L66.6287705,166.074411 L59.1703251,166.074411 L59.1703251,158.61598 L66.6287705,158.61598 Z M57.1814063,158.61598 L57.1814063,166.074411 L49.7229609,166.074411 L49.7229609,158.61598 L57.1814063,158.61598 Z M47.7340422,158.61598 L47.7340422,166.074411 L47.3068665,166.074785 C44.8384843,163.919107 42.4905267,161.628996 40.2744122,159.215872 L40.2755968,158.61598 L47.7340422,158.61598 Z M144.197525,163.425052 L144.196602,158.61598 L150.399404,158.617698 C148.406455,160.309279 146.337199,161.913694 144.197525,163.425052 Z M151.655048,149.168635 L151.655048,156.627066 L144.196602,156.627066 L144.196602,149.168635 L151.655048,149.168635 Z M142.207684,149.168635 L142.207684,156.627066 L134.749238,156.627066 L134.749238,149.168635 L142.207684,149.168635 Z M132.760319,149.168635 L132.760319,156.627066 L125.301874,156.627066 L125.301874,149.168635 L132.760319,149.168635 Z M123.312955,149.168635 L123.312955,156.627066 L115.85451,156.627066 L115.85451,149.168635 L123.312955,149.168635 Z M113.865591,149.168635 L113.865591,156.627066 L106.407146,156.627066 L106.407146,149.168635 L113.865591,149.168635 Z M104.418227,149.168635 L104.418227,156.627066 L96.9597817,156.627066 L96.9597817,149.168635 L104.418227,149.168635 Z M94.9708629,149.168635 L94.9708629,156.627066 L87.5124175,156.627066 L87.5124175,149.168635 L94.9708629,149.168635 Z M85.5234988,149.168635 L85.5234988,156.627066 L78.0650534,156.627066 L78.0650534,149.168635 L85.5234988,149.168635 Z M76.0761346,149.168635 L76.0761346,156.627066 L68.6176892,156.627066 L68.6176892,149.168635 L76.0761346,149.168635 Z M66.6287705,149.168635 L66.6287705,156.627066 L59.1703251,156.627066 L59.1703251,149.168635 L66.6287705,149.168635 Z M57.1814063,149.168635 L57.1814063,156.627066 L49.7229609,156.627066 L49.7229609,149.168635 L57.1814063,149.168635 Z M47.7340422,149.168635 L47.7340422,156.627066 L40.2755968,156.627066 L40.2755968,149.168635 L47.7340422,149.168635 Z M38.286678,149.168635 L38.286678,156.627066 L37.9878607,156.627281 C35.9651269,154.246053 34.0658283,151.756702 32.299854,149.169115 L38.286678,149.168635 Z M153.645108,155.722646 L153.643967,149.168635 L159.954767,149.169731 C157.964972,151.460994 155.858678,153.648373 153.645108,155.722646 Z M161.102412,139.721289 L161.102412,147.17972 L153.643967,147.17972 L153.643967,139.721289 L161.102412,139.721289 Z M151.655048,139.721289 L151.655048,147.17972 L144.196602,147.17972 L144.196602,139.721289 L151.655048,139.721289 Z M142.207684,139.721289 L142.207684,147.17972 L134.749238,147.17972 L134.749238,139.721289 L142.207684,139.721289 Z M132.760319,139.721289 L132.760319,147.17972 L125.301874,147.17972 L125.301874,139.721289 L132.760319,139.721289 Z M123.312955,139.721289 L123.312955,147.17972 L115.85451,147.17972 L115.85451,139.721289 L123.312955,139.721289 Z M113.865591,139.721289 L113.865591,147.17972 L106.407146,147.17972 L106.407146,139.721289 L113.865591,139.721289 Z M104.418227,139.721289 L104.418227,147.17972 L96.9597817,147.17972 L96.9597817,139.721289 L104.418227,139.721289 Z M94.9708629,139.721289 L94.9708629,147.17972 L87.5124175,147.17972 L87.5124175,139.721289 L94.9708629,139.721289 Z M85.5234988,139.721289 L85.5234988,147.17972 L78.0650534,147.17972 L78.0650534,139.721289 L85.5234988,139.721289 Z M76.0761346,139.721289 L76.0761346,147.17972 L68.6176892,147.17972 L68.6176892,139.721289 L76.0761346,139.721289 Z M66.6287705,139.721289 L66.6287705,147.17972 L59.1703251,147.17972 L59.1703251,139.721289 L66.6287705,139.721289 Z M57.1814063,139.721289 L57.1814063,147.17972 L49.7229609,147.17972 L49.7229609,139.721289 L57.1814063,139.721289 Z M47.7340422,139.721289 L47.7340422,147.17972 L40.2755968,147.17972 L40.2755968,139.721289 L47.7340422,139.721289 Z M38.286678,139.721289 L38.286678,147.17972 L30.9810892,147.179985 C30.9297876,147.100302 30.87861,147.020533 30.8275567,146.940676 L30.8282326,139.721289 L38.286678,139.721289 Z M163.092465,145.345759 L163.091331,139.721289 L167.107411,139.722276 C165.841491,141.650837 164.501839,143.526668 163.092465,145.345759 Z M28.8393139,139.721289 L28.8383919,143.676488 C28.0853906,142.378717 27.36433,141.060111 26.6762861,139.721748 L28.8393139,139.721289 Z M170.549776,130.273943 L170.551515,134.015557 C169.855842,135.273698 169.130258,136.512996 168.375721,137.732492 L163.091331,137.732374 L163.091331,130.273943 L170.549776,130.273943 Z M161.102412,130.273943 L161.102412,137.732374 L153.643967,137.732374 L153.643967,130.273943 L161.102412,130.273943 Z M151.655048,130.273943 L151.655048,137.732374 L144.196602,137.732374 L144.196602,130.273943 L151.655048,130.273943 Z M142.207684,130.273943 L142.207684,137.732374 L134.749238,137.732374 L134.749238,130.273943 L142.207684,130.273943 Z M132.760319,130.273943 L132.760319,137.732374 L125.301874,137.732374 L125.301874,130.273943 L132.760319,130.273943 Z M123.312955,130.273943 L123.312955,137.732374 L115.85451,137.732374 L115.85451,130.273943 L123.312955,130.273943 Z M113.865591,130.273943 L113.865591,137.732374 L106.407146,137.732374 L106.407146,130.273943 L113.865591,130.273943 Z M104.418227,130.273943 L104.418227,137.732374 L96.9597817,137.732374 L96.9597817,130.273943 L104.418227,130.273943 Z M94.9708629,130.273943 L94.9708629,137.732374 L87.5124175,137.732374 L87.5124175,130.273943 L94.9708629,130.273943 Z M85.5234988,130.273943 L85.5234988,137.732374 L78.0650534,137.732374 L78.0650534,130.273943 L85.5234988,130.273943 Z M76.0761346,130.273943 L76.0761346,137.732374 L68.6176892,137.732374 L68.6176892,130.273943 L76.0761346,130.273943 Z M66.6287705,130.273943 L66.6287705,137.732374 L59.1703251,137.732374 L59.1703251,130.273943 L66.6287705,130.273943 Z M57.1814063,130.273943 L57.1814063,137.732374 L49.7229609,137.732374 L49.7229609,130.273943 L57.1814063,130.273943 Z M47.7340422,130.273943 L47.7340422,137.732374 L40.2755968,137.732374 L40.2755968,130.273943 L47.7340422,130.273943 Z M38.286678,130.273943 L38.286678,137.732374 L30.8282326,137.732374 L30.8282326,130.273943 L38.286678,130.273943 Z M28.8393139,130.273943 L28.8393139,137.732374 L25.6852567,137.732971 C24.5138039,135.306192 23.4495515,132.817965 22.498646,130.274434 L28.8393139,130.273943 Z M173.451394,128.285358 L172.538695,128.285028 L172.538695,120.826598 L176.480894,120.82672 C175.582486,123.368554 174.570625,125.856795 173.451394,128.285358 Z M170.549776,120.826598 L170.549776,128.285028 L163.091331,128.285028 L163.091331,120.826598 L170.549776,120.826598 Z M161.102412,120.826598 L161.102412,128.285028 L153.643967,128.285028 L153.643967,120.826598 L161.102412,120.826598 Z M151.655048,120.826598 L151.655048,128.285028 L144.196602,128.285028 L144.196602,120.826598 L151.655048,120.826598 Z M142.207684,120.826598 L142.207684,128.285028 L134.749238,128.285028 L134.749238,120.826598 L142.207684,120.826598 Z M132.760319,120.826598 L132.760319,128.285028 L125.301874,128.285028 L125.301874,120.826598 L132.760319,120.826598 Z M123.312955,120.826598 L123.312955,128.285028 L115.85451,128.285028 L115.85451,120.826598 L123.312955,120.826598 Z M113.865591,120.826598 L113.865591,128.285028 L106.407146,128.285028 L106.407146,120.826598 L113.865591,120.826598 Z M104.418227,120.826598 L104.418227,128.285028 L96.9597817,128.285028 L96.9597817,120.826598 L104.418227,120.826598 Z M94.9708629,120.826598 L94.9708629,128.285028 L87.5124175,128.285028 L87.5124175,120.826598 L94.9708629,120.826598 Z M85.5234988,120.826598 L85.5234988,128.285028 L78.0650534,128.285028 L78.0650534,120.826598 L85.5234988,120.826598 Z M76.0761346,120.826598 L76.0761346,128.285028 L68.6176892,128.285028 L68.6176892,120.826598 L76.0761346,120.826598 Z M66.6287705,120.826598 L66.6287705,128.285028 L59.1703251,128.285028 L59.1703251,120.826598 L66.6287705,120.826598 Z M57.1814063,120.826598 L57.1814063,128.285028 L49.7229609,128.285028 L49.7229609,120.826598 L57.1814063,120.826598 Z M47.7340422,120.826598 L47.7340422,128.285028 L40.2755968,128.285028 L40.2755968,120.826598 L47.7340422,120.826598 Z M38.286678,120.826598 L38.286678,128.285028 L30.8282326,128.285028 L30.8282326,120.826598 L38.286678,120.826598 Z M28.8393139,120.826598 L28.8393139,128.285028 L21.7822944,128.285891 C21.645753,127.892107 21.5119063,127.497063 21.3807764,127.100782 L21.3808685,120.826598 L28.8393139,120.826598 Z M177.15698,118.838096 L172.538695,118.837683 L172.538695,111.379252 L179.232109,111.379169 C178.647722,113.908955 177.954273,116.397004 177.15698,118.838096 Z M170.549776,111.379252 L170.549776,118.837683 L163.091331,118.837683 L163.091331,111.379252 L170.549776,111.379252 Z M161.102412,111.379252 L161.102412,118.837683 L153.643967,118.837683 L153.643967,111.379252 L161.102412,111.379252 Z M151.655048,111.379252 L151.655048,118.837683 L144.196602,118.837683 L144.196602,111.379252 L151.655048,111.379252 Z M142.207684,111.379252 L142.207684,118.837683 L134.749238,118.837683 L134.749238,111.379252 L142.207684,111.379252 Z M132.760319,111.379252 L132.760319,118.837683 L125.301874,118.837683 L125.301874,111.379252 L132.760319,111.379252 Z M123.312955,111.379252 L123.312955,118.837683 L115.85451,118.837683 L115.85451,111.379252 L123.312955,111.379252 Z M113.865591,111.379252 L113.865591,118.837683 L106.407146,118.837683 L106.407146,111.379252 L113.865591,111.379252 Z M104.418227,111.379252 L104.418227,118.837683 L96.9597817,118.837683 L96.9597817,111.379252 L104.418227,111.379252 Z M94.9708629,111.379252 L94.9708629,118.837683 L87.5124175,118.837683 L87.5124175,111.379252 L94.9708629,111.379252 Z M85.5234988,111.379252 L85.5234988,118.837683 L78.0650534,118.837683 L78.0650534,111.379252 L85.5234988,111.379252 Z M76.0761346,111.379252 L76.0761346,118.837683 L68.6176892,118.837683 L68.6176892,111.379252 L76.0761346,111.379252 Z M66.6287705,111.379252 L66.6287705,118.837683 L59.1703251,118.837683 L59.1703251,111.379252 L66.6287705,111.379252 Z M57.1814063,111.379252 L57.1814063,118.837683 L49.7229609,118.837683 L49.7229609,111.379252 L57.1814063,111.379252 Z M47.7340422,111.379252 L47.7340422,118.837683 L40.2755968,118.837683 L40.2755968,111.379252 L47.7340422,111.379252 Z M38.286678,111.379252 L38.286678,118.837683 L30.8282326,118.837683 L30.8282326,111.379252 L38.286678,111.379252 Z M28.8393139,111.379252 L28.8393139,118.837683 L21.3808685,118.837683 L21.3808685,111.379252 L28.8393139,111.379252 Z M19.3919497,111.379252 L19.3919497,118.837683 L19.0862839,118.837547 C18.5330211,116.388341 18.0810253,113.900747 17.7349282,111.379394 L19.3919497,111.379252 Z M179.99714,101.931906 L180.000227,107.694237 C179.894562,108.261987 179.783446,108.827821 179.666936,109.391683 L172.538695,109.390337 L172.538695,101.931906 L179.99714,101.931906 Z M170.549776,101.931906 L170.549776,109.390337 L163.091331,109.390337 L163.091331,101.931906 L170.549776,101.931906 Z M161.102412,101.931906 L161.102412,109.390337 L153.643967,109.390337 L153.643967,101.931906 L161.102412,101.931906 Z M151.655048,101.931906 L151.655048,109.390337 L144.196602,109.390337 L144.196602,101.931906 L151.655048,101.931906 Z M142.207684,101.931906 L142.207684,109.390337 L134.749238,109.390337 L134.749238,101.931906 L142.207684,101.931906 Z M132.760319,101.931906 L132.760319,109.390337 L125.301874,109.390337 L125.301874,101.931906 L132.760319,101.931906 Z M123.312955,101.931906 L123.312955,109.390337 L115.85451,109.390337 L115.85451,101.931906 L123.312955,101.931906 Z M113.865591,101.931906 L113.865591,109.390337 L106.407146,109.390337 L106.407146,101.931906 L113.865591,101.931906 Z M104.418227,101.931906 L104.418227,109.390337 L96.9597817,109.390337 L96.9597817,101.931906 L104.418227,101.931906 Z M94.9708629,101.931906 L94.9708629,109.390337 L87.5124175,109.390337 L87.5124175,101.931906 L94.9708629,101.931906 Z M85.5234988,101.931906 L85.5234988,109.390337 L78.0650534,109.390337 L78.0650534,101.931906 L85.5234988,101.931906 Z M76.0761346,101.931906 L76.0761346,109.390337 L68.6176892,109.390337 L68.6176892,101.931906 L76.0761346,101.931906 Z M66.6287705,101.931906 L66.6287705,109.390337 L59.1703251,109.390337 L59.1703251,101.931906 L66.6287705,101.931906 Z M57.1814063,101.931906 L57.1814063,109.390337 L49.7229609,109.390337 L49.7229609,101.931906 L57.1814063,101.931906 Z M47.7340422,101.931906 L47.7340422,109.390337 L40.2755968,109.390337 L40.2755968,101.931906 L47.7340422,101.931906 Z M38.286678,101.931906 L38.286678,109.390337 L30.8282326,109.390337 L30.8282326,101.931906 L38.286678,101.931906 Z M28.8393139,101.931906 L28.8393139,109.390337 L21.3808685,109.390337 L21.3808685,101.931906 L28.8393139,101.931906 Z M19.3919497,101.931906 L19.3919497,109.390337 L17.4847353,109.39029 C17.2038272,106.933489 17.0232299,104.44621 16.9471412,101.932652 L19.3919497,101.931906 Z M179.99714,92.4845603 L179.99714,99.9429911 L172.538695,99.9429911 L172.538695,92.4845603 L179.99714,92.4845603 Z M170.549776,92.4845603 L170.549776,99.9429911 L163.091331,99.9429911 L163.091331,92.4845603 L170.549776,92.4845603 Z M161.102412,92.4845603 L161.102412,99.9429911 L153.643967,99.9429911 L153.643967,92.4845603 L161.102412,92.4845603 Z M151.655048,92.4845603 L151.655048,99.9429911 L144.196602,99.9429911 L144.196602,92.4845603 L151.655048,92.4845603 Z M142.207684,92.4845603 L142.207684,99.9429911 L134.749238,99.9429911 L134.749238,92.4845603 L142.207684,92.4845603 Z M132.760319,92.4845603 L132.760319,99.9429911 L125.301874,99.9429911 L125.301874,92.4845603 L132.760319,92.4845603 Z M123.312955,92.4845603 L123.312955,99.9429911 L115.85451,99.9429911 L115.85451,92.4845603 L123.312955,92.4845603 Z M113.865591,92.4845603 L113.865591,99.9429911 L106.407146,99.9429911 L106.407146,92.4845603 L113.865591,92.4845603 Z M104.418227,92.4845603 L104.418227,99.9429911 L96.9597817,99.9429911 L96.9597817,92.4845603 L104.418227,92.4845603 Z M94.9708629,92.4845603 L94.9708629,99.9429911 L87.5124175,99.9429911 L87.5124175,92.4845603 L94.9708629,92.4845603 Z M85.5234988,92.4845603 L85.5234988,99.9429911 L78.0650534,99.9429911 L78.0650534,92.4845603 L85.5234988,92.4845603 Z M76.0761346,92.4845603 L76.0761346,99.9429911 L68.6176892,99.9429911 L68.6176892,92.4845603 L76.0761346,92.4845603 Z M66.6287705,92.4845603 L66.6287705,99.9429911 L59.1703251,99.9429911 L59.1703251,92.4845603 L66.6287705,92.4845603 Z M57.1814063,92.4845603 L57.1814063,99.9429911 L49.7229609,99.9429911 L49.7229609,92.4845603 L57.1814063,92.4845603 Z M47.7340422,92.4845603 L47.7340422,99.9429911 L40.2755968,99.9429911 L40.2755968,92.4845603 L47.7340422,92.4845603 Z M38.286678,92.4845603 L38.286678,99.9429911 L30.8282326,99.9429911 L30.8282326,92.4845603 L38.286678,92.4845603 Z M28.8393139,92.4845603 L28.8393139,99.9429911 L21.3808685,99.9429911 L21.3808685,92.4845603 L28.8393139,92.4845603 Z M19.3919497,92.4845603 L19.3919497,99.9429911 L16.9088607,99.9429842 C16.9068172,99.6946606 16.9057934,99.4460939 16.9057934,99.1972881 C16.9057934,96.9386426 16.9901613,94.6997022 17.1559175,92.4834465 L19.3919497,92.4845603 Z M170.549776,83.0372145 L170.549776,90.4956454 L163.091331,90.4956454 L163.091331,83.0372145 L170.549776,83.0372145 Z M161.102412,83.0372145 L161.102412,90.4956454 L153.643967,90.4956454 L153.643967,83.0372145 L161.102412,83.0372145 Z M151.655048,83.0372145 L151.655048,90.4956454 L144.196602,90.4956454 L144.196602,83.0372145 L151.655048,83.0372145 Z M142.207684,83.0372145 L142.207684,90.4956454 L134.749238,90.4956454 L134.749238,83.0372145 L142.207684,83.0372145 Z M132.760319,83.0372145 L132.760319,90.4956454 L125.301874,90.4956454 L125.301874,83.0372145 L132.760319,83.0372145 Z M123.312955,83.0372145 L123.312955,90.4956454 L115.85451,90.4956454 L115.85451,83.0372145 L123.312955,83.0372145 Z M113.865591,83.0372145 L113.865591,90.4956454 L106.407146,90.4956454 L106.407146,83.0372145 L113.865591,83.0372145 Z M104.418227,83.0372145 L104.418227,90.4956454 L96.9597817,90.4956454 L96.9597817,83.0372145 L104.418227,83.0372145 Z M94.9708629,83.0372145 L94.9708629,90.4956454 L87.5124175,90.4956454 L87.5124175,83.0372145 L94.9708629,83.0372145 Z M85.5234988,83.0372145 L85.5234988,90.4956454 L78.0650534,90.4956454 L78.0650534,83.0372145 L85.5234988,83.0372145 Z M76.0761346,83.0372145 L76.0761346,90.4956454 L68.6176892,90.4956454 L68.6176892,83.0372145 L76.0761346,83.0372145 Z M66.6287705,83.0372145 L66.6287705,90.4956454 L59.1703251,90.4956454 L59.1703251,83.0372145 L66.6287705,83.0372145 Z M57.1814063,83.0372145 L57.1814063,90.4956454 L49.7229609,90.4956454 L49.7229609,83.0372145 L57.1814063,83.0372145 Z M47.7340422,83.0372145 L47.7340422,90.4956454 L40.2755968,90.4956454 L40.2755968,83.0372145 L47.7340422,83.0372145 Z M38.286678,83.0372145 L38.286678,90.4956454 L30.8282326,90.4956454 L30.8282326,83.0372145 L38.286678,83.0372145 Z M28.8393139,83.0372145 L28.8393139,90.4956454 L21.3808685,90.4956454 L21.3808685,83.0372145 L28.8393139,83.0372145 Z M179.99714,83.0372145 L179.99714,90.4956454 L172.538695,90.4956454 L172.538695,83.0372145 L179.99714,83.0372145 Z M19.3919497,83.0372145 L19.3919497,90.4956454 L17.3269198,90.495769 C17.5719948,87.977143 17.9223412,85.4893526 18.3735028,83.0368539 L19.3919497,83.0372145 Z M179.997931,75.2739672 L179.99714,81.0482996 L172.538695,81.0482996 L172.538695,73.5898688 L179.667135,73.5898365 C179.782729,74.1492901 179.893013,74.7106853 179.997931,75.2739672 Z M170.549776,73.5898688 L170.549776,81.0482996 L163.091331,81.0482996 L163.091331,73.5898688 L170.549776,73.5898688 Z M161.102412,73.5898688 L161.102412,81.0482996 L153.643967,81.0482996 L153.643967,73.5898688 L161.102412,73.5898688 Z M151.655048,73.5898688 L151.655048,81.0482996 L144.196602,81.0482996 L144.196602,73.5898688 L151.655048,73.5898688 Z M142.207684,73.5898688 L142.207684,81.0482996 L134.749238,81.0482996 L134.749238,73.5898688 L142.207684,73.5898688 Z M132.760319,73.5898688 L132.760319,81.0482996 L125.301874,81.0482996 L125.301874,73.5898688 L132.760319,73.5898688 Z M123.312955,73.5898688 L123.312955,81.0482996 L115.85451,81.0482996 L115.85451,73.5898688 L123.312955,73.5898688 Z M113.865591,73.5898688 L113.865591,81.0482996 L106.407146,81.0482996 L106.407146,73.5898688 L113.865591,73.5898688 Z M104.418227,73.5898688 L104.418227,81.0482996 L96.9597817,81.0482996 L96.9597817,73.5898688 L104.418227,73.5898688 Z M94.9708629,73.5898688 L94.9708629,81.0482996 L87.5124175,81.0482996 L87.5124175,73.5898688 L94.9708629,73.5898688 Z M85.5234988,73.5898688 L85.5234988,81.0482996 L78.0650534,81.0482996 L78.0650534,73.5898688 L85.5234988,73.5898688 Z M76.0761346,73.5898688 L76.0761346,81.0482996 L68.6176892,81.0482996 L68.6176892,73.5898688 L76.0761346,73.5898688 Z M66.6287705,73.5898688 L66.6287705,81.0482996 L59.1703251,81.0482996 L59.1703251,73.5898688 L66.6287705,73.5898688 Z M57.1814063,73.5898688 L57.1814063,81.0482996 L49.7229609,81.0482996 L49.7229609,73.5898688 L57.1814063,73.5898688 Z M47.7340422,73.5898688 L47.7340422,81.0482996 L40.2755968,81.0482996 L40.2755968,73.5898688 L47.7340422,73.5898688 Z M38.286678,73.5898688 L38.286678,81.0482996 L30.8282326,81.0482996 L30.8282326,73.5898688 L38.286678,73.5898688 Z M28.8393139,73.5898688 L28.8393139,81.0482996 L21.3808685,81.0482996 L21.3808685,73.5898688 L28.8393139,73.5898688 Z M19.3902324,78.25737 L19.3919497,81.0482996 L18.7630776,81.0476737 C18.9574851,80.1120906 19.1666211,79.1819049 19.3902324,78.25737 Z M179.231961,71.6007693 L172.538695,71.6009539 L172.538695,64.142523 L177.156791,64.1420164 C177.954098,66.5830499 178.647561,69.0710406 179.231961,71.6007693 Z M170.549776,64.142523 L170.549776,71.6009539 L163.091331,71.6009539 L163.091331,64.142523 L170.549776,64.142523 Z M161.102412,64.142523 L161.102412,71.6009539 L153.643967,71.6009539 L153.643967,64.142523 L161.102412,64.142523 Z M151.655048,64.142523 L151.655048,71.6009539 L144.196602,71.6009539 L144.196602,64.142523 L151.655048,64.142523 Z M142.207684,64.142523 L142.207684,71.6009539 L134.749238,71.6009539 L134.749238,64.142523 L142.207684,64.142523 Z M132.760319,64.142523 L132.760319,71.6009539 L125.301874,71.6009539 L125.301874,64.142523 L132.760319,64.142523 Z M123.312955,64.142523 L123.312955,71.6009539 L115.85451,71.6009539 L115.85451,64.142523 L123.312955,64.142523 Z M113.865591,64.142523 L113.865591,71.6009539 L106.407146,71.6009539 L106.407146,64.142523 L113.865591,64.142523 Z M104.418227,64.142523 L104.418227,71.6009539 L96.9597817,71.6009539 L96.9597817,64.142523 L104.418227,64.142523 Z M94.9708629,64.142523 L94.9708629,71.6009539 L87.5124175,71.6009539 L87.5124175,64.142523 L94.9708629,64.142523 Z M85.5234988,64.142523 L85.5234988,71.6009539 L78.0650534,71.6009539 L78.0650534,64.142523 L85.5234988,64.142523 Z M76.0761346,64.142523 L76.0761346,71.6009539 L68.6176892,71.6009539 L68.6176892,64.142523 L76.0761346,64.142523 Z M66.6287705,64.142523 L66.6287705,71.6009539 L59.1703251,71.6009539 L59.1703251,64.142523 L66.6287705,64.142523 Z M57.1814063,64.142523 L57.1814063,71.6009539 L49.7229609,71.6009539 L49.7229609,64.142523 L57.1814063,64.142523 Z M47.7340422,64.142523 L47.7340422,71.6009539 L40.2755968,71.6009539 L40.2755968,64.142523 L47.7340422,64.142523 Z M38.286678,64.142523 L38.286678,71.6009539 L30.8282326,71.6009539 L30.8282326,64.142523 L38.286678,64.142523 Z M28.8393139,64.142523 L28.8393139,71.6009539 L21.3808685,71.6009539 L21.3806734,71.29415 C22.1856095,68.8615735 23.0929203,66.475617 24.0975019,64.1413844 L28.8393139,64.142523 Z M176.480625,62.1532481 L172.538695,62.1536081 L172.538695,54.6951773 L173.451202,54.6951317 C174.570401,57.1235243 175.582235,59.6115912 176.480625,62.1532481 Z M170.549776,54.6951773 L170.549776,62.1536081 L163.091331,62.1536081 L163.091331,54.6951773 L170.549776,54.6951773 Z M161.102412,54.6951773 L161.102412,62.1536081 L153.643967,62.1536081 L153.643967,54.6951773 L161.102412,54.6951773 Z M151.655048,54.6951773 L151.655048,62.1536081 L144.196602,62.1536081 L144.196602,54.6951773 L151.655048,54.6951773 Z M142.207684,54.6951773 L142.207684,62.1536081 L134.749238,62.1536081 L134.749238,54.6951773 L142.207684,54.6951773 Z M132.760319,54.6951773 L132.760319,62.1536081 L125.301874,62.1536081 L125.301874,54.6951773 L132.760319,54.6951773 Z M123.312955,54.6951773 L123.312955,62.1536081 L115.85451,62.1536081 L115.85451,54.6951773 L123.312955,54.6951773 Z M113.865591,54.6951773 L113.865591,62.1536081 L106.407146,62.1536081 L106.407146,54.6951773 L113.865591,54.6951773 Z M104.418227,54.6951773 L104.418227,62.1536081 L96.9597817,62.1536081 L96.9597817,54.6951773 L104.418227,54.6951773 Z M94.9708629,54.6951773 L94.9708629,62.1536081 L87.5124175,62.1536081 L87.5124175,54.6951773 L94.9708629,54.6951773 Z M85.5234988,54.6951773 L85.5234988,62.1536081 L78.0650534,62.1536081 L78.0650534,54.6951773 L85.5234988,54.6951773 Z M76.0761346,54.6951773 L76.0761346,62.1536081 L68.6176892,62.1536081 L68.6176892,54.6951773 L76.0761346,54.6951773 Z M66.6287705,54.6951773 L66.6287705,62.1536081 L59.1703251,62.1536081 L59.1703251,54.6951773 L66.6287705,54.6951773 Z M57.1814063,54.6951773 L57.1814063,62.1536081 L49.7229609,62.1536081 L49.7229609,54.6951773 L57.1814063,54.6951773 Z M47.7340422,54.6951773 L47.7340422,62.1536081 L40.2755968,62.1536081 L40.2755968,54.6951773 L47.7340422,54.6951773 Z M38.286678,54.6951773 L38.286678,62.1536081 L30.8282326,62.1536081 L30.8282326,54.6951773 L38.286678,54.6951773 Z M28.8388636,54.7174387 L28.8393139,62.1536081 L24.9821859,62.1535919 C26.1530753,59.6076571 27.4409292,57.1266447 28.8388636,54.7174387 Z M170.549671,48.9621903 L170.549776,52.7062624 L163.091331,52.7062624 L163.091331,45.2478316 L168.374475,45.2467117 C169.128793,46.4657336 169.854178,47.7045459 170.549671,48.9621903 Z M161.102412,45.2478316 L161.102412,52.7062624 L153.643967,52.7062624 L153.643967,45.2478316 L161.102412,45.2478316 Z M151.655048,45.2478316 L151.655048,52.7062624 L144.196602,52.7062624 L144.196602,45.2478316 L151.655048,45.2478316 Z M142.207684,45.2478316 L142.207684,52.7062624 L134.749238,52.7062624 L134.749238,45.2478316 L142.207684,45.2478316 Z M132.760319,45.2478316 L132.760319,52.7062624 L125.301874,52.7062624 L125.301874,45.2478316 L132.760319,45.2478316 Z M123.312955,45.2478316 L123.312955,52.7062624 L115.85451,52.7062624 L115.85451,45.2478316 L123.312955,45.2478316 Z M113.865591,45.2478316 L113.865591,52.7062624 L106.407146,52.7062624 L106.407146,45.2478316 L113.865591,45.2478316 Z M104.418227,45.2478316 L104.418227,52.7062624 L96.9597817,52.7062624 L96.9597817,45.2478316 L104.418227,45.2478316 Z M94.9708629,45.2478316 L94.9708629,52.7062624 L87.5124175,52.7062624 L87.5124175,45.2478316 L94.9708629,45.2478316 Z M85.5234988,45.2478316 L85.5234988,52.7062624 L78.0650534,52.7062624 L78.0650534,45.2478316 L85.5234988,45.2478316 Z M76.0761346,45.2478316 L76.0761346,52.7062624 L68.6176892,52.7062624 L68.6176892,45.2478316 L76.0761346,45.2478316 Z M66.6287705,45.2478316 L66.6287705,52.7062624 L59.1703251,52.7062624 L59.1703251,45.2478316 L66.6287705,45.2478316 Z M57.1814063,45.2478316 L57.1814063,52.7062624 L49.7229609,52.7062624 L49.7229609,45.2478316 L57.1814063,45.2478316 Z M47.7340422,45.2478316 L47.7340422,52.7062624 L40.2755968,52.7062624 L40.2755968,45.2478316 L47.7340422,45.2478316 Z M38.286678,45.2478316 L38.286678,52.7062624 L30.8282326,52.7062624 L30.8273972,51.4543516 C32.1913646,49.320867 33.6440671,47.2495862 35.1803005,45.2457132 L38.286678,45.2478316 Z M167.107214,43.2587215 L163.091331,43.2589167 L163.091422,37.6344496 C164.50111,39.453782 165.841044,41.3298761 167.107214,43.2587215 Z M161.102412,35.8004858 L161.102412,43.2589167 L153.643967,43.2589167 L153.643967,35.8004858 L161.102412,35.8004858 Z M151.655048,35.8004858 L151.655048,43.2589167 L144.196602,43.2589167 L144.196602,35.8004858 L151.655048,35.8004858 Z M142.207684,35.8004858 L142.207684,43.2589167 L134.749238,43.2589167 L134.749238,35.8004858 L142.207684,35.8004858 Z M132.760319,35.8004858 L132.760319,43.2589167 L125.301874,43.2589167 L125.301874,35.8004858 L132.760319,35.8004858 Z M123.312955,35.8004858 L123.312955,43.2589167 L115.85451,43.2589167 L115.85451,35.8004858 L123.312955,35.8004858 Z M113.865591,35.8004858 L113.865591,43.2589167 L106.407146,43.2589167 L106.407146,35.8004858 L113.865591,35.8004858 Z M104.418227,35.8004858 L104.418227,43.2589167 L96.9597817,43.2589167 L96.9597817,35.8004858 L104.418227,35.8004858 Z M94.9708629,35.8004858 L94.9708629,43.2589167 L87.5124175,43.2589167 L87.5124175,35.8004858 L94.9708629,35.8004858 Z M85.5234988,35.8004858 L85.5234988,43.2589167 L78.0650534,43.2589167 L78.0650534,35.8004858 L85.5234988,35.8004858 Z M76.0761346,35.8004858 L76.0761346,43.2589167 L68.6176892,43.2589167 L68.6176892,35.8004858 L76.0761346,35.8004858 Z M66.6287705,35.8004858 L66.6287705,43.2589167 L59.1703251,43.2589167 L59.1703251,35.8004858 L66.6287705,35.8004858 Z M57.1814063,35.8004858 L57.1814063,43.2589167 L49.7229609,43.2589167 L49.7229609,35.8004858 L57.1814063,35.8004858 Z M47.7340422,35.8004858 L47.7340422,43.2589167 L40.2755968,43.2589167 L40.2745478,39.1789727 C41.3355807,38.023647 42.4268362,36.8965213 43.5470611,35.7988488 L47.7340422,35.8004858 Z M38.2855086,41.4190795 L38.286678,43.2589167 L36.7494666,43.2580028 C37.2533375,42.6380423 37.7654066,42.0250128 38.2855086,41.4190795 Z M159.95355,33.8106253 L153.643967,33.8115709 L153.645257,27.2596644 C155.858332,29.3333379 157.964166,31.5200629 159.95355,33.8106253 Z M151.655048,26.3531401 L151.655048,33.8115709 L144.196602,33.8115709 L144.196602,26.3531401 L151.655048,26.3531401 Z M142.207684,26.3531401 L142.207684,33.8115709 L134.749238,33.8115709 L134.749238,26.3531401 L142.207684,26.3531401 Z M132.760319,26.3531401 L132.760319,33.8115709 L125.301874,33.8115709 L125.301874,26.3531401 L132.760319,26.3531401 Z M123.312955,26.3531401 L123.312955,33.8115709 L115.85451,33.8115709 L115.85451,26.3531401 L123.312955,26.3531401 Z M113.865591,26.3531401 L113.865591,33.8115709 L106.407146,33.8115709 L106.407146,26.3531401 L113.865591,26.3531401 Z M104.418227,26.3531401 L104.418227,33.8115709 L96.9597817,33.8115709 L96.9597817,26.3531401 L104.418227,26.3531401 Z M94.9708629,26.3531401 L94.9708629,33.8115709 L87.5124175,33.8115709 L87.5124175,26.3531401 L94.9708629,26.3531401 Z M85.5234988,26.3531401 L85.5234988,33.8115709 L78.0650534,33.8115709 L78.0650534,26.3531401 L85.5234988,26.3531401 Z M76.0761346,26.3531401 L76.0761346,33.8115709 L68.6176892,33.8115709 L68.6176892,26.3531401 L76.0761346,26.3531401 Z M66.6287705,26.3531401 L66.6287705,33.8115709 L59.1703251,33.8115709 L59.1703251,26.3531401 L66.6287705,26.3531401 Z M57.1814063,26.3531401 L57.1814063,33.8115709 L49.7229609,33.8115709 L49.721971,30.2855036 C51.4118472,28.9120631 53.1532196,27.5995338 54.9427438,26.3512601 L57.1814063,26.3531401 Z M47.7332193,31.9504375 L47.7340422,33.8115709 L45.6429393,33.8105834 C46.3298192,33.1797642 47.026667,32.5596278 47.7332193,31.9504375 Z M150.397823,24.3633397 L144.196602,24.3642252 L144.197078,19.557407 C146.336354,21.0683305 148.40523,22.6722703 150.397823,24.3633397 Z M142.20769,18.291379 L142.207684,24.3642252 L134.749238,24.3642252 L134.749238,16.9057943 L138.973452,16.90513 C140.062447,17.3463915 141.140693,17.8086417 142.20769,18.291379 Z M132.760319,16.9057943 L132.760319,24.3642252 L125.301874,24.3642252 L125.301874,16.9057943 L132.760319,16.9057943 Z M123.312955,16.9057943 L123.312955,24.3642252 L115.85451,24.3642252 L115.85451,16.9057943 L123.312955,16.9057943 Z M113.865591,16.9057943 L113.865591,24.3642252 L106.407146,24.3642252 L106.407146,16.9057943 L113.865591,16.9057943 Z M104.418227,16.9057943 L104.418227,24.3642252 L96.9597817,24.3642252 L96.9597817,16.9057943 L104.418227,16.9057943 Z M94.9708629,16.9057943 L94.9708629,24.3642252 L87.5124175,24.3642252 L87.5124175,16.9057943 L94.9708629,16.9057943 Z M85.5234988,16.9057943 L85.5234988,24.3642252 L78.0650534,24.3642252 L78.0650534,16.9057943 L85.5234988,16.9057943 Z M76.0761346,16.9057943 L76.0761346,24.3642252 L68.6176892,24.3642252 L68.6175675,18.5182274 C69.8464317,17.9530664 71.0904214,17.4151555 72.3487624,16.9052686 L76.0761346,16.9057943 Z M66.6272941,19.4638143 L66.6287705,24.3642252 L59.1703251,24.3642252 L59.16957,23.5780791 C61.5814284,22.092076 64.0697598,20.7182309 66.6272941,19.4638143 Z M132.760491,14.6549705 L132.760319,14.9168794 L125.301874,14.9168794 L125.302457,12.622538 C127.831089,13.1937723 130.318799,13.8729488 132.760491,14.6549705 Z M123.31347,12.1972508 L123.312955,14.9168794 L115.85451,14.9168794 L115.854628,11.0208196 C118.374481,11.3089471 120.862271,11.7026005 123.31347,12.1972508 Z M106.406793,10.4448381 L105.661278,10.4418381 C108.427384,10.4418381 111.163936,10.5683753 113.865461,10.8159768 L113.865591,14.9168794 L106.407146,14.9168794 L106.406793,10.4448381 Z M104.418135,10.4503665 L104.418227,14.9168794 L96.9597817,14.9168794 L96.9587683,10.8630605 C99.4172246,10.6238128 101.905062,10.4848667 104.418135,10.4503665 Z M94.9706348,11.0791005 L94.9708629,14.9168794 L87.5124175,14.9168794 L87.5116567,12.2991216 C89.9624638,11.7898617 92.450308,11.3816698 94.9706348,11.0791005 Z M85.5224801,12.7364683 L85.5234988,14.9168794 L78.0650534,14.9168794 L78.0643751,14.8160017 C80.5055366,14.0181295 82.9932827,13.3232406 85.5224801,12.7364683 Z" id="Raster"></path>
            <path d="M144.196799,16.4899111 C143.278188,15.8525611 142.346818,15.202464 141.389931,14.590608 C98.6362298,-12.8026968 41.8099136,-0.501841008 14.4812272,42.0858888 C-12.8602177,84.6608716 -0.344138667,141.397772 42.4095627,168.791077 C43.3664494,169.402933 44.3360947,169.976548 45.30574,170.550163 C10.8705744,140.441747 2.3606613,89.3007799 27.3673025,50.3331984 C52.3739437,11.3656168 102.43826,-2.23543312 144.196799,16.4899111 Z" id="Eclipse"></path>
        </g>
    </g>
</svg>