<?xml version="1.0" encoding="UTF-8"?>
<svg width="225px" height="300px" viewBox="0 0 225 300" version="1.1" xmlns="http://www.w3.org/2000/svg" xmlns:xlink="http://www.w3.org/1999/xlink">
    <title>imagen-black-vertical-logo		</title>
    <g id="imagen-black-vertical-logo" stroke="none" fill="none" fill-rule="evenodd" stroke-width="1">
        <g id="text-mark" transform="translate(0, 225)" fill="#3D3D3D">
            <g id="ImageN" transform="translate(4, -20.625)">
                <polygon id="Path" fill-rule="nonzero" points="5.47933884 71.8075577 5.47933884 23.9140133 12.3285124 23.9140133 12.3285124 71.8075577"></polygon>
                <path d="M58.3321281,34.8718728 C61.861355,34.8718728 64.5273007,35.9201583 66.3299651,38.0167294 C68.1326296,40.1133004 69.0339618,43.4765497 69.0339618,48.1064774 L69.0339618,71.8075577 L62.3274793,71.8075577 L62.3274793,49.4823522 C62.3274793,46.7196831 61.8589768,44.6422214 60.9219718,43.2499672 C59.9849669,41.857713 58.5699466,41.1615859 56.6769112,41.1615859 C54.0133437,41.1615859 52.0965263,42.1361638 50.9264592,44.0853197 C49.756392,46.0344756 49.1713585,48.8653925 49.1713585,52.5780703 L49.1713585,71.8075577 L42.464876,71.8075577 L42.464876,49.4823522 C42.464876,47.6369329 42.2579739,46.0972635 41.8441697,44.8633441 C41.4303654,43.6294247 40.8072809,42.7039852 39.9749161,42.0870255 C39.1425512,41.4700658 38.0842588,41.1615859 36.8000387,41.1615859 C34.954567,41.1615859 33.4872267,41.6393202 32.3980178,42.5947888 C31.308809,43.5502573 30.526386,44.9616209 30.050749,46.8288795 C29.5751119,48.696138 29.3372934,50.9838028 29.3372934,53.6918737 L29.3372934,71.8075577 L22.6165418,71.8075577 L22.6165418,35.5434307 L27.8533058,35.5434307 L28.7950671,40.4245101 L29.166064,40.4245101 C29.8034177,39.1687515 30.6048661,38.1313856 31.5704093,37.3124125 C32.5359526,36.4934395 33.6085141,35.8819396 34.788094,35.4779129 C35.9676739,35.0738862 37.1948175,34.8718728 38.4695248,34.8718728 C40.8286846,34.8718728 42.8168475,35.3441473 44.4340134,36.2886962 C46.0511794,37.2332451 47.2592975,38.6828274 48.0583678,40.6374431 L48.5720558,40.6374431 C49.5613809,38.6609882 50.9383501,37.205946 52.7029636,36.2723167 C54.467577,35.3386875 56.3439652,34.8718728 58.3321281,34.8718728 Z" id="Path" fill-rule="nonzero"></path>
                <path d="M90.7515496,34.8718728 C94.7564136,34.8718728 97.7814652,35.8873994 99.8267045,37.9184526 C101.871944,39.9495058 102.894564,43.1107418 102.894564,47.4021606 L102.894564,71.8075577 L98.1286803,71.8075577 L96.8301911,66.6644069 L96.6018853,66.6644069 C95.7076877,67.9747638 94.7849518,69.0585382 93.8336777,69.91573 C92.8824036,70.7729218 91.7860602,71.4117208 90.5446475,71.8321269 C89.3032348,72.2525331 87.7883308,72.4627362 85.9999354,72.4627362 C84.1069,72.4627362 82.4183884,72.0641693 80.9344008,71.2670355 C79.4504132,70.4699017 78.2827243,69.2550917 77.4313339,67.6226054 C76.5799436,65.9901191 76.1542485,63.9181173 76.1542485,61.4065999 C76.1542485,57.6720828 77.3671229,54.8630052 79.7928719,52.9793671 C82.2186209,51.0957291 85.8857825,50.0610931 90.7943569,49.8754592 L96.2594267,49.6461468 L96.2594267,47.7461293 C96.2594267,45.2346119 95.750495,43.4437908 94.7326317,42.373666 C93.7147684,41.3035412 92.2878573,40.7684788 90.4518982,40.7684788 C88.8632705,40.7684788 87.3269628,41.0305502 85.8429752,41.554693 C84.3589876,42.0788357 82.913051,42.7176347 81.5051653,43.4710899 L79.3362603,38.0331088 C80.8868371,37.1049394 82.644316,36.3460243 84.6086971,35.7563637 C86.5730781,35.1667031 88.6206956,34.8718728 90.7515496,34.8718728 Z M96.2308884,54.4780878 L92.1641916,54.6582619 C88.806194,54.7892976 86.4541688,55.444476 85.108116,56.6237972 C83.7620631,57.8031184 83.0890367,59.4192253 83.0890367,61.4721177 C83.0890367,63.2629388 83.555161,64.565106 84.4874096,65.3786192 C85.4196582,66.1921325 86.6468018,66.5988891 88.1688404,66.5988891 C90.4899492,66.5988891 92.4139011,65.839974 93.940696,64.322144 C95.467491,62.8043139 96.2308884,60.5767072 96.2308884,57.6393238 L96.2308884,54.4780878 Z" id="Shape" fill-rule="nonzero"></path>
                <path d="M121.287448,87.9249475 C117.006715,87.9249475 113.722441,87.0404566 111.434627,85.2714748 C109.146813,83.502493 108.002905,81.0237345 108.002905,77.8351994 C108.002905,75.6075927 108.614099,73.7239547 109.836486,72.1842853 C111.058874,70.644616 112.802083,69.5854108 115.066116,69.0066699 C114.209969,68.5698842 113.470353,67.8846768 112.847269,66.9510475 C112.224184,66.0174182 111.912642,64.9882421 111.912642,63.8635191 C111.912642,62.5094836 112.247966,61.3520017 112.918614,60.3910733 C113.589263,59.4301449 114.585722,58.4965156 115.907993,57.5901854 C114.252776,56.7930517 112.925749,55.4799649 111.926911,53.650925 C110.928073,51.8218852 110.428654,49.6789057 110.428654,47.2219865 C110.428654,44.6012727 110.916182,42.3682062 111.891238,40.5227869 C112.866294,38.6773676 114.283693,37.268734 116.143434,36.2968859 C118.003175,35.3250379 120.260072,34.8391139 122.914127,34.8391139 C123.484892,34.8391139 124.105598,34.8746027 124.776246,34.9455804 C125.446894,35.0165581 126.074735,35.1039152 126.659769,35.2076518 C127.244802,35.3113884 127.689523,35.412395 127.993931,35.5106718 L138.92407,35.5106718 L138.92407,39.8020906 L133.544615,40.9486529 C134.058303,41.7785456 134.467351,42.7230945 134.771759,43.7822997 C135.076166,44.8415048 135.22837,45.9935269 135.22837,47.238366 C135.22837,50.9947224 134.103489,53.9484852 131.853725,56.0996545 C129.603962,58.2508237 126.495674,59.3264083 122.528861,59.3264083 C121.5871,59.2936494 120.664364,59.2062923 119.760653,59.0643369 C119.075736,59.5557208 118.554913,60.0907832 118.198186,60.6695241 C117.841458,61.2482651 117.663094,61.8925239 117.663094,62.6023006 C117.663094,63.1919612 117.843836,63.6696954 118.20532,64.0355034 C118.566804,64.4013114 119.101896,64.6715725 119.810595,64.8462867 C120.519295,65.021001 121.387332,65.1083581 122.414708,65.1083581 L127.879778,65.1083581 C131.332903,65.1083581 133.972689,65.9491705 135.799135,67.6307951 C137.625581,69.3124198 138.538804,71.7747988 138.538804,75.0179321 C138.538804,79.1455563 137.057195,82.3286316 134.093976,84.567158 C131.130757,86.8056843 126.861915,87.9249475 121.287448,87.9249475 Z M121.544292,82.5361048 C123.874914,82.5361048 125.839295,82.2740334 127.437435,81.7498907 C129.035576,81.2257479 130.246072,80.4777525 131.068924,79.5059045 C131.891776,78.5340564 132.303202,77.3765745 132.303202,76.0334587 C132.303202,74.8541375 132.04398,73.9478073 131.525536,73.3144682 C131.007092,72.681129 130.236559,72.2470733 129.21394,72.012301 C128.19132,71.7775287 126.914235,71.6601426 125.382683,71.6601426 L120.417033,71.6601426 C119.180376,71.6601426 118.088789,71.8839952 117.142271,72.3317005 C116.195754,72.7794058 115.458516,73.4263945 114.930559,74.2726666 C114.402602,75.1189388 114.138623,76.1426551 114.138623,77.3438156 C114.138623,79.003601 114.783112,80.2839289 116.072088,81.1847992 C117.361064,82.0856696 119.185133,82.5361048 121.544292,82.5361048 Z M122.857051,54.2979138 C124.807163,54.2979138 126.257856,53.680954 127.20913,52.4470346 C128.160404,51.2131152 128.636041,49.4714325 128.636041,47.2219865 C128.636041,44.775987 128.148513,42.9414873 127.173457,41.7184876 C126.198401,40.4954878 124.750086,39.8839879 122.828512,39.8839879 C120.94499,39.8839879 119.510944,40.5064075 118.526375,41.7512465 C117.541807,42.9960855 117.049522,44.836045 117.049522,47.2711249 C117.049522,49.487812 117.541807,51.2131152 118.526375,52.4470346 C119.510944,53.680954 120.954502,54.2979138 122.857051,54.2979138 Z" id="Shape" fill-rule="nonzero"></path>
                <path d="M157.23134,34.8718728 C160.037599,34.8718728 162.449079,35.535241 164.46578,36.8619773 C166.482481,38.1887137 168.033058,40.0778116 169.11751,42.5292709 C170.201963,44.9807303 170.744189,47.9099239 170.744189,51.3168518 L170.744189,55.4280966 L149.654442,55.4280966 C149.730544,58.9442209 150.555774,61.6550217 152.130133,63.560499 C153.704492,65.4659764 155.909069,66.418715 158.743866,66.418715 C160.751055,66.418715 162.558475,66.1948624 164.166129,65.7471571 C165.773782,65.2994518 167.433755,64.6333537 169.146049,63.7488628 L169.146049,70.005817 C167.566934,70.857549 165.95928,71.4799685 164.323089,71.8730756 C162.686897,72.2661826 160.727273,72.4627362 158.444215,72.4627362 C155.343061,72.4627362 152.617661,71.7720689 150.268014,70.3907343 C147.918367,69.0093998 146.084786,66.9428578 144.767271,64.1911083 C143.449757,61.4393588 142.790999,58.0215113 142.790999,53.9375656 C142.790999,49.8645396 143.390302,46.4084733 144.588908,43.5693667 C145.787513,40.7302601 147.46889,38.5709011 149.633038,37.0912898 C151.797187,35.6116785 154.329954,34.8718728 157.23134,34.8718728 Z M157.23134,40.6538226 C155.119512,40.6538226 153.409597,41.4400367 152.101595,43.012465 C150.793593,44.5848933 150.025439,46.8889375 149.797133,49.9245976 L164.180398,49.9245976 C164.161372,48.1119373 163.899772,46.50948 163.395597,45.1172258 C162.891421,43.7249716 162.13278,42.6330075 161.119673,41.8413335 C160.106566,41.0496596 158.810455,40.6538226 157.23134,40.6538226 Z" id="Shape" fill-rule="nonzero"></path>
                <path d="M213.822637,71.8075577 L205.403861,71.8075577 L184.956224,33.5778954 L184.713649,33.5778954 C184.780238,34.866413 184.846828,36.234098 184.913417,37.6809504 C184.980006,39.1278028 185.039461,40.6156039 185.091781,42.1443536 C185.144101,43.6731033 185.18453,45.2182324 185.213068,46.7797411 L185.213068,71.8075577 L179.006005,71.8075577 L179.006005,23.9140133 L187.367704,23.9140133 L207.758264,61.8979837 L207.958032,61.8979837 C207.919981,60.7732607 207.872417,59.4929328 207.815341,58.0570001 C207.758264,56.6210673 207.705944,55.1305364 207.658381,53.5854072 C207.610817,52.040278 207.577522,50.552477 207.558497,49.122004 L207.558497,23.9140133 L213.822637,23.9140133 L213.822637,71.8075577 Z" id="Path" fill-rule="nonzero"></path>
            </g>
        </g>
        <g id="imagen-logo" transform="translate(-1, 0)" fill="#3D3D3D">
            <g id="mark" transform="translate(-20.1257, -21.5044)">
                <g id="grid" transform="translate(46.1208, 46.0561)">
                    <path d="M168.764881,120.001422 C159.884773,142.184708 142.184708,159.884773 120.001422,168.764881 L120,120 Z" id="pixel-3x3"></path>
                    <path d="M115,120 L115.000312,170.591111 C106.352429,173.451735 97.1070228,175 87.5,175 C77.5211655,175 67.9324801,173.329574 58.998314,170.253091 L59,120 L115,120 Z" id="pixel-3x2"></path>
                    <path d="M55,120 L54.9985781,168.764881 C32.815292,159.884773 15.1152265,142.184708 6.23511939,120.001422 L55,120 Z" id="pixel-3x1"></path>
                    <path d="M170.59086,59.9989294 C173.451644,68.6470303 175,77.8926962 175,87.5 C175,97.4787233 173.329611,107.067306 170.253194,116.001387 L120,116 L120,60 Z" id="pixel-2x3"></path>
                    <path d="M55,60 L55,116 L4.7468063,116.001387 C1.67038929,107.067306 0,97.4787233 0,87.5 C0,77.8926962 1.54835585,68.6470303 4.40914041,59.9989294 L55,60 Z" id="pixel-2x1"></path>
                    <path d="M120.001422,6.23511939 C142.517543,15.2484625 160.414903,33.3484167 169.158617,56.0000969 L120,56 Z" id="pixel-1x3"></path>
                    <path d="M87.5,0 C97.1070228,0 106.352429,1.54826527 115.000312,4.40888935 L115,56 L59,56 L58.998314,4.74690907 C67.9324801,1.67042649 77.5211655,0 87.5,0 Z" id="pixel-1x2"></path>
                    <path d="M54.9993427,6.23481333 L55,56 L5.84138255,56.0000969 C14.5851956,33.3481603 32.482862,15.2480528 54.9993427,6.23481333 Z" id="pixel-1x1"></path>
                </g>
                <g id="camera" transform="translate(0, -0)">
                    <g id="Blade-45" transform="translate(85.3529, 77.3529) rotate(45) translate(-85.3529, -77.3529)translate(57.8639, -4.5516)">
                        <path d="M1.15625,86.5 C1.24995295,100.227074 2.27827876,108.447974 4.22607422,115.448242 C5.81413847,121.155656 9.50923508,129.893655 13.9794922,137.163086 C22.8346659,151.563169 33.7441406,148.994629 31.9550781,146.789063 C21.1298828,135.302246 9.82519531,115.955922 9.82519531,84.5514224 C9.82519531,82.1817149 7.44125369,83.0941691 5.49414063,80.5516143 C3.54702756,78.0090596 3.65103146,75.6590798 2.26123047,74.4077148 C1.01205447,74.4077148 1.15625,79.1723633 1.15625,86.5 Z" id="Blade"></path>
                    </g>
                    <g id="Blade-90" transform="translate(139.3529, 59.3529) rotate(90) translate(-139.3529, -59.3529)translate(111.8639, -22.5516)">
                        <path d="M1.15625,86.5 C1.24995295,100.227074 2.27827876,108.447974 4.22607422,115.448242 C5.81413847,121.155656 9.50923508,129.893655 13.9794922,137.163086 C22.8346659,151.563169 33.7441406,148.994629 31.9550781,146.789063 C21.1298828,135.302246 9.82519531,115.955922 9.82519531,84.5514224 C9.82519531,82.1817149 7.44125369,83.0941691 5.49414063,80.5516143 C3.54702756,78.0090596 3.65103146,75.6590798 2.26123047,74.4077148 C1.01205447,74.4077148 1.15625,79.1723633 1.15625,86.5 Z" id="Blade"></path>
                    </g>
                    <g id="Blade-135" transform="translate(190.3529, 85.3529) rotate(135) translate(-190.3529, -85.3529)translate(162.8639, 3.4484)">
                        <path d="M1.15625,86.5 C1.24995295,100.227074 2.27827876,108.447974 4.22607422,115.448242 C5.81413847,121.155656 9.50923508,129.893655 13.9794922,137.163086 C22.8346659,151.563169 33.7441406,148.994629 31.9550781,146.789063 C21.1298828,135.302246 9.82519531,115.955922 9.82519531,84.5514224 C9.82519531,82.1817149 7.44125369,83.0941691 5.49414063,80.5516143 C3.54702756,78.0090596 3.65103146,75.6590798 2.26123047,74.4077148 C1.01205447,74.4077148 1.15625,79.1723633 1.15625,86.5 Z" id="Blade"></path>
                    </g>
                    <g id="Blade-180" transform="translate(208.3529, 139.3529) rotate(180) translate(-208.3529, -139.3529)translate(180.8639, 57.4484)">
                        <path d="M1.15625,86.5 C1.24995295,100.227074 2.27827876,108.447974 4.22607422,115.448242 C5.81413847,121.155656 9.50923508,129.893655 13.9794922,137.163086 C22.8346659,151.563169 33.7441406,148.994629 31.9550781,146.789063 C21.1298828,135.302246 9.82519531,115.955922 9.82519531,84.5514224 C9.82519531,82.1817149 7.44125369,83.0941691 5.49414063,80.5516143 C3.54702756,78.0090596 3.65103146,75.6590798 2.26123047,74.4077148 C1.01205447,74.4077148 1.15625,79.1723633 1.15625,86.5 Z" id="Blade"></path>
                    </g>
                    <g id="Blade-225" transform="translate(182.3529, 190.3529) rotate(225) translate(-182.3529, -190.3529)translate(154.8639, 108.4484)">
                        <path d="M1.15625,86.5 C1.24995295,100.227074 2.27827876,108.447974 4.22607422,115.448242 C5.81413847,121.155656 9.50923508,129.893655 13.9794922,137.163086 C22.8346659,151.563169 33.7441406,148.994629 31.9550781,146.789063 C21.1298828,135.302246 9.82519531,115.955922 9.82519531,84.5514224 C9.82519531,82.1817149 7.44125369,83.0941691 5.49414063,80.5516143 C3.54702756,78.0090596 3.65103146,75.6590798 2.26123047,74.4077148 C1.01205447,74.4077148 1.15625,79.1723633 1.15625,86.5 Z" id="Blade"></path>
                    </g>
                    <g id="Blade-270" transform="translate(128.3529, 208.3529) rotate(270) translate(-128.3529, -208.3529)translate(100.8639, 126.4484)">
                        <path d="M1.15625,86.5 C1.24995295,100.227074 2.27827876,108.447974 4.22607422,115.448242 C5.81413847,121.155656 9.50923508,129.893655 13.9794922,137.163086 C22.8346659,151.563169 33.7441406,148.994629 31.9550781,146.789063 C21.1298828,135.302246 9.82519531,115.955922 9.82519531,84.5514224 C9.82519531,82.1817149 7.44125369,83.0941691 5.49414063,80.5516143 C3.54702756,78.0090596 3.65103146,75.6590798 2.26123047,74.4077148 C1.01205447,74.4077148 1.15625,79.1723633 1.15625,86.5 Z" id="Blade"></path>
                    </g>
                    <g id="Blade-315" transform="translate(77.3529, 182.3529) rotate(315) translate(-77.3529, -182.3529)translate(49.8639, 100.4484)">
                        <path d="M1.15625,86.5 C1.24995295,100.227074 2.27827876,108.447974 4.22607422,115.448242 C5.81413847,121.155656 9.50923508,129.893655 13.9794922,137.163086 C22.8346659,151.563169 33.7441406,148.994629 31.9550781,146.789063 C21.1298828,135.302246 9.82519531,115.955922 9.82519531,84.5514224 C9.82519531,82.1817149 7.44125369,83.0941691 5.49414063,80.5516143 C3.54702756,78.0090596 3.65103146,75.6590798 2.26123047,74.4077148 C1.01205447,74.4077148 1.15625,79.1723633 1.15625,86.5 Z" id="Blade"></path>
                    </g>
                    <g id="Eclipse-Arc-Blade" transform="translate(32.0869, 46.0561)">
                        <path d="M1.15625,86.5 C1.24995295,100.227074 2.27827876,108.447974 4.22607422,115.448242 C5.81413847,121.155656 9.50923508,129.893655 13.9794922,137.163086 C22.8346659,151.563169 33.7441406,148.994629 31.9550781,146.789063 C21.1298828,135.302246 9.82519531,115.955922 9.82519531,84.5514224 C9.82519531,82.1817149 7.44125369,83.0941691 5.49414063,80.5516143 C3.54702756,78.0090596 3.65103146,75.6590798 2.26123047,74.4077148 C1.01205447,74.4077148 1.15625,79.1723633 1.15625,86.5 Z" id="Blade"></path>
                    </g>
                </g>
            </g>
        </g>
    </g>
</svg>