<?xml version="1.0" encoding="UTF-8"?>
<svg width="225px" height="225px" viewBox="0 0 225 225" version="1.1" xmlns="http://www.w3.org/2000/svg" xmlns:xlink="http://www.w3.org/1999/xlink">
    <title>imagen-logo		</title>
    <g id="imagen-logo" stroke="none" fill="none" fill-rule="evenodd" stroke-width="1">
        <g id="mark" transform="translate(15, 18)">
            <g id="grid" transform="translate(20, 15)">
                <path d="M170.158241,120.000879 C161.41442,142.652025 143.517344,160.751542 121.001655,169.764787 L121,120 Z" id="pixel-3x3" fill="#F2CD3A"></path>
                <path d="M116,120 L116.00119,170.59082 C107.353055,173.45163 98.1073479,175 88.5,175 C78.5216484,175 68.933408,173.329735 59.9996109,170.253538 L60,120 L116,120 Z" id="pixel-3x2" fill="#42CC72"></path>
                <path d="M56,120 L55.9993427,168.765187 C33.8157765,159.885211 16.1154527,142.185087 7.23521281,120.001655 L56,120 Z" id="pixel-3x1" fill="#3BB1C1"></path>
                <path d="M172.59115,59.999808 C175.451749,68.6476565 177,77.8930216 177,87.5 C177,97.4787233 175.329611,107.067306 172.253194,116.001387 L121,116 L121,60 Z" id="pixel-2x3" fill="#EFAD0C"></path>
                <path d="M56,60 L56,116 L5.7468063,116.001387 C2.67038929,107.067306 1,97.4787233 1,87.5 C1,77.8930216 2.54825098,68.6476565 5.40884976,59.999808 L56,60 Z" id="pixel-2x1" fill="#3C0886"></path>
                <path d="M121.000879,5.84175926 C143.986947,14.7148676 162.28579,33.013914 171.158626,56.0001179 L121,56 Z" id="pixel-1x3" fill="#E51D22"></path>
                <path d="M88.5,0 C98.1073479,0 107.353055,1.54837007 116.00119,4.4091798 L116,56 L60,56 L59.9996109,4.7464625 C68.933408,1.67026484 78.5216484,0 88.5,0 Z" id="pixel-1x2" fill="#D91C5C"></path>
                <path d="M56.0001179,5.84137444 L56,56 L5.84137444,56.0001179 C14.7143385,33.0135817 33.0135817,14.7143385 56.0001179,5.84137444 Z" id="pixel-1x1" fill="#7817E4"></path>
            </g>
            <path d="M145.423,16.6300909 C144.496577,15.9873227 143.557287,15.3316993 142.592263,14.7146419 C99.4749991,-12.9115318 42.165451,-0.506107128 14.6043706,42.4436584 C-12.9695767,85.3805686 -0.347065106,142.599786 42.7701993,170.22596 C43.7352231,170.843017 44.7131139,171.421509 45.6910047,172 C10.9630141,141.635634 2.38073556,90.0599205 27.6000248,50.7610779 C52.819314,11.4622352 103.30936,-2.25443641 145.423,16.6300909 Z" id="Eclipse-Arc" fill="#F89522"></path>
        </g>
    </g>
</svg>