<?xml version="1.0" encoding="UTF-8"?>
<svg width="225px" height="225px" viewBox="0 0 225 225" version="1.1" xmlns="http://www.w3.org/2000/svg" xmlns:xlink="http://www.w3.org/1999/xlink">
    <title>imagen-white-logo</title>
    <g id="imagen-white-logo" stroke="none" fill="none" fill-rule="evenodd" stroke-width="1">
        <g id="mark" fill="#FFFFFF" transform="translate(15.0001, 18)">
            <g id="grid" transform="translate(20.9999, 15)">
                <path d="M169.158249,120.000859 C160.4144,142.652092 142.517227,160.751664 120.001422,169.764881 L120,120 Z" id="pixel-3x3"></path>
                <path d="M115,120 L115.000312,170.591111 C106.352429,173.451735 97.1070228,175 87.5,175 C77.5211655,175 67.9324801,173.329574 58.998314,170.253091 L59,120 L115,120 Z" id="pixel-3x2"></path>
                <path d="M55,120 L54.9985781,168.764881 C32.815292,159.884773 15.1152265,142.184708 6.23511939,120.001422 L55,120 Z" id="pixel-3x1"></path>
                <path d="M171.59086,59.9989294 C174.451644,68.6470303 176,77.8926962 176,87.5 C176,97.4787233 174.329611,107.067306 171.253194,116.001387 L120,116 L120,60 Z" id="pixel-2x3"></path>
                <path d="M55,60 L55,116 L4.7468063,116.001387 C1.67038929,107.067306 0,97.4787233 0,87.5 C0,77.8926962 1.54835585,68.6470303 4.40914041,59.9989294 L55,60 Z" id="pixel-2x1"></path>
                <path d="M120.000859,5.84175144 C142.98693,14.7148542 161.285776,33.0138961 170.158617,56.0000969 L120,56 Z" id="pixel-1x3"></path>
                <path d="M87.5,0 C97.1070228,0 106.352429,1.54826527 115.000312,4.40888935 L115,56 L59,56 L58.998314,4.74690907 C67.9324801,1.67042649 77.5211655,0 87.5,0 Z" id="pixel-1x2"></path>
                <path d="M55.0000969,5.84138255 L55,56 L4.84138255,56.0000969 C13.714347,33.0135776 32.0135776,14.714347 55.0000969,5.84138255 Z" id="pixel-1x1"></path>
            </g>
            <path d="M145.423,16.6300909 C144.496577,15.9873227 143.557287,15.3316993 142.592263,14.7146419 C99.4749991,-12.9115318 42.165451,-0.506107128 14.6043706,42.4436584 C-12.9695767,85.3805686 -0.347065106,142.599786 42.7701993,170.22596 C43.7352231,170.843017 44.7131139,171.421509 45.6910047,172 C10.9630141,141.635634 2.38073556,90.0599205 27.6000248,50.7610779 C52.819314,11.4622352 103.30936,-2.25443641 145.423,16.6300909 Z" id="Eclipse-Arc"></path>
        </g>
    </g>
</svg>