<?xml version="1.0" encoding="UTF-8"?>
<svg width="225px" height="225px" viewBox="0 0 225 225" version="1.1" xmlns="http://www.w3.org/2000/svg" xmlns:xlink="http://www.w3.org/1999/xlink">
    <title>imagen-logo		</title>
    <defs>
        <linearGradient x1="16.9481838%" y1="15.1817084%" x2="85.7420334%" y2="80.8716654%" id="linearGradient-1">
            <stop stop-color="#FAB464" offset="0%"></stop>
            <stop stop-color="#AD6817" offset="100%"></stop>
        </linearGradient>
    </defs>
    <g id="imagen-logo" stroke="none" stroke-width="1" fill="none" fill-rule="evenodd">
        <g id="Mark" transform="translate(23, 23)">
            <path d="M94.4711091,178.011078 L94.4714949,178.994489 C94.1411738,178.998158 93.8104133,178.999998 93.4792232,178.999998 C91.6430681,178.999998 89.82012,178.943454 88.0120253,178.832009 L88.0122981,178.011078 L94.4711091,178.011078 Z M103.918613,178.011078 C101.788657,178.637002 99.6349804,178.813695 97.460657,178.911047 L97.4601271,178.011078 Z M85.0233945,178.011078 L85.0232186,178.596735 C83.8642615,178.485621 82.7119051,178.351901 81.5665957,178.196023 L80.911,178.102 L85.0233945,178.011078 Z M122.813136,168.56371 L122.814409,173.962066 C121.763914,174.33575 120.704172,174.689932 119.63562,175.024175 L116.354569,175.022425 L116.354569,168.56371 L122.813136,168.56371 Z M113.36565,168.56371 L113.36565,175.022158 L106.907201,175.022158 L106.907201,168.56371 L113.36565,168.56371 Z M103.918281,168.56371 L103.918281,175.022158 L97.4598326,175.022158 L97.4598326,168.56371 L103.918281,168.56371 Z M94.470913,168.56371 L94.470913,175.022158 L88.0124643,175.022158 L88.0124643,168.56371 L94.470913,168.56371 Z M85.0235446,168.56371 L85.0235446,175.022158 L78.565096,175.022158 L78.565096,168.56371 L85.0235446,168.56371 Z M75.5761763,168.56371 L75.5761763,175.022158 L69.1177277,175.022158 L69.1177277,168.56371 L75.5761763,168.56371 Z M66.1287565,168.56371 L66.1281302,174.640974 C63.9358634,173.920289 61.7818423,173.115319 59.6698999,172.2299 L59.6703042,168.56371 L66.1287565,168.56371 Z M132.260421,168.56371 L132.26052,169.959294 C130.154557,171.002118 128.000604,171.962656 125.802862,172.836704 L125.802034,168.56371 L132.260421,168.56371 Z M56.6813617,168.563685 L56.6809953,170.910291 C55.0937594,170.173619 53.5323124,169.390764 51.9983798,168.563452 L56.6813617,168.563685 Z M141.707723,159.116342 L141.707382,164.522378 C141.167792,164.879429 140.624014,165.230659 140.076138,165.575981 L135.249306,165.574902 L135.249306,159.116342 L141.707723,159.116342 Z M40.6430605,158.87848 L47.2340714,159.116342 L47.2340714,165.065214 C44.7259705,163.108924 42.6312036,161.043384 40.6430605,158.87848 Z M132.260386,159.116342 L132.260386,165.57479 L125.801938,165.57479 L125.801938,159.116342 L132.260386,159.116342 Z M122.813018,159.116342 L122.813018,165.57479 L116.354569,165.57479 L116.354569,159.116342 L122.813018,159.116342 Z M113.36565,159.116342 L113.36565,165.57479 L106.907201,165.57479 L106.907201,159.116342 L113.36565,159.116342 Z M103.918281,159.116342 L103.918281,165.57479 L97.4598326,165.57479 L97.4598326,159.116342 L103.918281,159.116342 Z M94.470913,159.116342 L94.470913,165.57479 L88.0124643,165.57479 L88.0124643,159.116342 L94.470913,159.116342 Z M85.0235446,159.116342 L85.0235446,165.57479 L78.565096,165.57479 L78.565096,159.116342 L85.0235446,159.116342 Z M75.5761763,159.116342 L75.5761763,165.57479 L69.1177277,165.57479 L69.1177277,159.116342 L75.5761763,159.116342 Z M66.128808,159.116342 L66.128808,165.57479 L59.6703594,165.57479 L59.6703594,159.116342 L66.128808,159.116342 Z M56.6814397,159.116342 L56.6814397,165.57479 L50.2229911,165.57479 L50.2229911,159.116342 L56.6814397,159.116342 Z M144.696685,159.116462 L149.021577,159.117504 C147.615966,160.273287 146.173689,161.386104 144.696755,162.453946 L144.696685,159.116462 Z M151.155123,149.668973 L151.155123,156.127422 L144.696674,156.127422 L144.696674,149.668973 L151.155123,149.668973 Z M141.707754,149.668973 L141.707754,156.127422 L135.249306,156.127422 L135.249306,149.668973 L141.707754,149.668973 Z M132.260386,149.668973 L132.260386,156.127422 L125.801938,156.127422 L125.801938,149.668973 L132.260386,149.668973 Z M122.813018,149.668973 L122.813018,156.127422 L116.354569,156.127422 L116.354569,149.668973 L122.813018,149.668973 Z M113.36565,149.668973 L113.36565,156.127422 L106.907201,156.127422 L106.907201,149.668973 L113.36565,149.668973 Z M103.918281,149.668973 L103.918281,156.127422 L97.4598326,156.127422 L97.4598326,149.668973 L103.918281,149.668973 Z M94.470913,149.668973 L94.470913,156.127422 L88.0124643,156.127422 L88.0124643,149.668973 L94.470913,149.668973 Z M85.0235446,149.668973 L85.0235446,156.127422 L78.565096,156.127422 L78.565096,149.668973 L85.0235446,149.668973 Z M75.5761763,149.668973 L75.5761763,156.127422 L69.1177277,156.127422 L69.1177277,149.668973 L75.5761763,149.668973 Z M66.128808,149.668973 L66.128808,156.127422 L59.6703594,156.127422 L59.6703594,149.668973 L66.128808,149.668973 Z M56.6814397,149.668973 L56.6814397,156.127422 L50.2229911,156.127422 L50.2229911,149.668973 L56.6814397,149.668973 Z M47.2340714,149.668973 L47.2340714,156.127422 L40.7756228,156.127422 L40.7756228,149.668973 L47.2340714,149.668973 Z M37.7867031,149.669053 L37.7867031,155.37291 C36.0920351,153.533199 34.624846,151.630553 33.2532172,149.669776 L37.7867031,149.669053 Z M154.144122,149.669123 L158.848698,149.670531 C157.343984,151.359968 155.774763,152.990692 154.144902,154.558839 L154.144122,149.669123 Z M160.602491,140.221605 L160.602491,146.680054 L154.144042,146.680054 L154.144042,140.221605 L160.602491,140.221605 Z M151.155123,140.221605 L151.155123,146.680054 L144.696674,146.680054 L144.696674,140.221605 L151.155123,140.221605 Z M141.707754,140.221605 L141.707754,146.680054 L135.249306,146.680054 L135.249306,140.221605 L141.707754,140.221605 Z M132.260386,140.221605 L132.260386,146.680054 L125.801938,146.680054 L125.801938,140.221605 L132.260386,140.221605 Z M122.813018,140.221605 L122.813018,146.680054 L116.354569,146.680054 L116.354569,140.221605 L122.813018,140.221605 Z M113.36565,140.221605 L113.36565,146.680054 L106.907201,146.680054 L106.907201,140.221605 L113.36565,140.221605 Z M103.918281,140.221605 L103.918281,146.680054 L97.4598326,146.680054 L97.4598326,140.221605 L103.918281,140.221605 Z M94.470913,140.221605 L94.470913,146.680054 L88.0124643,146.680054 L88.0124643,140.221605 L94.470913,140.221605 Z M85.0235446,140.221605 L85.0235446,146.680054 L78.565096,146.680054 L78.565096,140.221605 L85.0235446,140.221605 Z M75.5761763,140.221605 L75.5761763,146.680054 L69.1177277,146.680054 L69.1177277,140.221605 L75.5761763,140.221605 Z M66.128808,140.221605 L66.128808,146.680054 L59.6703594,146.680054 L59.6703594,140.221605 L66.128808,140.221605 Z M56.6814397,140.221605 L56.6814397,146.680054 L50.2229911,146.680054 L50.2229911,140.221605 L56.6814397,140.221605 Z M47.2340714,140.221605 L47.2340714,146.680054 L40.7756228,146.680054 L40.7756228,140.221605 L47.2340714,140.221605 Z M37.7867031,140.221605 L37.7867031,146.680106 L31.4713255,146.680768 L31.3386317,140.221605 L37.7867031,140.221605 Z M163.591514,140.221703 L166.175456,140.222213 C165.344754,141.458958 164.483328,142.673341 163.59227,143.864267 L163.591514,140.221703 Z M28.3392677,140.221714 L28.3390587,141.779323 C28.0542853,141.263313 27.7745271,140.744149 27.4998496,140.221896 L28.3392677,140.221714 Z M170.050096,130.774237 L170.051571,133.886556 C169.424044,135.017509 168.772188,136.133097 168.09671,137.232613 L163.591411,137.232678 L163.591411,130.774237 L170.050096,130.774237 Z M160.602491,130.774237 L160.602491,137.232685 L154.144042,137.232685 L154.144042,130.774237 L160.602491,130.774237 Z M151.155123,130.774237 L151.155123,137.232685 L144.696674,137.232685 L144.696674,130.774237 L151.155123,130.774237 Z M141.707754,130.774237 L141.707754,137.232685 L135.249306,137.232685 L135.249306,130.774237 L141.707754,130.774237 Z M132.260386,130.774237 L132.260386,137.232685 L125.801938,137.232685 L125.801938,130.774237 L132.260386,130.774237 Z M122.813018,130.774237 L122.813018,137.232685 L116.354569,137.232685 L116.354569,130.774237 L122.813018,130.774237 Z M113.36565,130.774237 L113.36565,137.232685 L106.907201,137.232685 L106.907201,130.774237 L113.36565,130.774237 Z M103.918281,130.774237 L103.918281,137.232685 L97.4598326,137.232685 L97.4598326,130.774237 L103.918281,130.774237 Z M94.470913,130.774237 L94.470913,137.232685 L88.0124643,137.232685 L88.0124643,130.774237 L94.470913,130.774237 Z M85.0235446,130.774237 L85.0235446,137.232685 L78.565096,137.232685 L78.565096,130.774237 L85.0235446,130.774237 Z M75.5761763,130.774237 L75.5761763,137.232685 L69.1177277,137.232685 L69.1177277,130.774237 L75.5761763,130.774237 Z M66.128808,130.774237 L66.128808,137.232685 L59.6703594,137.232685 L59.6703594,130.774237 L66.128808,130.774237 Z M56.6814397,130.774237 L56.6814397,137.232685 L50.2229911,137.232685 L50.2229911,130.774237 L56.6814397,130.774237 Z M47.2340714,130.774237 L47.2340714,137.232685 L40.7756228,137.232685 L40.7756228,130.774237 L47.2340714,130.774237 Z M37.7867031,130.774237 L37.7867031,137.232685 L31.3282545,137.232685 L31.3282545,130.774237 L37.7867031,130.774237 Z M28.3393348,130.774263 L28.3393348,137.232727 L25.9996467,137.232924 C24.9914013,135.125036 24.0643546,132.970891 23.2225579,130.774538 L28.3393348,130.774263 Z M175.770914,121.326829 C174.974865,123.521933 174.093483,125.676131 173.130777,127.785414 L173.038779,121.326862 Z M170.049859,121.326868 L170.049859,127.785317 L163.591411,127.785317 L163.591411,121.326868 L170.049859,121.326868 Z M160.602491,121.326868 L160.602491,127.785317 L154.144042,127.785317 L154.144042,121.326868 L160.602491,121.326868 Z M151.155123,121.326868 L151.155123,127.785317 L144.696674,127.785317 L144.696674,121.326868 L151.155123,121.326868 Z M141.707754,121.326868 L141.707754,127.785317 L135.249306,127.785317 L135.249306,121.326868 L141.707754,121.326868 Z M132.260386,121.326868 L132.260386,127.785317 L125.801938,127.785317 L125.801938,121.326868 L132.260386,121.326868 Z M122.813018,121.326868 L122.813018,127.785317 L116.354569,127.785317 L116.354569,121.326868 L122.813018,121.326868 Z M113.36565,121.326868 L113.36565,127.785317 L106.907201,127.785317 L106.907201,121.326868 L113.36565,121.326868 Z M103.918281,121.326868 L103.918281,127.785317 L97.4598326,127.785317 L97.4598326,121.326868 L103.918281,121.326868 Z M94.470913,121.326868 L94.470913,127.785317 L88.0124643,127.785317 L88.0124643,121.326868 L94.470913,121.326868 Z M85.0235446,121.326868 L85.0235446,127.785317 L78.565096,127.785317 L78.565096,121.326868 L85.0235446,121.326868 Z M75.5761763,121.326868 L75.5761763,127.785317 L69.1177277,127.785317 L69.1177277,121.326868 L75.5761763,121.326868 Z M66.128808,121.326868 L66.128808,127.785317 L59.6703594,127.785317 L59.6703594,121.326868 L66.128808,121.326868 Z M56.6814397,121.326868 L56.6814397,127.785317 L50.2229911,127.785317 L50.2229911,121.326868 L56.6814397,121.326868 Z M47.2340714,121.326868 L47.2340714,127.785317 L40.7756228,127.785317 L40.7756228,121.326868 L47.2340714,121.326868 Z M37.7867031,121.326868 L37.7867031,127.785317 L31.3282545,127.785317 L31.3282545,121.326868 L37.7867031,121.326868 Z M28.3393348,121.326868 L28.3393348,127.785319 L22.1386843,127.785338 C22.0515302,127.530642 21.9655083,127.275421 21.8806248,127.01968 L21.8808651,121.326868 L28.3393348,121.326868 Z M178.60122,111.879283 C178.07949,114.06554 177.475715,116.219956 176.793328,118.339096 L173.038779,118.338083 L173.038779,111.879482 Z M18.8919665,111.879406 L18.8919665,115.180813 C18.6553396,114.087315 18.4703053,112.986618 18.310246,111.879296 L18.8919665,111.879406 Z M170.049859,111.8795 L170.049859,118.337949 L163.591411,118.337949 L163.591411,111.8795 L170.049859,111.8795 Z M160.602491,111.8795 L160.602491,118.337949 L154.144042,118.337949 L154.144042,111.8795 L160.602491,111.8795 Z M151.155123,111.8795 L151.155123,118.337949 L144.696674,118.337949 L144.696674,111.8795 L151.155123,111.8795 Z M141.707754,111.8795 L141.707754,118.337949 L135.249306,118.337949 L135.249306,111.8795 L141.707754,111.8795 Z M132.260386,111.8795 L132.260386,118.337949 L125.801938,118.337949 L125.801938,111.8795 L132.260386,111.8795 Z M122.813018,111.8795 L122.813018,118.337949 L116.354569,118.337949 L116.354569,111.8795 L122.813018,111.8795 Z M113.36565,111.8795 L113.36565,118.337949 L106.907201,118.337949 L106.907201,111.8795 L113.36565,111.8795 Z M103.918281,111.8795 L103.918281,118.337949 L97.4598326,118.337949 L97.4598326,111.8795 L103.918281,111.8795 Z M94.470913,111.8795 L94.470913,118.337949 L88.0124643,118.337949 L88.0124643,111.8795 L94.470913,111.8795 Z M85.0235446,111.8795 L85.0235446,118.337949 L78.565096,118.337949 L78.565096,111.8795 L85.0235446,111.8795 Z M75.5761763,111.8795 L75.5761763,118.337949 L69.1177277,118.337949 L69.1177277,111.8795 L75.5761763,111.8795 Z M66.128808,111.8795 L66.128808,118.337949 L59.6703594,118.337949 L59.6703594,111.8795 L66.128808,111.8795 Z M56.6814397,111.8795 L56.6814397,118.337949 L50.2229911,118.337949 L50.2229911,111.8795 L56.6814397,111.8795 Z M47.2340714,111.8795 L47.2340714,118.337949 L40.7756228,118.337949 L40.7756228,111.8795 L47.2340714,111.8795 Z M37.7867031,111.8795 L37.7867031,118.337949 L31.3282545,118.337949 L31.3282545,111.8795 L37.7867031,111.8795 Z M28.3393348,111.8795 L28.3393348,118.337949 L21.8808862,118.337949 L21.8808862,111.8795 L28.3393348,111.8795 Z M179.497466,102.432132 L179.499956,107.65024 C179.422508,108.065099 179.342132,108.478928 179.258852,108.891704 L173.038779,108.890664 L173.038779,102.432132 L179.497466,102.432132 Z M18.8919665,102.432306 L18.8919665,108.8907 L17.9320389,108.890928 C17.6992638,106.760097 17.5423386,104.60647 17.4640154,102.432805 L18.8919665,102.432306 Z M170.049859,102.432132 L170.049859,108.89058 L163.591411,108.89058 L163.591411,102.432132 L170.049859,102.432132 Z M160.602491,102.432132 L160.602491,108.89058 L154.144042,108.89058 L154.144042,102.432132 L160.602491,102.432132 Z M151.155123,102.432132 L151.155123,108.89058 L144.696674,108.89058 L144.696674,102.432132 L151.155123,102.432132 Z M141.707754,102.432132 L141.707754,108.89058 L135.249306,108.89058 L135.249306,102.432132 L141.707754,102.432132 Z M132.260386,102.432132 L132.260386,108.89058 L125.801938,108.89058 L125.801938,102.432132 L132.260386,102.432132 Z M122.813018,102.432132 L122.813018,108.89058 L116.354569,108.89058 L116.354569,102.432132 L122.813018,102.432132 Z M113.36565,102.432132 L113.36565,108.89058 L106.907201,108.89058 L106.907201,102.432132 L113.36565,102.432132 Z M103.918281,102.432132 L103.918281,108.89058 L97.4598326,108.89058 L97.4598326,102.432132 L103.918281,102.432132 Z M94.470913,102.432132 L94.470913,108.89058 L88.0124643,108.89058 L88.0124643,102.432132 L94.470913,102.432132 Z M85.0235446,102.432132 L85.0235446,108.89058 L78.565096,108.89058 L78.565096,102.432132 L85.0235446,102.432132 Z M75.5761763,102.432132 L75.5761763,108.89058 L69.1177277,108.89058 L69.1177277,102.432132 L75.5761763,102.432132 Z M66.128808,102.432132 L66.128808,108.89058 L59.6703594,108.89058 L59.6703594,102.432132 L66.128808,102.432132 Z M56.6814397,102.432132 L56.6814397,108.89058 L50.2229911,108.89058 L50.2229911,102.432132 L56.6814397,102.432132 Z M47.2340714,102.432132 L47.2340714,108.89058 L40.7756228,108.89058 L40.7756228,102.432132 L47.2340714,102.432132 Z M37.7867031,102.432132 L37.7867031,108.89058 L31.3282545,108.89058 L31.3282545,102.432132 L37.7867031,102.432132 Z M28.3393348,102.432132 L28.3393348,108.89058 L21.8808862,108.89058 L21.8808862,102.432132 L28.3393348,102.432132 Z M179.497228,92.9847634 L179.497228,99.4432121 L173.038779,99.4432121 L173.038779,92.9847634 L179.497228,92.9847634 Z M170.049859,92.9847634 L170.049859,99.4432121 L163.591411,99.4432121 L163.591411,92.9847634 L170.049859,92.9847634 Z M160.602491,92.9847634 L160.602491,99.4432121 L154.144042,99.4432121 L154.144042,92.9847634 L160.602491,92.9847634 Z M151.155123,92.9847634 L151.155123,99.4432121 L144.696674,99.4432121 L144.696674,92.9847634 L151.155123,92.9847634 Z M141.707754,92.9847634 L141.707754,99.4432121 L135.249306,99.4432121 L135.249306,92.9847634 L141.707754,92.9847634 Z M132.260386,92.9847634 L132.260386,99.4432121 L125.801938,99.4432121 L125.801938,92.9847634 L132.260386,92.9847634 Z M122.813018,92.9847634 L122.813018,99.4432121 L116.354569,99.4432121 L116.354569,92.9847634 L122.813018,92.9847634 Z M113.36565,92.9847634 L113.36565,99.4432121 L106.907201,99.4432121 L106.907201,92.9847634 L113.36565,92.9847634 Z M103.918281,92.9847634 L103.918281,99.4432121 L97.4598326,99.4432121 L97.4598326,92.9847634 L103.918281,92.9847634 Z M94.470913,92.9847634 L94.470913,99.4432121 L88.0124643,99.4432121 L88.0124643,92.9847634 L94.470913,92.9847634 Z M85.0235446,92.9847634 L85.0235446,99.4432121 L78.565096,99.4432121 L78.565096,92.9847634 L85.0235446,92.9847634 Z M75.5761763,92.9847634 L75.5761763,99.4432121 L69.1177277,99.4432121 L69.1177277,92.9847634 L75.5761763,92.9847634 Z M66.128808,92.9847634 L66.128808,99.4432121 L59.6703594,99.4432121 L59.6703594,92.9847634 L66.128808,92.9847634 Z M56.6814397,92.9847634 L56.6814397,99.4432121 L50.2229911,99.4432121 L50.2229911,92.9847634 L56.6814397,92.9847634 Z M47.2340714,92.9847634 L47.2340714,99.4432121 L40.7756228,99.4432121 L40.7756228,92.9847634 L47.2340714,92.9847634 Z M37.7867031,92.9847634 L37.7867031,99.4432121 L31.3282545,99.4432121 L31.3282545,92.9847634 L37.7867031,92.9847634 Z M28.3393348,92.9847634 L28.3393348,99.4432121 L21.8808862,99.4432121 L21.8808862,92.9847634 L28.3393348,92.9847634 Z M17.6211373,92.9837778 L18.8919665,92.9844852 L18.8919665,99.4431771 L17.4061517,99.4430731 C17.405817,97.1084269 17.4783832,95.0364359 17.6211373,92.9837778 Z M170.049859,83.5373951 L170.049859,89.9958438 L163.591411,89.9958438 L163.591411,83.5373951 L170.049859,83.5373951 Z M160.602491,83.5373951 L160.602491,89.9958438 L154.144042,89.9958438 L154.144042,83.5373951 L160.602491,83.5373951 Z M151.155123,83.5373951 L151.155123,89.9958438 L144.696674,89.9958438 L144.696674,83.5373951 L151.155123,83.5373951 Z M141.707754,83.5373951 L141.707754,89.9958438 L135.249306,89.9958438 L135.249306,83.5373951 L141.707754,83.5373951 Z M132.260386,83.5373951 L132.260386,89.9958438 L125.801938,89.9958438 L125.801938,83.5373951 L132.260386,83.5373951 Z M122.813018,83.5373951 L122.813018,89.9958438 L116.354569,89.9958438 L116.354569,83.5373951 L122.813018,83.5373951 Z M113.36565,83.5373951 L113.36565,89.9958438 L106.907201,89.9958438 L106.907201,83.5373951 L113.36565,83.5373951 Z M103.918281,83.5373951 L103.918281,89.9958438 L97.4598326,89.9958438 L97.4598326,83.5373951 L103.918281,83.5373951 Z M94.470913,83.5373951 L94.470913,89.9958438 L88.0124643,89.9958438 L88.0124643,83.5373951 L94.470913,83.5373951 Z M85.0235446,83.5373951 L85.0235446,89.9958438 L78.565096,89.9958438 L78.565096,83.5373951 L85.0235446,83.5373951 Z M75.5761763,83.5373951 L75.5761763,89.9958438 L69.1177277,89.9958438 L69.1177277,83.5373951 L75.5761763,83.5373951 Z M66.128808,83.5373951 L66.128808,89.9958438 L59.6703594,89.9958438 L59.6703594,83.5373951 L66.128808,83.5373951 Z M56.6814397,83.5373951 L56.6814397,89.9958438 L50.2229911,89.9958438 L50.2229911,83.5373951 L56.6814397,83.5373951 Z M47.2340714,83.5373951 L47.2340714,89.9958438 L40.7756228,89.9958438 L40.7756228,83.5373951 L47.2340714,83.5373951 Z M37.7867031,83.5373951 L37.7867031,89.9958438 L31.3282545,89.9958438 L31.3282545,83.5373951 L37.7867031,83.5373951 Z M28.3393348,83.5373951 L28.3393348,89.9958438 L21.8808862,89.9958438 L21.8808862,83.5373951 L28.3393348,83.5373951 Z M179.497228,83.5373951 L179.497228,89.9958438 L173.038779,89.9958438 L173.038779,83.5373951 L179.497228,83.5373951 Z M18.7909042,83.5371129 L18.8919665,89.9958427 L17.8796799,89.9958405 C18.1052337,87.8184496 18.40995,85.6645643 18.7909042,83.5371129 Z M179.259062,74.0900116 C179.341592,74.4990915 179.421269,74.9092049 179.498071,75.3203304 L179.497301,80.5484755 L173.038779,80.5484755 L173.038779,74.0900257 Z M170.049859,74.0900268 L170.049859,80.5484755 L163.591411,80.5484755 L163.591411,74.0900268 L170.049859,74.0900268 Z M160.602491,74.0900268 L160.602491,80.5484755 L154.144042,80.5484755 L154.144042,74.0900268 L160.602491,74.0900268 Z M151.155123,74.0900268 L151.155123,80.5484755 L144.696674,80.5484755 L144.696674,74.0900268 L151.155123,74.0900268 Z M141.707754,74.0900268 L141.707754,80.5484755 L135.249306,80.5484755 L135.249306,74.0900268 L141.707754,74.0900268 Z M132.260386,74.0900268 L132.260386,80.5484755 L125.801938,80.5484755 L125.801938,74.0900268 L132.260386,74.0900268 Z M122.813018,74.0900268 L122.813018,80.5484755 L116.354569,80.5484755 L116.354569,74.0900268 L122.813018,74.0900268 Z M113.36565,74.0900268 L113.36565,80.5484755 L106.907201,80.5484755 L106.907201,74.0900268 L113.36565,74.0900268 Z M103.918281,74.0900268 L103.918281,80.5484755 L97.4598326,80.5484755 L97.4598326,74.0900268 L103.918281,74.0900268 Z M94.470913,74.0900268 L94.470913,80.5484755 L88.0124643,80.5484755 L88.0124643,74.0900268 L94.470913,74.0900268 Z M85.0235446,74.0900268 L85.0235446,80.5484755 L78.565096,80.5484755 L78.565096,74.0900268 L85.0235446,74.0900268 Z M75.5761763,74.0900268 L75.5761763,80.5484755 L69.1177277,80.5484755 L69.1177277,74.0900268 L75.5761763,74.0900268 Z M66.128808,74.0900268 L66.128808,80.5484755 L59.6703594,80.5484755 L59.6703594,74.0900268 L66.128808,74.0900268 Z M56.6814397,74.0900268 L56.6814397,80.5484755 L50.2229911,80.5484755 L50.2229911,74.0900268 L56.6814397,74.0900268 Z M47.2340714,74.0900268 L47.2340714,80.5484755 L40.7756228,80.5484755 L40.7756228,74.0900268 L47.2340714,74.0900268 Z M37.7867031,74.0900268 L37.7867031,80.5484755 L31.3282545,80.5484755 L31.3282545,74.0900268 L37.7867031,74.0900268 Z M28.3393348,74.0900268 L28.3393348,80.5484755 L21.8808862,80.5484755 L21.8808862,74.0900268 L28.3393348,74.0900268 Z M176.793346,64.6417413 C177.475679,66.76069 178.079413,68.9149108 178.601113,71.100969 L173.038779,71.1010958 L173.038779,64.6425507 Z M170.049859,64.6426585 L170.049859,71.1011071 L163.591411,71.1011071 L163.591411,64.6426585 L170.049859,64.6426585 Z M160.602491,64.6426585 L160.602491,71.1011071 L154.144042,71.1011071 L154.144042,64.6426585 L160.602491,64.6426585 Z M151.155123,64.6426585 L151.155123,71.1011071 L144.696674,71.1011071 L144.696674,64.6426585 L151.155123,64.6426585 Z M141.707754,64.6426585 L141.707754,71.1011071 L135.249306,71.1011071 L135.249306,64.6426585 L141.707754,64.6426585 Z M132.260386,64.6426585 L132.260386,71.1011071 L125.801938,71.1011071 L125.801938,64.6426585 L132.260386,64.6426585 Z M122.813018,64.6426585 L122.813018,71.1011071 L116.354569,71.1011071 L116.354569,64.6426585 L122.813018,64.6426585 Z M113.36565,64.6426585 L113.36565,71.1011071 L106.907201,71.1011071 L106.907201,64.6426585 L113.36565,64.6426585 Z M103.918281,64.6426585 L103.918281,71.1011071 L97.4598326,71.1011071 L97.4598326,64.6426585 L103.918281,64.6426585 Z M94.470913,64.6426585 L94.470913,71.1011071 L88.0124643,71.1011071 L88.0124643,64.6426585 L94.470913,64.6426585 Z M85.0235446,64.6426585 L85.0235446,71.1011071 L78.565096,71.1011071 L78.565096,64.6426585 L85.0235446,64.6426585 Z M75.5761763,64.6426585 L75.5761763,71.1011071 L69.1177277,71.1011071 L69.1177277,64.6426585 L75.5761763,64.6426585 Z M66.128808,64.6426585 L66.128808,71.1011071 L59.6703594,71.1011071 L59.6703594,64.6426585 L66.128808,64.6426585 Z M56.6814397,64.6426585 L56.6814397,71.1011071 L50.2229911,71.1011071 L50.2229911,64.6426585 L56.6814397,64.6426585 Z M47.2340714,64.6426585 L47.2340714,71.1011071 L40.7756228,71.1011071 L40.7756228,64.6426585 L47.2340714,64.6426585 Z M37.7867031,64.6426585 L37.7867031,71.1011071 L31.3282545,71.1011071 L31.3282545,64.6426585 L37.7867031,64.6426585 Z M24.4273295,64.6415138 L28.3393348,64.6425288 L28.3393348,71.1011071 L22.0527223,71.1011071 C22.7674148,68.7636284 23.560213,66.6778372 24.4273295,64.6415138 Z M173.038779,55.1949325 C174.093226,57.3041714 174.974654,59.4583958 175.770743,61.6535308 L173.038779,61.6537067 Z M170.049859,55.1952902 L170.049859,61.6537388 L163.591411,61.6537388 L163.591411,55.1952902 L170.049859,55.1952902 Z M160.602491,55.1952902 L160.602491,61.6537388 L154.144042,61.6537388 L154.144042,55.1952902 L160.602491,55.1952902 Z M151.155123,55.1952902 L151.155123,61.6537388 L144.696674,61.6537388 L144.696674,55.1952902 L151.155123,55.1952902 Z M141.707754,55.1952902 L141.707754,61.6537388 L135.249306,61.6537388 L135.249306,55.1952902 L141.707754,55.1952902 Z M132.260386,55.1952902 L132.260386,61.6537388 L125.801938,61.6537388 L125.801938,55.1952902 L132.260386,55.1952902 Z M122.813018,55.1952902 L122.813018,61.6537388 L116.354569,61.6537388 L116.354569,55.1952902 L122.813018,55.1952902 Z M113.36565,55.1952902 L113.36565,61.6537388 L106.907201,61.6537388 L106.907201,55.1952902 L113.36565,55.1952902 Z M103.918281,55.1952902 L103.918281,61.6537388 L97.4598326,61.6537388 L97.4598326,55.1952902 L103.918281,55.1952902 Z M94.470913,55.1952902 L94.470913,61.6537388 L88.0124643,61.6537388 L88.0124643,55.1952902 L94.470913,55.1952902 Z M85.0235446,55.1952902 L85.0235446,61.6537388 L78.565096,61.6537388 L78.565096,55.1952902 L85.0235446,55.1952902 Z M75.5761763,55.1952902 L75.5761763,61.6537388 L69.1177277,61.6537388 L69.1177277,55.1952902 L75.5761763,55.1952902 Z M66.128808,55.1952902 L66.128808,61.6537388 L59.6703594,61.6537388 L59.6703594,55.1952902 L66.128808,55.1952902 Z M56.6814397,55.1952902 L56.6814397,61.6537388 L50.2229911,61.6537388 L50.2229911,55.1952902 L56.6814397,55.1952902 Z M47.2340714,55.1952902 L47.2340714,61.6537388 L40.7756228,61.6537388 L40.7756228,55.1952902 L47.2340714,55.1952902 Z M37.7867031,55.1952902 L37.7867031,61.6537388 L31.3282545,61.6537388 L31.3282545,55.1952902 L37.7867031,55.1952902 Z M28.3390068,56.6157396 L28.3393052,61.6537252 L25.7663322,61.6536551 C26.5713172,59.9436002 27.4295892,58.2635817 28.3390068,56.6157396 Z M163.591411,45.7479327 L168.09635,45.7480304 C168.771727,46.8473281 169.423491,47.9626925 170.050933,49.0934172 L170.050008,52.2063705 L163.591411,52.2063705 L163.591411,45.7479327 Z M160.602491,45.7479219 L160.602491,52.2063705 L154.144042,52.2063705 L154.144042,45.7479219 L160.602491,45.7479219 Z M151.155123,45.7479219 L151.155123,52.2063705 L144.696674,52.2063705 L144.696674,45.7479219 L151.155123,45.7479219 Z M141.707754,45.7479219 L141.707754,52.2063705 L135.249306,52.2063705 L135.249306,45.7479219 L141.707754,45.7479219 Z M132.260386,45.7479219 L132.260386,52.2063705 L125.801938,52.2063705 L125.801938,45.7479219 L132.260386,45.7479219 Z M122.813018,45.7479219 L122.813018,52.2063705 L116.354569,52.2063705 L116.354569,45.7479219 L122.813018,45.7479219 Z M113.36565,45.7479219 L113.36565,52.2063705 L106.907201,52.2063705 L106.907201,45.7479219 L113.36565,45.7479219 Z M103.918281,45.7479219 L103.918281,52.2063705 L97.4598326,52.2063705 L97.4598326,45.7479219 L103.918281,45.7479219 Z M94.470913,45.7479219 L94.470913,52.2063705 L88.0124643,52.2063705 L88.0124643,45.7479219 L94.470913,45.7479219 Z M85.0235446,45.7479219 L85.0235446,52.2063705 L78.565096,52.2063705 L78.565096,45.7479219 L85.0235446,45.7479219 Z M75.5761763,45.7479219 L75.5761763,52.2063705 L69.1177277,52.2063705 L69.1177277,45.7479219 L75.5761763,45.7479219 Z M66.128808,45.7479219 L66.128808,52.2063705 L59.6703594,52.2063705 L59.6703594,45.7479219 L66.128808,45.7479219 Z M56.6814397,45.7479219 L56.6814397,52.2063705 L50.2229911,52.2063705 L50.2229911,45.7479219 L56.6814397,45.7479219 Z M47.2340714,45.7479219 L47.2340714,52.2063705 L40.7756228,52.2063705 L40.7756228,45.7479219 L47.2340714,45.7479219 Z M35.4266409,45.7468334 L37.7867031,45.7477316 L37.7867031,52.2063705 L31.327925,52.2063705 L31.3275257,51.6006256 C32.6161988,49.5922434 33.9840394,47.6395113 35.4266409,45.7468334 Z M163.59179,39.1165786 C164.482927,40.3075364 165.344427,41.5219549 166.175197,42.7587408 L163.591457,42.7589598 Z M160.602491,36.3005536 L160.602491,42.7590022 L154.144042,42.7590022 L154.144042,36.3005536 L160.602491,36.3005536 Z M151.155123,36.3005536 L151.155123,42.7590022 L144.696674,42.7590022 L144.696674,36.3005536 L151.155123,36.3005536 Z M141.707754,36.3005536 L141.707754,42.7590022 L135.249306,42.7590022 L135.249306,36.3005536 L141.707754,36.3005536 Z M132.260386,36.3005536 L132.260386,42.7590022 L125.801938,42.7590022 L125.801938,36.3005536 L132.260386,36.3005536 Z M122.813018,36.3005536 L122.813018,42.7590022 L116.354569,42.7590022 L116.354569,36.3005536 L122.813018,36.3005536 Z M113.36565,36.3005536 L113.36565,42.7590022 L106.907201,42.7590022 L106.907201,36.3005536 L113.36565,36.3005536 Z M103.918281,36.3005536 L103.918281,42.7590022 L97.4598326,42.7590022 L97.4598326,36.3005536 L103.918281,36.3005536 Z M94.470913,36.3005536 L94.470913,42.7590022 L88.0124643,42.7590022 L88.0124643,36.3005536 L94.470913,36.3005536 Z M85.0235446,36.3005536 L85.0235446,42.7590022 L78.565096,42.7590022 L78.565096,36.3005536 L85.0235446,36.3005536 Z M75.5761763,36.3005536 L75.5761763,42.7590022 L69.1177277,42.7590022 L69.1177277,36.3005536 L75.5761763,36.3005536 Z M66.128808,36.3005536 L66.128808,42.7590022 L59.6703594,42.7590022 L59.6703594,36.3005536 L66.128808,36.3005536 Z M56.6814397,36.3005536 L56.6814397,42.7590022 L50.2229911,42.7590022 L50.2229911,36.3005536 L56.6814397,36.3005536 Z M43.7514865,36.2989468 L47.2340714,36.3003519 L47.2340714,42.7590022 L40.7754957,42.7590022 L40.7746353,39.3740131 C41.7421294,38.3251618 42.7347311,37.2998217 43.7514865,36.2989468 Z M154.144843,28.4231628 C155.77459,29.9910945 157.343699,31.6215953 158.848308,33.3108005 L154.144117,33.3115538 Z M151.155123,26.8531853 L151.155123,33.3116339 L144.696674,33.3116339 L144.696674,26.8531853 L151.155123,26.8531853 Z M141.707754,26.8531853 L141.707754,33.3116339 L135.249306,33.3116339 L135.249306,26.8531853 L141.707754,26.8531853 Z M132.260386,26.8531853 L132.260386,33.3116339 L125.801938,33.3116339 L125.801938,26.8531853 L132.260386,26.8531853 Z M122.813018,26.8531853 L122.813018,33.3116339 L116.354569,33.3116339 L116.354569,26.8531853 L122.813018,26.8531853 Z M113.36565,26.8531853 L113.36565,33.3116339 L106.907201,33.3116339 L106.907201,26.8531853 L113.36565,26.8531853 Z M103.918281,26.8531853 L103.918281,33.3116339 L97.4598326,33.3116339 L97.4598326,26.8531853 L103.918281,26.8531853 Z M94.470913,26.8531853 L94.470913,33.3116339 L88.0124643,33.3116339 L88.0124643,26.8531853 L94.470913,26.8531853 Z M85.0235446,26.8531853 L85.0235446,33.3116339 L78.565096,33.3116339 L78.565096,26.8531853 L85.0235446,26.8531853 Z M75.5761763,26.8531853 L75.5761763,33.3116339 L69.1177277,33.3116339 L69.1177277,26.8531853 L75.5761763,26.8531853 Z M66.128808,26.8531853 L66.128808,33.3116339 L59.6703594,33.3116339 L59.6703594,26.8531853 L66.128808,26.8531853 Z M55.099999,26.8514011 L56.6814397,26.8527568 L56.6814397,33.3116339 L50.2228526,33.3116339 L50.2220806,30.5238102 C51.803905,29.2452144 53.4307962,28.0201592 55.099999,26.8514011 Z M144.696386,20.5284394 C146.172879,21.5958568 147.614732,22.7082218 149.01994,23.8635275 L144.696637,23.8641891 Z M138.874927,17.4047089 C139.827615,17.7919568 140.772011,18.1953666 141.707774,18.6145978 L141.707756,23.8642656 L135.249306,23.8642656 L135.249306,17.4056827 Z M132.260386,17.405817 L132.260386,23.8642656 L125.801938,23.8642656 L125.801938,17.405817 L132.260386,17.405817 Z M122.813018,17.405817 L122.813018,23.8642656 L116.354569,23.8642656 L116.354569,17.405817 L122.813018,17.405817 Z M113.36565,17.405817 L113.36565,23.8642656 L106.907201,23.8642656 L106.907201,17.405817 L113.36565,17.405817 Z M103.918281,17.405817 L103.918281,23.8642656 L97.4598326,23.8642656 L97.4598326,17.405817 L103.918281,17.405817 Z M94.470913,17.405817 L94.470913,23.8642656 L88.0124643,23.8642656 L88.0124643,17.405817 L94.470913,17.405817 Z M85.0235446,17.405817 L85.0235446,23.8642656 L78.565096,23.8642656 L78.565096,17.405817 L85.0235446,17.405817 Z M75.5761763,17.4057429 L75.5761763,23.8642656 L69.1177187,23.8642656 L69.1176284,18.8392563 C70.2153556,18.3392467 71.3251248,17.8610694 72.4463812,17.4052796 L75.5761763,17.4057429 Z M66.1271097,20.2701716 L66.1286006,23.8642656 L59.669889,23.8642656 C61.7662145,22.5751928 63.9202225,21.377763 66.1271097,20.2701716 Z M125.802061,13.2502613 C127.120351,13.5579739 128.427283,13.8952353 129.72212,14.2613093 L125.801976,14.3990227 Z M116.354944,11.5830567 C118.533196,11.8461343 120.687007,12.1885607 122.813402,12.607363 L122.813101,14.4168973 L116.354625,14.4168973 Z M106.905,10.951 L106.957071,10.951145 C109.112891,10.9821662 111.250005,11.0904761 113.365768,11.2734336 L113.365666,14.4168973 L106.907067,14.4168973 L106.905,10.951 Z M103.91822,10.9586972 L103.918273,14.4168973 L97.4598333,14.4168973 L97.4598379,11.3178288 C99.591582,11.1214033 101.745283,11.0007878 103.91822,10.9586972 Z M94.4707365,11.6445151 L94.470886,14.4168973 L88.0123228,14.4168973 L88.0118388,12.7068359 C90.1380468,12.2752931 92.2920106,11.9201894 94.4707365,11.6445151 Z M85.0228349,13.3680458 L85.0233155,14.4168973 L81.1336598,14.4168973 C82.4181458,14.0268216 83.7148213,13.6817622 85.0228349,13.3680458 Z" id="Raster" stroke="#979797" fill="url(#linearGradient-1)"></path>
            <path d="M144.196674,16.4898817 C143.278064,15.8525328 142.346695,15.2024369 141.389809,14.590582 C98.6361444,-12.802674 41.8098774,-0.501840113 14.4812146,42.0858138 C-12.8602066,84.6607208 -0.344138369,141.39752 42.4095259,168.790776 C43.3664119,169.402631 44.3360563,169.976245 45.3057007,170.549859 C10.870565,140.441497 2.36065925,89.3006208 27.3672788,50.3331087 C52.3738983,11.3655965 102.438171,-2.23542914 144.196674,16.4898817 Z" id="Eclipse" fill="#2056A9"></path>
        </g>
    </g>
</svg>